<svg width="36" height="36" viewBox="0 0 36 36" fill="none" xmlns="http://www.w3.org/2000/svg">
<path d="M14.5817 3.23683C17.8804 1.72335 21.8876 2.37733 24.9927 4.25615C28.0979 6.13497 30.4112 9.09182 32.2517 12.2198C33.8204 14.8857 35.1135 17.777 35.4803 20.8483C35.847 23.9196 35.2011 27.2027 33.2431 29.5973C30.9522 32.3989 27.1594 33.6365 23.5405 33.6005C19.9216 33.5645 16.4134 32.4117 13.0213 31.15C10.3505 30.1566 7.67484 29.07 5.38223 27.3776C3.08962 25.6852 1.18767 23.3084 0.598873 20.5203C-0.190385 16.7832 1.74314 13.3395 4.74288 11.3082C8.22623 8.94958 10.7311 5.0035 14.5817 3.23683Z" fill="url(#paint0_linear_6890_93689)"/>
<path d="M25.3809 13.6984V25.5227C25.3809 26.1015 24.9121 26.5703 24.3332 26.5703H8.94414C8.36526 26.5703 7.89648 26.1015 7.89648 25.5227V13.6984H25.3809Z" fill="#27CD02"/>
<path opacity="0.2" d="M10.3059 26.5702H8.94414C8.36526 26.5702 7.89648 26.1015 7.89648 25.5226V13.6984H9.25823V25.5227C9.25823 26.1015 9.727 26.5702 10.3059 26.5702Z" fill="white"/>
<path d="M26.4444 10.7248V13.2193C26.4444 13.4843 26.2295 13.6992 25.9645 13.6992H7.31387C7.04886 13.6992 6.83398 13.4843 6.83398 13.2193V10.7248C6.83398 10.4597 7.04886 10.2449 7.31387 10.2449H25.9645C26.2295 10.2449 26.4444 10.4597 26.4444 10.7248Z" fill="#27CD02"/>
<path opacity="0.2" d="M26.4461 10.7242V11.3125H8.18826C7.92339 11.3125 7.71013 11.5281 7.71013 11.7929V13.6984H7.31406C7.0492 13.6984 6.83594 13.4852 6.83594 13.2203V10.7242C6.83594 10.4593 7.0492 10.2437 7.31406 10.2437H25.9656C26.2304 10.2437 26.4461 10.4593 26.4461 10.7242Z" fill="white"/>
<path d="M14.875 13.6992H18.4028V26.5695H14.875V13.6992Z" fill="#FDFDFF"/>
<path d="M14.875 10.2449H18.4028V13.6992H14.875V10.2449Z" fill="#FDFDFF"/>
<path opacity="0.1" d="M25.3817 20.8281V25.5227C25.3817 26.1015 24.9129 26.5703 24.334 26.5703H20.3637C20.3004 26.2633 20.2676 25.9468 20.2676 25.6211C20.2676 22.9726 22.4215 20.8164 25.0676 20.8164C25.1731 20.8164 25.2785 20.8187 25.3817 20.8281Z" fill="black"/>
<path d="M29.1685 25.62C29.1685 27.8837 27.3343 29.7179 25.0686 29.7179C22.8049 29.7179 20.9707 27.8837 20.9707 25.62C20.9707 23.3563 22.8049 21.5201 25.0686 21.5201C27.3343 21.5201 29.1685 23.3563 29.1685 25.62Z" fill="#F7D100"/>
<path opacity="0.2" d="M25.8548 29.6422C25.5992 29.6919 25.3364 29.7179 25.0665 29.7179C22.8033 29.7179 20.9688 27.8833 20.9688 25.6202C20.9688 23.3571 22.8034 21.5201 25.0665 21.5201C25.3364 21.5201 25.5991 21.5461 25.8548 21.5958C23.9657 21.9627 22.543 23.6269 22.543 25.6202C22.543 27.6135 23.9657 29.2752 25.8548 29.6422Z" fill="white"/>
<path opacity="0.1" d="M7.89648 13.6984H25.3809V14.4015H7.89648V13.6984Z" fill="black"/>
<path d="M20.9038 26.8039C21.4207 28.6183 23.0898 29.9523 25.0677 29.9523C27.4575 29.9523 29.4019 28.0088 29.4019 25.62C29.4019 23.416 27.7469 21.5948 25.6153 21.3242V13.9335H25.9645C26.3584 13.9335 26.6789 13.6131 26.6789 13.2193V10.7247C26.6789 10.3309 26.3585 10.0105 25.9645 10.0105H21.7529C22.443 9.02861 22.3515 7.66117 21.4743 6.78417C20.4924 5.80225 18.8952 5.80225 17.9133 6.78417C17.3871 7.31031 17.0137 8.77042 16.7802 10.0105H16.4983C16.2648 8.77042 15.8914 7.31024 15.3652 6.78417C14.3833 5.80225 12.7861 5.80225 11.8042 6.78417C10.9271 7.66124 10.8355 9.02861 11.5256 10.0105H7.31398C6.92009 10.0105 6.59961 10.3309 6.59961 10.7247V13.2193C6.59961 13.6131 6.92002 13.9335 7.31398 13.9335H7.66323V25.5233C7.66323 26.2294 8.23775 26.8039 8.94383 26.8039H20.9038ZM18.1688 26.3351H15.1098V13.9335H18.1688V26.3351ZM20.7995 26.3351H18.6376V13.9335H25.1466V21.2898C22.6951 21.246 20.7353 23.2254 20.7353 25.62C20.7353 25.8641 20.7605 26.1019 20.7995 26.3351ZM28.9332 25.62C28.9332 27.7503 27.1992 29.4835 25.0678 29.4835C22.9374 29.4835 21.2041 27.7503 21.2041 25.62C21.2041 23.4885 22.9374 21.7545 25.0678 21.7545C27.1991 21.7545 28.9332 23.4885 28.9332 25.62ZM25.9646 10.4792C26.1001 10.4792 26.2102 10.5893 26.2102 10.7247V13.2193C26.2102 13.3547 26.1001 13.4648 25.9646 13.4648C23.8157 13.4648 21.9057 13.4648 18.6376 13.4648V10.4792H25.9646ZM18.2448 7.11555C19.0439 6.31666 20.3437 6.31652 21.1429 7.11555C21.9409 7.91352 21.9417 9.21114 21.1459 10.0105C20.8498 10.0105 18.2583 10.0105 17.2613 10.0105C17.4933 8.81078 17.8319 7.52856 18.2448 7.11555ZM18.1688 10.4792V13.4648H15.1098V10.4792H18.1688ZM12.1357 7.11555C12.9348 6.31666 14.2346 6.31652 15.0338 7.11555C15.4468 7.52856 15.7854 8.81078 16.0173 10.0105C15.0151 10.0105 12.437 10.0105 12.1327 10.0105C11.3369 9.21121 11.3378 7.91352 12.1357 7.11555ZM14.6411 26.3351H8.94404C8.49636 26.3351 8.13221 25.971 8.13221 25.5233V13.9335H14.6412V26.3351H14.6411ZM14.6411 13.4648C12.4663 13.4648 10.6507 13.4648 7.31413 13.4648C7.17863 13.4648 7.06852 13.3547 7.06852 13.2193V10.7247C7.06852 10.5893 7.17863 10.4792 7.31413 10.4792H14.6411V13.4648Z" fill="#198B00"/>
<path d="M24.8335 23.4701V23.7138C24.3487 23.8219 23.9844 24.2541 23.9844 24.771C23.9844 25.2869 24.3486 25.7182 24.8335 25.8261V27.0358C24.6105 26.9435 24.4532 26.7245 24.4532 26.4693C24.4532 26.3399 24.3483 26.235 24.2188 26.235C24.0893 26.235 23.9844 26.3399 23.9844 26.4693C23.9844 26.9852 24.3487 27.4164 24.8336 27.5242V27.7679C24.8336 27.8973 24.9384 28.0022 25.068 28.0022C25.1975 28.0022 25.3023 27.8973 25.3023 27.7679V27.5248C25.7872 27.4176 26.1515 26.9859 26.1515 26.4693C26.1515 25.9517 25.7872 25.5189 25.3023 25.4115V24.2019C25.5252 24.2943 25.6827 24.5143 25.6827 24.771C25.6827 24.9005 25.7875 25.0054 25.9171 25.0054C26.0466 25.0054 26.1514 24.9005 26.1514 24.771C26.1514 24.2534 25.7871 23.8206 25.3022 23.7132V23.47C25.3022 23.3406 25.1974 23.2357 25.0679 23.2357C24.9383 23.2357 24.8335 23.3406 24.8335 23.4701ZM24.8335 25.3377C24.6105 25.2453 24.4532 25.0264 24.4532 24.7711C24.4532 24.5149 24.6105 24.2951 24.8335 24.2024V25.3377ZM25.3022 25.9002C25.5251 25.9926 25.6826 26.2126 25.6826 26.4693C25.6826 26.725 25.5251 26.9442 25.3022 27.0363V25.9002Z" fill="#198B00"/>
<defs>
<linearGradient id="paint0_linear_6890_93689" x1="18" y1="33.6013" x2="18" y2="2.3987" gradientUnits="userSpaceOnUse">
<stop stop-color="#CDDFEE"/>
<stop offset="1" stop-color="#F5F8FA"/>
</linearGradient>
</defs>
</svg>
