<svg width="120" height="120" viewBox="0 0 120 120" fill="none" xmlns="http://www.w3.org/2000/svg">
<g clip-path="url(#clip0_5939_94241)">
<path d="M60 78.5156C80.7107 78.5156 97.5 61.7263 97.5 41.0156C97.5 20.3049 80.7107 3.51562 60 3.51562C39.2893 3.51562 22.5 20.3049 22.5 41.0156C22.5 61.7263 39.2893 78.5156 60 78.5156Z" fill="#F9F9F9"/>
<path d="M97.5 41.0156C97.5 20.3048 80.7105 3.51562 60 3.51562V78.5156C80.7108 78.5156 97.5 61.7264 97.5 41.0156Z" fill="#E2DFF4"/>
<path d="M119.999 115.66L119.78 93.0127C119.761 91.0828 118.191 89.5312 116.265 89.5312C116.253 89.5312 116.242 89.5313 116.23 89.5315C114.289 89.5502 112.73 91.1393 112.749 93.0811L112.868 105.452L102.952 91.0929C102.078 89.8268 100.482 89.2765 99.0133 89.7342C97.5443 90.1922 96.5439 91.552 96.5439 93.0905V116.484C96.5439 118.426 98.118 120 100.06 120C102.001 120 103.575 118.426 103.575 116.484V104.368L112.985 117.994C113.995 119.454 115.689 120.071 117.3 119.568C118.939 119.056 119.999 117.536 119.999 115.695C119.999 115.683 119.999 115.672 119.999 115.66Z" fill="#FF405C"/>
<path d="M41.9141 89.5312C33.5138 89.5312 26.6797 96.3654 26.6797 104.766C26.6797 113.166 33.5138 120 41.9141 120C50.3143 120 57.1484 113.166 57.1484 104.766C57.1484 96.3654 50.3143 89.5312 41.9141 89.5312ZM41.9141 112.969C37.3909 112.969 33.7109 109.289 33.7109 104.766C33.7109 100.242 37.3909 96.5625 41.9141 96.5625C46.4373 96.5625 50.1172 100.242 50.1172 104.766C50.1172 109.289 46.437 112.969 41.9141 112.969Z" fill="#FF7D47"/>
<path d="M76.8467 89.5312C68.4464 89.5312 61.6123 96.3654 61.6123 104.766C61.6123 113.166 68.4464 120 76.8467 120C85.2469 120 92.0811 113.166 92.0811 104.766C92.0811 96.3654 85.2469 89.5312 76.8467 89.5312ZM76.8467 112.969C72.3235 112.969 68.6436 109.289 68.6436 104.766C68.6436 100.242 72.3235 96.5625 76.8467 96.5625C81.3699 96.5625 85.0498 100.242 85.0498 104.766C85.0498 109.289 81.3699 112.969 76.8467 112.969Z" fill="#FF405C"/>
<path d="M14.9112 101.678C12.1425 100.656 9.55758 99.5465 8.65876 99.1539C8.32524 98.8464 8.32102 98.4491 8.35336 98.2232C8.39649 97.9232 8.62336 97.1866 9.79782 96.8329C12.6375 95.9772 14.7708 97.3956 15.1833 97.701C16.2204 98.999 18.0668 99.4157 19.5851 98.6041C21.2977 97.6891 21.9438 95.5591 21.0288 93.8465C19.7855 91.5196 14.1359 88.1821 7.77 90.1007C4.3186 91.1404 1.87547 93.8697 1.39383 97.2243C0.939845 100.386 2.31094 103.428 4.97227 105.163C5.12766 105.264 5.29055 105.353 5.46 105.428C5.59618 105.489 8.83383 106.93 12.4786 108.275C13.902 108.8 15.3556 109.738 15.1664 110.798C15.0101 111.673 13.7892 112.969 11.6649 112.969C9.50508 112.969 7.43251 112.105 6.12094 110.657C4.81735 109.218 2.59383 109.109 1.155 110.413C-0.283827 111.716 -0.39328 113.94 0.910549 115.379C3.57141 118.315 7.4911 120 11.6641 120C16.8797 120 21.2634 116.65 22.0875 112.034C22.7119 108.537 21.1545 103.98 14.9112 101.678Z" fill="#FF7D47"/>
<path d="M70.4208 51.0914L58.2422 44.0602C57.1545 43.4323 56.4844 42.2717 56.4844 41.0156V24.6094C56.4844 22.6678 58.0584 21.0938 60 21.0938C61.9416 21.0938 63.5156 22.6678 63.5156 24.6094V38.986L73.9364 45.0024C75.6178 45.9732 76.1939 48.1233 75.2231 49.8047C74.2523 51.4861 72.1022 52.0625 70.4208 51.0914Z" fill="#613393"/>
<path d="M73.9364 45.0023L63.5156 38.9859V24.6094C63.5156 22.6678 61.9416 21.0938 60 21.0938V45.075L70.4208 51.0914C72.1022 52.0622 74.2523 51.4861 75.2231 49.8047C76.1939 48.1233 75.6178 45.9731 73.9364 45.0023Z" fill="#2B0552"/>
<path d="M56.4844 78.3504C57.642 78.458 58.8143 78.5156 60 78.5156C61.1857 78.5156 62.358 78.458 63.5156 78.3504V71.4844C63.5156 69.5428 61.9416 67.9688 60 67.9688C58.0584 67.9688 56.4844 69.5428 56.4844 71.4844V78.3504Z" fill="#613393"/>
<path d="M63.5156 78.3504V71.4844C63.5156 69.5428 61.9416 67.9688 60 67.9688V78.5156C61.1857 78.5156 62.358 78.458 63.5156 78.3504Z" fill="#2B0552"/>
<path d="M22.6655 37.5C22.5577 38.6576 22.5 39.8299 22.5 41.0156C22.5 42.2013 22.5577 43.3737 22.6652 44.5312H29.5312C31.4728 44.5312 33.0469 42.9572 33.0469 41.0156C33.0469 39.0741 31.4728 37.5 29.5312 37.5H22.6655Z" fill="#613393"/>
<path d="M97.3348 37.5H90.4688C88.5272 37.5 86.9531 39.0741 86.9531 41.0156C86.9531 42.9572 88.5272 44.5312 90.4688 44.5312H97.3348C97.4423 43.3737 97.5 42.2013 97.5 41.0156C97.5 39.8299 97.4423 38.6576 97.3348 37.5Z" fill="#2B0552"/>
<path d="M63.5156 3.68086C62.358 3.57328 61.1857 3.51562 60 3.51562C58.8143 3.51562 57.642 3.57328 56.4844 3.68086V10.5469C56.4844 12.4884 58.0584 14.0625 60 14.0625C61.9416 14.0625 63.5156 12.4884 63.5156 10.5469V3.68086Z" fill="#613393"/>
<path d="M63.5156 10.5469V3.68086C62.358 3.57328 61.1857 3.51562 60 3.51562V14.0625C61.9416 14.0625 63.5156 12.4884 63.5156 10.5469Z" fill="#2B0552"/>
<path d="M31.1143 64.9298C32.6129 66.738 34.2778 68.403 36.0861 69.9016L40.9411 65.0462C42.3141 63.6733 42.3139 61.4472 40.9409 60.0744C39.5679 58.7017 37.3421 58.7017 35.9691 60.0747L31.1143 64.9298Z" fill="#613393"/>
<path d="M88.8859 17.1017C87.3873 15.2935 85.7223 13.6285 83.9141 12.1299L79.059 16.9852C77.6861 18.3582 77.6861 20.584 79.059 21.957C80.432 23.33 82.6579 23.33 84.0308 21.957L88.8859 17.1017Z" fill="#2B0552"/>
<path d="M36.0861 12.1299C34.2778 13.6285 32.6129 15.2935 31.1143 17.1017L35.9696 21.9568C37.3425 23.3297 39.5684 23.3297 40.9414 21.9568C42.3143 20.5838 42.3143 18.3579 40.9414 16.985L36.0861 12.1299Z" fill="#613393"/>
<path d="M83.9141 69.9015C85.7223 68.4029 87.3873 66.7379 88.8859 64.9297L84.0308 60.0746C82.6579 58.7017 80.432 58.7017 79.059 60.0746C77.6861 61.4476 77.6861 63.6735 79.059 65.0464L83.9141 69.9015Z" fill="#2B0552"/>
<path d="M60 82.0312C37.384 82.0312 18.9844 63.6316 18.9844 41.0156C18.9844 18.3996 37.384 0 60 0C82.616 0 101.016 18.3996 101.016 41.0156C101.016 63.6316 82.616 82.0312 60 82.0312ZM60 7.03125C41.261 7.03125 26.0156 22.2766 26.0156 41.0156C26.0156 59.7546 41.261 75 60 75C78.739 75 93.9844 59.7546 93.9844 41.0156C93.9844 22.2766 78.739 7.03125 60 7.03125Z" fill="#7974D7"/>
<path d="M93.9844 41.0156C93.9844 59.7546 78.739 75 60 75V82.0312C82.616 82.0312 101.016 63.6316 101.016 41.0156C101.016 18.3996 82.616 0 60 0V7.03125C78.739 7.03125 93.9844 22.2766 93.9844 41.0156Z" fill="#613393"/>
</g>
<defs>
<clipPath id="clip0_5939_94241">
<rect width="120" height="120" fill="white"/>
</clipPath>
</defs>
</svg>
