<svg width="73" height="72" viewBox="0 0 73 72" fill="none" xmlns="http://www.w3.org/2000/svg">
<path d="M7.63261 38.9925L18.5001 28.125H36.5001V55.125C36.5001 61.875 33.1251 65.25 33.1251 65.25V68.625H7.25011C5.69532 65.8856 4.91738 62.7738 5.00011 59.625V45.3488C4.99973 44.1683 5.23203 42.9993 5.68374 41.9086C6.13544 40.818 6.79769 39.827 7.63261 38.9925Z" fill="#FFCCBC"/>
<path d="M33.125 28.125V55.125C33.125 61.875 29.75 65.25 29.75 65.25V68.625H33.125V65.25C33.125 65.25 36.5 61.875 36.5 55.125V28.125H33.125Z" fill="#FFAB91"/>
<path d="M29.4462 39.2063C29.2091 38.5495 28.8286 37.9539 28.3325 37.4625L28.2537 37.3725C27.8157 36.9354 27.2956 36.5892 26.7233 36.3536C26.1511 36.1181 25.5379 35.9979 24.9191 36C24.3002 36.0021 23.6879 36.1264 23.1173 36.3658C22.5466 36.6052 22.0289 36.955 21.5938 37.395L11.75 47.3288V45.3428C11.75 44.453 12.1013 43.5992 12.7276 42.9671L21.5938 34.02C22.0289 33.58 22.5466 33.2302 23.1173 32.9908C23.6879 32.7514 24.3002 32.6271 24.9191 32.625C25.5379 32.6229 26.1511 32.7431 26.7233 32.9786C27.2956 33.2142 27.8157 33.5604 28.2537 33.9975L28.3325 34.0875C28.9934 34.7415 29.4504 35.5732 29.6481 36.4818C29.8458 37.3904 29.7757 38.3367 29.4462 39.2063Z" fill="#FFAB91"/>
<path d="M54.5 50.625V7.875C54.5 5.38972 52.4853 3.375 50 3.375H23C20.5147 3.375 18.5 5.38972 18.5 7.875V50.625C18.5 53.1103 20.5147 55.125 23 55.125H50C52.4853 55.125 54.5 53.1103 54.5 50.625Z" fill="#EF5350"/>
<path d="M33.125 29.25L25.949 22.0739C25.5015 21.6264 25.25 21.0194 25.25 20.3864C25.25 19.7535 25.5015 19.1465 25.949 18.6989C26.3966 18.2514 27.0036 18 27.6365 18C28.2694 18 28.8764 18.2514 29.324 18.6989L36.5 25.875L43.6761 18.6989C44.1236 18.2514 44.7306 18 45.3636 18C45.9965 18 46.6035 18.2514 47.0511 18.6989C47.4986 19.1465 47.75 19.7535 47.75 20.3864C47.75 21.0194 47.4986 21.6264 47.0511 22.0739L39.875 29.25L47.0511 36.426C47.4986 36.8736 47.75 37.4806 47.75 38.1135C47.75 38.7465 47.4986 39.3535 47.0511 39.801C46.6035 40.2486 45.9965 40.5 45.3636 40.5C44.7306 40.5 44.1236 40.2486 43.6761 39.801L36.5 32.625L29.324 39.801C28.8764 40.2486 28.2694 40.5 27.6365 40.5C27.0036 40.5 26.3965 40.2486 25.949 39.801C25.5014 39.3535 25.25 38.7465 25.25 38.1135C25.25 37.4806 25.5014 36.8736 25.949 36.426L33.125 29.25Z" fill="#EEEEEE"/>
<path d="M47.0525 39.8025C46.8311 40.0245 46.5681 40.2006 46.2785 40.3208C45.9889 40.441 45.6785 40.5028 45.365 40.5028C45.0515 40.5028 44.741 40.441 44.4515 40.3208C44.1619 40.2006 43.8989 40.0245 43.6775 39.8025C43.8995 39.5811 44.0756 39.3181 44.1958 39.0285C44.3159 38.739 44.3778 38.4285 44.3778 38.115C44.3778 37.8015 44.3159 37.4911 44.1958 37.2015C44.0756 36.9119 43.8995 36.6489 43.6775 36.4275L36.5 29.25L43.6775 22.0725C44.1242 21.6245 44.375 21.0177 44.375 20.385C44.375 19.7524 44.1242 19.1455 43.6775 18.6975C44.1251 18.25 44.7321 17.9985 45.365 17.9985C45.9979 17.9985 46.6049 18.25 47.0525 18.6975C47.5001 19.1451 47.7515 19.7521 47.7515 20.385C47.7515 21.018 47.5001 21.625 47.0525 22.0725L39.875 29.25L47.0525 36.4275C47.2745 36.6489 47.4506 36.9119 47.5708 37.2015C47.6909 37.4911 47.7528 37.8015 47.7528 38.115C47.7528 38.4285 47.6909 38.739 47.5708 39.0285C47.4506 39.3181 47.2745 39.5811 47.0525 39.8025Z" fill="#E0E0E0"/>
<path d="M50 3.375H44.375C45.5685 3.375 46.7131 3.84911 47.557 4.69302C48.4009 5.53693 48.875 6.68153 48.875 7.875V47.25C48.875 48.4435 48.4009 49.5881 47.557 50.432C46.7131 51.2759 45.5685 51.75 44.375 51.75H23C21.8065 51.75 20.6619 51.2759 19.818 50.432C18.9741 49.5881 18.5 48.4435 18.5 47.25V50.625C18.5 51.8185 18.9741 52.9631 19.818 53.807C20.6619 54.6509 21.8065 55.125 23 55.125H50C51.1935 55.125 52.3381 54.6509 53.182 53.807C54.0259 52.9631 54.5 51.8185 54.5 50.625V7.875C54.5 6.68153 54.0259 5.53693 53.182 4.69302C52.3381 3.84911 51.1935 3.375 50 3.375Z" fill="#E53935"/>
<path d="M28.3352 37.4612L28.2485 37.3744C27.8114 36.9374 27.2923 36.5909 26.7209 36.3551C26.1496 36.1192 25.5372 35.9985 24.9191 36C24.301 36.0015 23.6893 36.125 23.119 36.3636C22.5488 36.6022 22.0313 36.951 21.5963 37.3902L11.75 47.33V61.875H26.375C26.375 59.8077 25.5537 57.825 24.0919 56.3631C22.63 54.9013 20.6474 54.08 18.58 54.08H18.5C18.5 54.08 24.4021 48.1779 28.3398 44.2774C28.7895 43.8309 29.1462 43.2998 29.3896 42.7147C29.6329 42.1295 29.7579 41.502 29.7575 40.8683C29.7571 40.2347 29.6312 39.6073 29.3871 39.0225C29.1429 38.4378 28.7854 37.9071 28.3352 37.4612Z" fill="#FFCCBC"/>
<path d="M5 19.125H11.75C12.0484 19.125 12.3345 19.0065 12.5455 18.7955C12.7565 18.5845 12.875 18.2984 12.875 18C12.875 17.7016 12.7565 17.4155 12.5455 17.2045C12.3345 16.9935 12.0484 16.875 11.75 16.875H5C4.70163 16.875 4.41548 16.9935 4.2045 17.2045C3.99353 17.4155 3.875 17.7016 3.875 18C3.875 18.2984 3.99353 18.5845 4.2045 18.7955C4.41548 19.0065 4.70163 19.125 5 19.125Z" fill="#FFB74D"/>
<path d="M6.12607 28.125C6.32968 28.1251 6.52945 28.0697 6.70387 27.9646L12.3289 24.5896C12.4567 24.5141 12.5683 24.4141 12.6573 24.2954C12.7463 24.1766 12.8109 24.0414 12.8474 23.8975C12.8839 23.7536 12.8915 23.604 12.8699 23.4571C12.8483 23.3103 12.7979 23.1692 12.7215 23.0419C12.6451 22.9147 12.5443 22.8038 12.4249 22.7156C12.3055 22.6275 12.1698 22.5639 12.0257 22.5284C11.8815 22.493 11.7318 22.4864 11.5852 22.509C11.4385 22.5317 11.2977 22.5832 11.171 22.6605L5.54602 26.0355C5.33501 26.1621 5.17135 26.3545 5.08013 26.583C4.98891 26.8116 4.97516 27.0638 5.04099 27.3009C5.10682 27.5381 5.24859 27.7471 5.44458 27.8959C5.64057 28.0448 5.87996 28.1253 6.12607 28.125Z" fill="#FFB74D"/>
<path d="M11.7497 13.5C11.9958 13.5002 12.2352 13.4197 12.4312 13.2709C12.6272 13.122 12.769 12.913 12.8348 12.6759C12.9006 12.4387 12.8869 12.1866 12.7957 11.958C12.7044 11.7294 12.5408 11.5371 12.3298 11.4104L6.70478 8.0354C6.44906 7.88442 6.14402 7.84067 5.85618 7.9137C5.56833 7.98672 5.32104 8.17059 5.16822 8.42521C5.0154 8.67984 4.96945 8.98455 5.04039 9.27292C5.11134 9.56128 5.29342 9.8099 5.54693 9.96455L11.1719 13.3396C11.3463 13.4446 11.5461 13.5001 11.7497 13.5Z" fill="#FFB74D"/>
<path d="M61.25 19.125H68C68.2984 19.125 68.5845 19.0065 68.7955 18.7955C69.0065 18.5845 69.125 18.2984 69.125 18C69.125 17.7016 69.0065 17.4155 68.7955 17.2045C68.5845 16.9935 68.2984 16.875 68 16.875H61.25C60.9516 16.875 60.6655 16.9935 60.4545 17.2045C60.2435 17.4155 60.125 17.7016 60.125 18C60.125 18.2984 60.2435 18.5845 60.4545 18.7955C60.6655 19.0065 60.9516 19.125 61.25 19.125Z" fill="#FFB74D"/>
<path d="M66.873 28.125C67.1191 28.1253 67.3585 28.0448 67.5545 27.8959C67.7505 27.7471 67.8923 27.5381 67.9581 27.3009C68.0239 27.0638 68.0102 26.8116 67.919 26.583C67.8277 26.3545 67.6641 26.1621 67.4531 26.0355L61.8281 22.6605C61.7014 22.5832 61.5606 22.5317 61.4139 22.509C61.2673 22.4864 61.1175 22.493 60.9734 22.5284C60.8293 22.5639 60.6936 22.6275 60.5742 22.7156C60.4548 22.8038 60.354 22.9147 60.2776 23.0419C60.2012 23.1692 60.1508 23.3103 60.1292 23.4571C60.1076 23.604 60.1152 23.7536 60.1517 23.8975C60.1882 24.0414 60.2528 24.1766 60.3418 24.2954C60.4308 24.4141 60.5424 24.5141 60.6702 24.5896L66.2952 27.9646C66.4696 28.0697 66.6694 28.1251 66.873 28.125Z" fill="#FFB74D"/>
<path d="M61.2511 13.5C61.4547 13.5001 61.6545 13.4447 61.8289 13.3396L67.4539 9.9646C67.5817 9.88914 67.6933 9.78914 67.7823 9.67036C67.8713 9.55157 67.9359 9.41635 67.9724 9.27249C68.0089 9.12863 68.0165 8.97896 67.9949 8.83212C67.9733 8.68528 67.9229 8.54417 67.8465 8.41691C67.7701 8.28965 67.6693 8.17876 67.5499 8.09064C67.4305 8.00251 67.2948 7.93888 67.1507 7.90343C67.0065 7.86797 66.8568 7.86138 66.7101 7.88404C66.5635 7.9067 66.4227 7.95816 66.296 8.03545L60.671 11.4105C60.46 11.5371 60.2964 11.7295 60.2051 11.958C60.1139 12.1866 60.1002 12.4388 60.166 12.6759C60.2318 12.9131 60.3736 13.1221 60.5696 13.2709C60.7656 13.4198 61.005 13.5003 61.2511 13.5Z" fill="#FFB74D"/>
<path d="M13.2339 54.5746L25.9654 41.88C26.5801 41.1111 26.9723 40.1883 27.0994 39.2121C27.2265 38.2359 27.0835 37.2435 26.6861 36.3428C27.2746 36.5799 27.8091 36.9334 28.2577 37.3822L28.3318 37.458C28.7854 37.907 29.1451 38.4418 29.3899 39.0313C29.6347 39.6207 29.7598 40.253 29.7578 40.8913C29.758 41.5215 29.6328 42.1455 29.3895 42.7269C29.1461 43.3083 28.7894 43.8354 28.3403 44.2775C24.4127 48.1689 18.531 54.0498 18.5003 54.0807C20.5775 54.0724 22.5732 54.8883 24.0496 56.3495C25.526 57.8108 26.3625 59.7979 26.3757 61.8751C26.3757 62.3227 26.1979 62.7519 25.8814 63.0683C25.5649 63.3848 25.1357 63.5626 24.6882 63.5626C24.2406 63.5626 23.8114 63.3848 23.4949 63.0683C23.1785 62.7519 23.0007 62.3227 23.0007 61.8751C22.9884 60.6928 22.5078 59.5636 21.6642 58.735C20.8207 57.9065 19.683 57.4463 18.5007 57.4553H14.4269C14.0932 57.4552 13.7671 57.3561 13.4897 57.1706C13.2123 56.9851 12.9962 56.7216 12.8686 56.4133C12.7409 56.105 12.7076 55.7657 12.7727 55.4385C12.8378 55.1112 12.9979 54.8106 13.2339 54.5746Z" fill="#FFAB91"/>
</svg>
