<svg width="25" height="24" viewBox="0 0 25 24" fill="none" xmlns="http://www.w3.org/2000/svg">
<path d="M12.9665 17.9953C12.675 17.8417 12.3265 17.8416 12.0349 17.9949L8.12238 20.052C7.38874 20.4377 6.53127 19.8147 6.67141 18.9978L7.41885 14.6406C7.47454 14.3159 7.36679 13.9847 7.13076 13.7549L3.96171 10.6702C3.36743 10.0917 3.69504 9.08289 4.51579 8.96394L8.88728 8.33039C9.21314 8.28317 9.49487 8.07856 9.64059 7.78329L11.5971 3.81897C11.9639 3.07571 13.0237 3.07571 13.3906 3.81897L15.347 7.78329C15.4928 8.07856 15.7745 8.28317 16.1003 8.33039L20.4718 8.96394C21.2926 9.08289 21.6202 10.0917 21.0259 10.6702L17.8569 13.7549C17.6208 13.9847 17.5131 14.3159 17.5688 14.6406L18.3158 18.9954C18.456 19.8128 17.5977 20.4358 16.864 20.0492L12.9665 17.9953Z" fill="#FFDB1B"/>
</svg>
