<svg width="220" height="220" viewBox="0 0 220 220" fill="none" xmlns="http://www.w3.org/2000/svg">
<path d="M23.2867 104.312L24.1174 119.59C24.1469 120.134 24.5948 120.561 25.14 120.565L52.6316 120.766C53.2014 120.771 53.6665 120.312 53.6705 119.743L53.7576 107.85C53.7615 107.278 53.2995 106.812 52.7271 106.811L35.8192 106.796C35.546 106.796 35.2842 106.688 35.091 106.495L32.1738 103.579C31.9824 103.387 31.7233 103.279 31.4522 103.277L24.3242 103.224C23.7298 103.22 23.2546 103.718 23.2867 104.312Z" fill="#EBEBEB"/>
<path d="M53.7849 105.016L23.7461 104.796L23.6151 122.746L53.6539 122.965L53.7849 105.016Z" fill="#F5F5F5"/>
<path d="M21.3404 106.387L23.4969 125.122C23.5351 125.455 23.8159 125.707 24.1507 125.709L53.4243 125.924C53.7706 125.926 54.0606 125.662 54.0901 125.317L55.7009 106.61C55.7339 106.225 55.4316 105.893 55.0449 105.89L22.0039 105.648C21.6057 105.645 21.2947 105.991 21.3404 106.387Z" fill="#EBEBEB"/>
<path d="M148.103 106.95L148.818 120.105C148.843 120.573 149.229 120.941 149.698 120.945L173.37 121.118C173.861 121.121 174.261 120.727 174.265 120.236L174.34 109.996C174.343 109.503 173.945 109.102 173.452 109.102L158.893 109.089C158.658 109.088 158.433 108.995 158.266 108.829L155.754 106.318C155.589 106.153 155.366 106.06 155.133 106.058L148.996 106.013C148.484 106.009 148.075 106.438 148.103 106.95Z" fill="#EBEBEB"/>
<path d="M174.365 107.553L148.5 107.364L148.387 122.82L174.253 123.008L174.365 107.553Z" fill="#F5F5F5"/>
<path d="M146.426 108.736L148.282 124.868C148.315 125.155 148.557 125.372 148.846 125.374L174.052 125.559C174.35 125.561 174.6 125.334 174.626 125.037L176.013 108.929C176.042 108.597 175.781 108.311 175.448 108.309L146.998 108.1C146.654 108.097 146.387 108.396 146.426 108.736Z" fill="#EBEBEB"/>
<path d="M195.368 20.7432H153.301V90.3771H195.368V20.7432Z" fill="#E0E0E0"/>
<path d="M193.97 20.7432H151.902V90.3771H193.97V20.7432Z" fill="#EBEBEB"/>
<path d="M192.18 22.1558H153.695V88.9654H192.18V22.1558Z" fill="white"/>
<path d="M184.684 30.8369H161.02V80.2837H184.684V30.8369Z" fill="#EBEBEB"/>
<path d="M161.02 62.7864C160.966 58.1673 165.118 53.6582 169.692 53.0131C171.874 52.7056 174.191 53.1385 176.229 52.303C179.867 50.8114 181.024 45.978 184.685 44.5444L184.853 80.2839H161.021V62.7864H161.02Z" fill="#E0E0E0"/>
<path d="M192.938 109.957C192.938 109.957 189.454 109.706 189.775 117.522C190.095 125.339 190.893 129.502 190.893 129.502C190.893 129.502 190.79 131.235 189.448 130.895C188.106 130.555 185.581 128.868 184.334 130.129C183.041 131.437 183.501 133.442 185.216 135.804C186.932 138.167 190.5 143.48 190.821 143.962C191.137 144.435 191.263 145.321 190.312 145.236C189.36 145.151 182.938 142.974 182.087 146.083C181.237 149.192 187.098 154.988 187.726 155.634C188.354 156.28 188.388 156.688 188.134 157.078C187.878 157.469 185.789 156.534 183.937 155.99C182.085 155.446 179.842 155.139 179.502 156.974C179.161 158.809 181.743 164.179 191.409 169.823L196.06 172.145L200.461 169.337C209.515 162.755 211.546 157.154 211.024 155.362C210.502 153.57 208.301 154.1 206.513 154.826C204.725 155.553 202.739 156.692 202.446 156.329C202.154 155.966 202.147 155.557 202.707 154.851C203.268 154.146 208.52 147.793 207.362 144.784C206.205 141.776 200.033 144.584 199.095 144.764C198.156 144.944 198.194 144.049 198.46 143.547C198.731 143.036 201.75 137.392 203.221 134.87C204.691 132.348 204.948 130.307 203.53 129.135C202.163 128.005 199.82 129.936 198.518 130.409C197.217 130.881 196.942 129.168 196.942 129.168C196.942 129.168 197.319 124.946 196.856 117.137C196.393 109.327 192.868 109.958 192.868 109.958" fill="#EBEBEB"/>
<path d="M193.212 116.958C193.212 116.958 193.221 117.013 193.231 117.121C193.24 117.236 193.252 117.396 193.268 117.6C193.297 118.031 193.339 118.651 193.393 119.446C193.5 121.049 193.637 123.37 193.795 126.238C194.114 131.974 194.487 139.902 194.869 148.659C195.252 157.419 195.605 165.347 195.892 171.085C196.037 173.948 196.155 176.267 196.237 177.879C196.277 178.675 196.307 179.296 196.329 179.727C196.337 179.932 196.343 180.091 196.348 180.207C196.352 180.315 196.349 180.371 196.349 180.371C196.349 180.371 196.34 180.316 196.33 180.208C196.321 180.092 196.309 179.933 196.293 179.728C196.264 179.298 196.222 178.678 196.168 177.883C196.061 176.28 195.925 173.96 195.766 171.092C195.447 165.355 195.075 157.427 194.692 148.667C194.31 139.91 193.957 131.982 193.67 126.245C193.525 123.382 193.407 121.063 193.325 119.451C193.285 118.655 193.254 118.034 193.233 117.603C193.224 117.398 193.218 117.238 193.213 117.122C193.209 117.013 193.212 116.958 193.212 116.958Z" fill="#E0E0E0"/>
<path d="M187.77 132.63C187.779 132.622 187.881 132.708 188.06 132.871C188.239 133.034 188.49 133.277 188.798 133.58C189.411 134.188 190.237 135.05 191.13 136.018C192.003 136.974 192.793 137.838 193.404 138.507C193.675 138.801 193.906 139.051 194.096 139.257C194.26 139.434 194.347 139.536 194.338 139.545C194.33 139.554 194.227 139.469 194.047 139.307C193.869 139.143 193.617 138.9 193.313 138.594C192.705 137.98 191.891 137.107 190.998 136.139C190.118 135.19 189.322 134.332 188.707 133.668C188.434 133.375 188.201 133.125 188.01 132.92C187.848 132.742 187.761 132.639 187.77 132.63Z" fill="#E0E0E0"/>
<path d="M194.801 139.392C194.766 139.357 196.467 137.576 198.599 135.414C200.733 133.252 202.49 131.527 202.525 131.561C202.559 131.595 200.859 133.376 198.726 135.539C196.594 137.701 194.836 139.426 194.801 139.392Z" fill="#E0E0E0"/>
<path d="M194.781 152.868C194.776 152.857 194.891 152.784 195.106 152.661C195.354 152.522 195.658 152.352 196.015 152.151C196.783 151.72 197.841 151.121 198.984 150.417C200.13 149.717 201.145 149.047 201.876 148.558C202.217 148.33 202.507 148.137 202.744 147.979C202.95 147.843 203.068 147.773 203.075 147.783C203.082 147.793 202.978 147.882 202.785 148.035C202.591 148.187 202.306 148.403 201.948 148.661C201.234 149.178 200.226 149.867 199.077 150.569C197.93 151.275 196.859 151.858 196.075 152.262C195.682 152.462 195.362 152.62 195.137 152.723C194.913 152.827 194.787 152.879 194.781 152.868Z" fill="#E0E0E0"/>
<path d="M187.078 148.152C187.085 148.141 187.199 148.195 187.4 148.303C187.601 148.41 187.889 148.57 188.243 148.771C188.951 149.173 189.923 149.74 190.99 150.375C192.058 151.009 193.02 151.593 193.711 152.023C194.057 152.238 194.335 152.415 194.525 152.54C194.715 152.666 194.818 152.74 194.811 152.751C194.805 152.761 194.691 152.707 194.49 152.6C194.289 152.492 194.001 152.332 193.647 152.131C192.939 151.729 191.967 151.162 190.899 150.527C189.831 149.892 188.87 149.309 188.178 148.879C187.833 148.664 187.555 148.487 187.364 148.362C187.174 148.237 187.072 148.162 187.078 148.152Z" fill="#E0E0E0"/>
<path d="M185.547 160.047C185.553 160.036 185.698 160.107 185.956 160.245C186.243 160.403 186.606 160.603 187.039 160.842C187.949 161.353 189.2 162.069 190.576 162.87C191.952 163.671 193.193 164.405 194.087 164.943C194.509 165.202 194.862 165.418 195.141 165.589C195.388 165.745 195.521 165.836 195.515 165.847C195.509 165.858 195.363 165.787 195.106 165.649C194.819 165.491 194.456 165.291 194.023 165.052C193.113 164.541 191.862 163.825 190.486 163.024C189.11 162.223 187.869 161.49 186.975 160.951C186.553 160.693 186.2 160.476 185.921 160.305C185.675 160.149 185.541 160.057 185.547 160.047Z" fill="#E0E0E0"/>
<path d="M195.317 165.64C195.31 165.63 195.455 165.534 195.721 165.369C196.017 165.189 196.396 164.958 196.851 164.681C197.805 164.1 199.12 163.293 200.547 162.362C201.976 161.432 203.248 160.558 204.165 159.92C204.602 159.615 204.967 159.362 205.251 159.164C205.509 158.988 205.655 158.894 205.662 158.904C205.67 158.914 205.538 159.026 205.292 159.22C205.047 159.415 204.688 159.69 204.238 160.022C203.339 160.688 202.076 161.58 200.644 162.511C199.215 163.444 197.886 164.235 196.915 164.79C196.428 165.066 196.032 165.285 195.755 165.43C195.479 165.576 195.323 165.651 195.317 165.64Z" fill="#E0E0E0"/>
<path d="M202.307 173.667H189.441L193.641 205.453H198.108L202.307 173.667Z" fill="#E0E0E0"/>
<path d="M190.11 177.574C190.105 177.577 190.124 177.618 190.179 177.687C190.233 177.754 190.335 177.842 190.489 177.909C190.794 178.042 191.33 178.052 191.848 177.742C192.367 177.456 192.82 176.892 193.516 176.644C194.207 176.38 195.062 176.427 195.882 176.691C196.711 176.947 197.432 177.367 198.085 177.758C198.739 178.148 199.339 178.495 199.877 178.72C200.411 178.953 200.876 179.06 201.198 179.102C201.36 179.123 201.485 179.129 201.571 179.127C201.657 179.127 201.701 179.123 201.702 179.116C201.709 179.074 200.974 179.08 199.937 178.584C199.418 178.346 198.834 177.991 198.185 177.593C197.539 177.194 196.801 176.755 195.945 176.49C195.098 176.218 194.188 176.169 193.448 176.463C193.077 176.604 192.767 176.825 192.508 177.044C192.245 177.262 192.01 177.466 191.771 177.615C191.301 177.919 190.806 177.932 190.518 177.832C190.221 177.729 190.126 177.556 190.11 177.574Z" fill="#F5F5F5"/>
<path d="M190.579 183.428C190.597 183.438 190.681 183.297 190.883 183.087C191.087 182.883 191.423 182.616 191.91 182.435C192.393 182.25 193.013 182.14 193.699 182.166C194.388 182.19 195.139 182.341 195.938 182.471C196.735 182.605 197.525 182.665 198.23 182.566C198.935 182.475 199.548 182.272 200.034 182.051C200.521 181.829 200.882 181.586 201.118 181.406C201.356 181.226 201.469 181.105 201.462 181.097C201.438 181.062 200.941 181.507 199.974 181.915C199.492 182.114 198.892 182.297 198.207 182.374C197.522 182.459 196.763 182.396 195.971 182.264C195.179 182.135 194.416 181.986 193.705 181.973C192.993 181.957 192.351 182.086 191.854 182.298C191.353 182.504 191.014 182.804 190.822 183.032C190.729 183.151 190.662 183.246 190.627 183.317C190.59 183.386 190.573 183.424 190.579 183.428Z" fill="#F5F5F5"/>
<path d="M200.852 186.562C200.856 186.552 200.737 186.472 200.497 186.378C200.258 186.284 199.892 186.186 199.431 186.149C198.97 186.113 198.418 186.142 197.819 186.242C197.218 186.339 196.576 186.505 195.9 186.648C195.225 186.79 194.574 186.886 193.984 186.865C193.394 186.844 192.87 186.715 192.463 186.536C191.635 186.172 191.34 185.643 191.309 185.677C191.301 185.682 191.36 185.814 191.527 186.013C191.693 186.211 191.982 186.464 192.4 186.67C192.818 186.876 193.362 187.026 193.976 187.058C194.591 187.091 195.26 186.998 195.943 186.854C196.626 186.709 197.265 186.538 197.852 186.433C198.438 186.325 198.974 186.281 199.422 186.298C200.325 186.328 200.838 186.601 200.852 186.562Z" fill="#F5F5F5"/>
<path d="M191.715 190.97C191.721 191.004 192.174 190.684 192.964 190.844C193.351 190.914 193.784 191.111 194.271 191.331C194.756 191.558 195.34 191.751 195.967 191.799C197.231 191.921 198.356 191.512 199.045 191.086C199.398 190.876 199.644 190.651 199.811 190.497C199.968 190.33 200.048 190.234 200.038 190.224C200.01 190.194 199.672 190.574 198.971 190.957C198.282 191.339 197.197 191.707 195.986 191.59C194.768 191.521 193.833 190.794 192.989 190.698C192.577 190.637 192.233 190.696 192.018 190.782C191.801 190.867 191.709 190.963 191.715 190.97Z" fill="#F5F5F5"/>
<path d="M192.434 197.071C192.434 197.096 192.865 197.093 193.506 196.858C194.153 196.642 194.954 196.147 195.889 195.775C196.358 195.597 196.828 195.487 197.256 195.489C197.684 195.491 198.066 195.595 198.355 195.74C198.946 196.034 199.117 196.452 199.149 196.425C199.159 196.422 199.133 196.316 199.027 196.154C198.924 195.993 198.727 195.782 198.425 195.609C198.124 195.437 197.718 195.309 197.258 195.296C196.797 195.282 196.299 195.394 195.814 195.579C194.845 195.966 194.07 196.476 193.452 196.721C192.842 196.983 192.429 197.038 192.434 197.071Z" fill="#F5F5F5"/>
<path d="M193.063 199.91C193.056 199.936 193.364 200.047 193.877 200.174C194.39 200.302 195.109 200.438 195.913 200.517C196.717 200.596 197.45 200.602 197.978 200.577C198.506 200.553 198.83 200.504 198.828 200.477C198.825 200.413 197.525 200.469 195.934 200.308C194.343 200.156 193.078 199.849 193.063 199.91Z" fill="#F5F5F5"/>
<path d="M58.7444 28.3623H16.6953V89.3107H58.7444V28.3623Z" fill="#E0E0E0"/>
<path d="M56.6389 28.3623H14.5898V89.3107H56.6389V28.3623Z" fill="#F5F5F5"/>
<path d="M51.4133 34.9634H19.8125V82.7095H51.4133V34.9634Z" fill="white"/>
<path d="M51.414 82.7096C51.414 82.7096 51.41 82.6287 51.4078 82.476C51.4065 82.3185 51.4043 82.0932 51.4017 81.7988C51.3986 81.1987 51.3946 80.3204 51.3889 79.18C51.3823 76.8915 51.3726 73.5568 51.3607 69.3446C51.348 60.9252 51.3304 49.003 51.3093 34.9635L51.414 35.0682C41.7595 35.0713 31.0613 35.0744 19.8171 35.0774H19.8132L19.9276 34.963C19.9188 52.9749 19.9109 69.5818 19.9043 82.7092L19.8132 82.6181C29.4369 82.6384 37.3252 82.6546 42.8142 82.6661C45.5598 82.6762 47.7043 82.6841 49.1687 82.6894C49.8964 82.6938 50.4543 82.6973 50.8367 82.6995C51.2147 82.703 51.414 82.7096 51.414 82.7096C51.414 82.7096 51.2279 82.7162 50.8565 82.7193C50.4781 82.7215 49.9259 82.725 49.2056 82.7294C47.7457 82.7347 45.6082 82.7426 42.8714 82.7528C37.3687 82.7642 29.4611 82.7805 19.8136 82.8007H19.7225V82.7092C19.7159 69.5818 19.708 52.9749 19.6992 34.963V34.8486H19.8136H19.8176C31.0618 34.8522 41.7599 34.8552 51.4144 34.8579H51.5196V34.9626C51.4985 49.0307 51.4804 60.9767 51.4681 69.4128C51.4562 73.6153 51.4465 76.9417 51.4399 79.2244C51.4347 80.3556 51.4303 81.2268 51.4272 81.8222C51.4245 82.1117 51.4223 82.3326 51.421 82.4874C51.4179 82.637 51.414 82.7096 51.414 82.7096Z" fill="#E0E0E0"/>
<path d="M56.7548 28.362C56.7795 28.381 56.4939 28.7976 56.0055 29.451C55.5171 30.1044 54.8237 30.9928 54.0325 31.9538C53.241 32.9147 52.5018 33.7652 51.954 34.3698C51.4066 34.9744 51.0524 35.3343 51.0287 35.314C51.0045 35.2929 51.3155 34.8956 51.8312 34.2642C52.3949 33.5804 53.0887 32.7387 53.8557 31.8081C54.6221 30.8771 55.3147 30.0354 55.8783 29.3507C56.3989 28.7242 56.7297 28.3427 56.7548 28.362Z" fill="#E0E0E0"/>
<path d="M51.5742 82.5562C53.1437 85.0518 54.9965 87.3693 57.0861 89.4492Z" fill="white"/>
<path d="M57.0879 89.4493C57.0672 89.4704 56.6919 89.1448 56.1269 88.575C55.5619 88.0056 54.8131 87.1864 54.0479 86.2302C53.2832 85.2728 52.6483 84.3624 52.2175 83.6857C51.7863 83.0094 51.5513 82.5716 51.576 82.5562C51.6046 82.5382 51.8875 82.9448 52.3513 83.5951C52.8146 84.2458 53.4662 85.1355 54.2265 86.0872C54.9873 87.0376 55.712 87.8688 56.2448 88.4641C56.7772 89.0599 57.1116 89.4251 57.0879 89.4493Z" fill="#E0E0E0"/>
<path d="M14.582 89.2626C16.4182 86.9975 18.2538 84.7324 20.09 82.4673Z" fill="white"/>
<path d="M20.0914 82.4671C20.1402 82.5067 18.947 84.0603 17.4263 85.9365C15.9052 87.8135 14.6323 89.3021 14.5835 89.2625C14.5346 89.2229 15.7275 87.6697 17.2486 85.7926C18.7692 83.9165 20.0421 82.4271 20.0914 82.4671Z" fill="#E0E0E0"/>
<path d="M14.5914 28.3621C14.6412 28.323 15.838 29.7538 17.2649 31.5578C18.6922 33.3623 19.8085 34.8565 19.7588 34.8957C19.7091 34.9348 18.5123 33.5044 17.0854 31.6995C15.6584 29.896 14.5417 28.4013 14.5914 28.3621Z" fill="#E0E0E0"/>
<path d="M41.5694 44.6577H30.9883V74.7005H41.5694V44.6577Z" fill="#E0E0E0"/>
<path d="M111.453 18.1694H78.4023V52.6214H111.453V18.1694Z" fill="#E0E0E0"/>
<path d="M109.214 18.1694H76.1641V52.6214H109.214V18.1694Z" fill="#FAFAFA"/>
<path d="M109.223 52.6319H76.1523V18.1592H109.223V52.6319ZM76.173 52.6112H109.203V18.1794H76.173V52.6112Z" fill="#E0E0E0"/>
<path d="M104.77 22.8008H80.6055V47.9899H104.77V22.8008Z" fill="white"/>
<path d="M80.6058 48.1573C80.6248 48.1798 80.3955 48.4433 80.0096 48.8508C79.6238 49.2578 79.0817 49.8091 78.4736 50.4079C77.8655 51.0068 77.3067 51.5405 76.8949 51.9189C76.4831 52.2973 76.2173 52.5217 76.1966 52.5006C76.1759 52.4794 76.4039 52.2172 76.7897 51.8102C77.1756 51.4032 77.7194 50.8506 78.3293 50.25C78.9391 49.6494 79.4988 49.1148 79.9106 48.7364C80.3225 48.3575 80.5869 48.1349 80.6058 48.1573Z" fill="#E0E0E0"/>
<path d="M104.771 48.0958C104.794 48.0769 105.057 48.3061 105.465 48.692C105.872 49.0779 106.423 49.6204 107.022 50.2281C107.621 50.8361 108.154 51.3949 108.533 51.8068C108.911 52.2191 109.135 52.4844 109.114 52.5051C109.093 52.5257 108.831 52.2978 108.424 51.9119C108.017 51.5261 107.464 50.9822 106.864 50.3724C106.264 49.763 105.729 49.2029 105.35 48.791C104.971 48.3787 104.749 48.1147 104.771 48.0958Z" fill="#E0E0E0"/>
<path d="M104.704 22.868C104.685 22.8456 104.915 22.582 105.3 22.1746C105.686 21.7671 106.228 21.2162 106.836 20.6174C107.445 20.0181 108.003 19.4848 108.415 19.106C108.827 18.7272 109.093 18.5032 109.113 18.5243C109.134 18.5454 108.906 18.8072 108.52 19.2147C108.134 19.6217 107.591 20.1743 106.981 20.7749C106.371 21.3755 105.811 21.9101 105.399 22.2885C104.988 22.6678 104.723 22.8904 104.704 22.868Z" fill="#E0E0E0"/>
<path d="M80.5399 22.9296C80.5175 22.9486 80.2539 22.7193 79.8465 22.3334C79.439 21.9476 78.8882 21.405 78.2893 20.7974C77.6905 20.1893 77.1568 19.6305 76.7784 19.2187C76.3995 18.8064 76.1756 18.5411 76.1967 18.5204C76.2178 18.4993 76.4796 18.7276 76.887 19.1135C77.2945 19.4994 77.8467 20.0432 78.4473 20.6531C79.0479 21.2629 79.5825 21.8226 79.9609 22.2349C80.3397 22.6467 80.5624 22.9107 80.5399 22.9296Z" fill="#E0E0E0"/>
<path d="M104.705 47.9899C104.704 47.9882 104.702 47.9468 104.7 47.8676C104.699 47.7818 104.697 47.6661 104.695 47.5161C104.692 47.2001 104.689 46.7461 104.684 46.1565C104.678 44.9632 104.67 43.2269 104.66 41.0225C104.648 36.6107 104.632 30.3257 104.612 22.8008L104.705 22.8941C97.6706 22.8981 89.4096 22.9029 80.6096 22.9077H80.6074L80.7143 22.8008C80.7086 32.0461 80.7037 40.6956 80.6993 47.9899L80.6074 47.8984C87.8286 47.9178 93.8408 47.9341 98.056 47.9451C100.162 47.9552 101.819 47.9635 102.957 47.9688C103.519 47.9737 103.952 47.9772 104.254 47.9794C104.396 47.9816 104.507 47.9833 104.589 47.9847C104.664 47.9869 104.704 47.9882 104.705 47.9899C104.707 47.9917 104.671 47.9935 104.599 47.9952C104.519 47.9965 104.412 47.9983 104.274 48.0005C103.976 48.0031 103.549 48.0067 102.995 48.0111C101.861 48.0168 100.212 48.0247 98.1141 48.0353C93.8848 48.0467 87.8524 48.063 80.6069 48.0823L80.5154 48.0828V47.9904C80.511 40.6961 80.5057 32.0465 80.5 22.8013V22.6943H80.6069H80.6091C89.4091 22.6992 97.6706 22.704 104.705 22.708H104.798V22.8013C104.778 30.3512 104.762 36.6569 104.751 41.0828C104.74 43.2784 104.732 45.0072 104.726 46.1956C104.721 46.7777 104.718 47.2257 104.715 47.5376C104.713 47.6833 104.711 47.7955 104.71 47.8791C104.709 47.9543 104.707 47.9921 104.705 47.9899Z" fill="#E0E0E0"/>
<path d="M96.7197 31.3638H88.6562V39.4272H96.7197V31.3638Z" fill="#EBEBEB"/>
<path d="M61.1344 157.477L61.9602 172.67C61.9897 173.211 62.435 173.636 62.9771 173.64L90.3165 173.841C90.8832 173.845 91.3456 173.389 91.3496 172.823L91.4363 160.996C91.4402 160.427 90.9804 159.963 90.4115 159.963L73.5969 159.948C73.3254 159.947 73.065 159.839 72.8727 159.648L69.9713 156.748C69.7808 156.557 69.523 156.449 69.2537 156.447L62.1653 156.396C61.5748 156.391 61.1022 156.887 61.1344 157.477Z" fill="#EBEBEB"/>
<path d="M91.4623 158.177L61.5898 157.959L61.4595 175.809L91.332 176.027L91.4623 158.177Z" fill="#F5F5F5"/>
<path d="M59.1958 159.54L61.3404 178.171C61.3787 178.503 61.6576 178.753 61.9907 178.756L91.1024 178.969C91.4465 178.972 91.7347 178.709 91.7646 178.366L93.3667 159.762C93.3997 159.379 93.0991 159.049 92.7141 159.046L59.8558 158.805C59.4598 158.803 59.1505 159.147 59.1958 159.54Z" fill="#EBEBEB"/>
<path d="M108.63 166.036L109.458 181.263C109.488 181.805 109.934 182.231 110.477 182.235L137.876 182.436C138.444 182.44 138.908 181.983 138.912 181.415L138.998 169.563C139.003 168.993 138.542 168.528 137.971 168.527L121.12 168.512C120.848 168.512 120.587 168.404 120.394 168.211L117.487 165.305C117.296 165.114 117.038 165.006 116.767 165.004L109.664 164.952C109.072 164.948 108.598 165.444 108.63 166.036Z" fill="#EBEBEB"/>
<path d="M139.024 166.737L109.086 166.518L108.955 184.408L138.893 184.626L139.024 166.737Z" fill="#F5F5F5"/>
<path d="M106.688 168.104L108.837 186.776C108.875 187.108 109.155 187.359 109.489 187.362L138.665 187.576C139.01 187.578 139.298 187.315 139.328 186.971L140.934 168.327C140.967 167.943 140.665 167.612 140.28 167.609L107.35 167.368C106.952 167.365 106.643 167.71 106.688 168.104Z" fill="#EBEBEB"/>
<path d="M41.162 140.295C36.6511 133.396 37.3089 123.539 42.6963 117.3C44.3683 115.363 46.7056 113.68 49.2545 113.898C51.8646 114.122 53.9678 116.36 54.762 118.857C55.5562 121.353 55.2807 124.058 54.8143 126.636C54.1609 130.245 53.0671 133.939 50.5635 136.619C48.0599 139.3 44.3811 142.054 41.162 140.295Z" fill="#EBEBEB"/>
<path d="M42.5255 173.505C40.8267 169.541 42.0587 164.522 45.4 161.796C46.4371 160.95 47.7936 160.294 49.0872 160.638C50.4116 160.989 51.2925 162.333 51.4755 163.691C51.6586 165.05 51.2714 166.418 50.7975 167.704C50.134 169.505 49.2355 171.308 47.7025 172.462C46.1696 173.616 44.0246 174.702 42.5255 173.505Z" fill="#EBEBEB"/>
<path d="M32.7779 171.136C34.0183 165.019 30.7944 158.27 25.2574 155.39C23.5388 154.496 21.4233 153.966 19.6914 154.834C17.9178 155.722 17.066 157.886 17.2063 159.865C17.3471 161.843 18.2984 163.668 19.3487 165.351C20.8192 167.707 22.6232 169.998 25.1351 171.183C27.6471 172.367 31.006 173.275 32.7779 171.136Z" fill="#EBEBEB"/>
<path d="M33.561 154.596C35.7205 147.626 32.0588 139.176 25.9556 135.177C24.0614 133.936 21.663 133.073 19.5466 133.879C17.3796 134.704 16.1348 137.121 16.0662 139.439C15.998 141.757 16.8903 143.992 17.915 146.072C19.3494 148.985 21.179 151.861 23.962 153.533C26.7454 155.205 31.2497 156.876 33.561 154.596Z" fill="#EBEBEB"/>
<path d="M36.7673 188.661C36.7572 188.662 36.733 188.545 36.6969 188.323C36.6591 188.069 36.6111 187.747 36.5522 187.351C36.5223 187.137 36.4897 186.902 36.4545 186.649C36.4048 186.391 36.3515 186.115 36.2948 185.82C36.1813 185.225 36.0642 184.546 35.8693 183.809C35.7795 183.438 35.6858 183.05 35.5881 182.647C35.4711 182.247 35.3492 181.832 35.2234 181.403C34.991 180.538 34.6474 179.644 34.3258 178.69C33.6116 176.808 32.7242 174.778 31.6356 172.725C30.5264 170.682 29.3243 168.82 28.1504 167.184C27.5335 166.389 26.9778 165.608 26.3855 164.936C26.0973 164.594 25.8188 164.263 25.5508 163.945C25.2688 163.641 24.9978 163.348 24.7382 163.068C24.2317 162.498 23.7306 162.025 23.2976 161.602C23.0833 161.391 22.8823 161.194 22.6953 161.011C22.5034 160.841 22.3261 160.685 22.1637 160.541C21.8663 160.272 21.6243 160.055 21.4338 159.883C21.2688 159.73 21.1852 159.646 21.1918 159.638C21.1979 159.63 21.2943 159.699 21.4716 159.837C21.6718 159.998 21.9261 160.203 22.239 160.454C22.407 160.593 22.5905 160.743 22.7894 160.906C22.9821 161.085 23.1894 161.277 23.4107 161.482C23.8564 161.895 24.3703 162.361 24.8891 162.924C25.1544 163.201 25.4321 163.491 25.7203 163.792C25.9944 164.109 26.2786 164.438 26.5725 164.778C27.1766 165.447 27.7429 166.226 28.3695 167.022C29.5628 168.659 30.7794 170.529 31.8957 172.585C32.9913 174.651 33.877 176.698 34.5814 178.597C34.8982 179.558 35.2348 180.461 35.4588 181.334C35.5798 181.767 35.6964 182.186 35.809 182.589C35.9005 182.996 35.9885 183.387 36.073 183.762C36.2556 184.506 36.3594 185.191 36.4576 185.791C36.506 186.089 36.5517 186.368 36.594 186.627C36.6199 186.883 36.6441 187.119 36.6666 187.336C36.7031 187.736 36.733 188.061 36.7568 188.317C36.7735 188.542 36.7774 188.66 36.7673 188.661Z" fill="#060606"/>
<path d="M36.6092 189.913C36.6044 189.912 36.6044 189.865 36.6092 189.774C36.6171 189.665 36.6268 189.533 36.6391 189.37C36.6739 188.992 36.7219 188.475 36.7821 187.822C36.8156 187.484 36.8521 187.111 36.8926 186.704C36.9234 186.295 36.9344 185.848 36.9595 185.37C36.9951 184.412 37.0866 183.324 37.0532 182.117C37.0501 181.514 37.047 180.882 37.0439 180.225C37.0373 179.567 36.9753 178.884 36.9419 178.176C36.8943 176.758 36.7016 175.255 36.5309 173.671C36.0979 170.514 35.4221 167.069 34.3929 163.536C33.3295 160.012 32.0183 156.755 30.66 153.872C29.9393 152.451 29.2815 151.085 28.548 149.87C28.1903 149.259 27.8699 148.652 27.5166 148.097C27.1607 147.544 26.8192 147.013 26.4927 146.505C25.8631 145.475 25.193 144.613 24.6412 143.829C24.3596 143.442 24.1071 143.074 23.8576 142.747C23.6024 142.429 23.3683 142.136 23.1562 141.871C22.7497 141.356 22.428 140.949 22.1926 140.651C22.0936 140.521 22.0135 140.415 21.9475 140.328C21.8934 140.254 21.8679 140.215 21.8714 140.212C21.8749 140.208 21.9088 140.241 21.9704 140.308C22.0421 140.39 22.1301 140.49 22.2379 140.612C22.4843 140.902 22.8205 141.298 23.246 141.799C23.4651 142.06 23.7062 142.347 23.9693 142.661C24.2254 142.983 24.4855 143.347 24.7741 143.731C25.3399 144.507 26.0241 145.364 26.6674 146.39C27.0001 146.896 27.3485 147.425 27.7111 147.977C28.0706 148.531 28.3971 149.137 28.7609 149.748C29.5063 150.962 30.1751 152.329 30.9055 153.754C32.2831 156.642 33.6084 159.912 34.6767 163.452C35.7107 167.001 36.3817 170.464 36.8015 173.636C36.9656 175.228 37.15 176.739 37.1869 178.163C37.2151 178.874 37.2719 179.56 37.2723 180.22C37.2688 180.88 37.2657 181.514 37.2626 182.119C37.2829 183.33 37.1764 184.422 37.1249 185.381C37.0919 185.86 37.0725 186.307 37.0334 186.717C36.9837 187.123 36.9383 187.496 36.897 187.834C36.8134 188.486 36.7474 189.001 36.699 189.379C36.6752 189.54 36.6559 189.672 36.64 189.779C36.6242 189.868 36.6141 189.914 36.6092 189.913Z" fill="#060606"/>
<path d="M48.3516 122.23C48.356 122.232 48.3362 122.276 48.2939 122.359C48.242 122.456 48.1782 122.575 48.0995 122.721C47.9116 123.056 47.6537 123.516 47.3286 124.097C47.1631 124.397 46.9643 124.721 46.7729 125.091C46.5867 125.466 46.3852 125.871 46.1692 126.305C45.9514 126.741 45.7191 127.206 45.4735 127.698C45.2386 128.196 45.0151 128.735 44.766 129.294C44.5245 129.856 44.253 130.437 44.0035 131.056C43.7633 131.68 43.5133 132.328 43.2546 132.999C43.1257 133.335 42.9941 133.677 42.8608 134.023C42.7416 134.376 42.6206 134.734 42.4978 135.097C42.2532 135.823 42.0011 136.571 41.7428 137.337C40.7867 140.428 39.8807 143.871 39.1155 147.527C38.375 151.19 37.8549 154.713 37.4713 157.928C37.1421 161.148 36.8993 164.056 36.8328 166.504C36.7708 167.727 36.758 168.835 36.7541 169.808C36.7382 170.781 36.7347 171.619 36.7576 172.303C36.7668 172.97 36.7743 173.496 36.7796 173.881C36.7787 174.047 36.7783 174.182 36.7778 174.292C36.7756 174.385 36.7721 174.433 36.7673 174.433C36.762 174.433 36.7558 174.385 36.7479 174.293C36.7404 174.184 36.7316 174.049 36.7202 173.884C36.7013 173.499 36.6753 172.973 36.6427 172.306C36.6023 171.621 36.5891 170.782 36.5891 169.808C36.5772 168.833 36.5754 167.723 36.6242 166.497C36.6638 164.043 36.8861 161.127 37.2011 157.898C37.5707 154.674 38.0837 151.141 38.8265 147.468C39.5934 143.802 40.5103 140.351 41.4836 137.254C41.7467 136.486 42.0033 135.738 42.2527 135.01C42.3781 134.647 42.5018 134.289 42.6237 133.936C42.7601 133.589 42.8943 133.248 43.0258 132.911C43.2907 132.24 43.5468 131.592 43.7927 130.969C44.0488 130.35 44.3269 129.769 44.5751 129.208C44.8307 128.651 45.0613 128.113 45.3037 127.617C45.5576 127.126 45.7969 126.663 46.0218 126.23C46.2457 125.798 46.4552 125.396 46.6483 125.024C46.8477 124.657 47.0545 124.335 47.2278 124.04C47.5741 123.47 47.8482 123.019 48.048 122.689C48.1364 122.549 48.2086 122.435 48.2675 122.342C48.319 122.265 48.3476 122.227 48.3516 122.23Z" fill="#060606"/>
<path d="M46.8195 164.566C46.8363 164.577 46.6647 164.877 46.3399 165.408C46.0099 165.935 45.5572 166.714 45.0261 167.69C44.4906 168.663 43.9081 169.852 43.3171 171.196C42.7407 172.546 42.1648 174.055 41.6592 175.672C41.1642 177.293 40.7889 178.864 40.5033 180.305C40.2332 181.748 40.0435 183.058 39.9362 184.164C39.824 185.269 39.7589 186.168 39.7338 186.789C39.7025 187.41 39.6753 187.755 39.655 187.755C39.6348 187.755 39.6229 187.41 39.6189 186.786C39.6088 186.162 39.6423 185.258 39.7285 184.144C39.8095 183.03 39.9784 181.709 40.2358 180.254C40.5086 178.802 40.8787 177.217 41.3772 175.585C41.8863 173.956 42.4745 172.439 43.0685 171.087C43.6766 169.74 44.2825 168.553 44.8439 167.588C45.401 166.621 45.8828 165.855 46.2436 165.345C46.5982 164.832 46.8024 164.554 46.8195 164.566Z" fill="#060606"/>
<path d="M27.9102 185.555H47.7251L45.3276 205.793H30.3781L27.9102 185.555Z" fill="#455A64"/>
<path d="M28.6328 203.608L30.3158 205.793H45.3268L47.0578 203.678L28.6328 203.608Z" fill="#060606"/>
<path d="M46.9533 191.507C46.9533 191.589 42.8415 191.655 37.7701 191.655C32.6973 191.655 28.5859 191.589 28.5859 191.507C28.5859 191.426 32.6969 191.359 37.7701 191.359C42.8415 191.359 46.9533 191.425 46.9533 191.507Z" fill="white"/>
<path d="M46.9533 192.855C46.9533 192.936 42.8415 193.003 37.7701 193.003C32.6973 193.003 28.5859 192.937 28.5859 192.855C28.5859 192.773 32.6969 192.707 37.7701 192.707C42.8415 192.707 46.9533 192.773 46.9533 192.855Z" fill="white"/>
<path d="M46.7045 194.159C46.7045 194.24 42.7366 194.307 37.8429 194.307C32.9475 194.307 28.9805 194.241 28.9805 194.159C28.9805 194.077 32.9475 194.011 37.8429 194.011C42.7366 194.011 46.7045 194.077 46.7045 194.159Z" fill="white"/>
<path d="M203.201 205.816C203.201 205.879 160.288 205.93 107.363 205.93C54.42 205.93 11.5156 205.878 11.5156 205.816C11.5156 205.752 54.42 205.701 107.363 205.701C160.288 205.701 203.201 205.752 203.201 205.816Z" fill="#060606"/>
<path d="M195.336 65.935C193.857 64.0619 193.823 60.644 193.873 59.7455C193.988 57.6713 189.369 45.574 177.92 50.5706L177.918 50.5627C173.815 50.5627 173.748 54.6125 172.968 55.4269C172.188 56.2413 171.322 57.0888 171.118 58.198C170.756 60.1639 172.622 62.0731 172.148 64.0148C171.97 64.7435 171.483 65.3603 171.139 66.0256L171.138 66.0243C170.771 66.6218 170.48 67.5894 170.637 68.1271C170.794 68.6647 171.137 69.1245 171.419 69.6085C171.701 70.0925 171.932 70.6491 171.833 71.2C171.653 72.1975 170.497 72.7493 170.188 73.7146C169.885 74.6606 170.481 75.6348 171.02 76.4695C171.559 77.3041 172.081 78.3509 171.646 79.2441C171.414 79.7193 170.957 80.0343 170.584 80.4092C169.455 81.5462 169.118 83.3968 169.774 84.8585C171.97 84.426 174.166 83.9939 176.363 83.5614C176.651 80.4224 176.938 77.283 177.226 74.1441C179.152 74.6223 181.261 73.3908 182.173 73.1593L183.295 72.5526C185.749 72.9842 188.399 72.8302 190.552 71.5758C192.705 70.3218 195.895 71.9247 195.477 69.4677C195.275 68.2758 196.086 66.8841 195.336 65.935Z" fill="#060606"/>
<path d="M187.825 54.4876L178.866 51.8349C175.979 51.4116 173.908 54.903 173.607 57.8048C173.273 61.0291 172.993 64.9781 173.279 67.4056C173.853 72.2861 177.545 73.053 177.545 73.053C177.546 73.0468 176.899 79.9658 176.838 81.6959L187.887 76.0406L189.282 56.2793C189.335 55.3945 188.702 54.6166 187.825 54.4876Z" fill="#FFD3C1"/>
<path d="M174.162 61.782C174.137 62.1098 174.394 62.4015 174.736 62.4337C175.078 62.4658 175.375 62.2269 175.4 61.8986C175.425 61.5708 175.168 61.2787 174.827 61.2465C174.484 61.2144 174.186 61.4538 174.162 61.782Z" fill="#060606"/>
<path d="M173.83 60.3575C173.89 60.4389 174.422 60.3236 175.081 60.5194C175.741 60.7086 176.16 61.1011 176.247 61.0628C176.289 61.047 176.239 60.9181 176.058 60.743C175.881 60.5696 175.555 60.3558 175.144 60.2352C174.733 60.1155 174.358 60.1243 174.129 60.1798C173.896 60.2343 173.799 60.3206 173.83 60.3575Z" fill="#060606"/>
<path d="M180.369 62.2864C180.344 62.6147 180.601 62.9059 180.943 62.9381C181.285 62.9702 181.582 62.7313 181.607 62.403C181.632 62.0752 181.374 61.7831 181.033 61.7509C180.691 61.7188 180.394 61.9586 180.369 62.2864Z" fill="#060606"/>
<path d="M180.48 61.2394C180.577 61.2852 181.059 60.9605 181.808 60.8553C182.554 60.7436 183.15 60.9116 183.22 60.8417C183.255 60.81 183.149 60.7176 182.888 60.6402C182.632 60.5627 182.21 60.5117 181.744 60.5794C181.278 60.6472 180.906 60.8131 180.701 60.9574C180.492 61.103 180.433 61.2192 180.48 61.2394Z" fill="#060606"/>
<path d="M178.171 65.6073C178.176 65.5694 177.763 65.4806 177.092 65.3675C176.921 65.3428 176.761 65.3024 176.737 65.1849C176.702 65.0595 176.781 64.8782 176.872 64.6828C177.049 64.2758 177.235 63.849 177.43 63.402C178.206 61.5778 178.776 60.0747 178.702 60.0439C178.628 60.0136 177.939 61.4673 177.162 63.2916C176.975 63.7417 176.796 64.1707 176.625 64.5812C176.552 64.773 176.432 64.9886 176.509 65.2482C176.55 65.3776 176.672 65.4753 176.78 65.5096C176.888 65.5474 176.984 65.5532 177.069 65.5615C177.746 65.6249 178.167 65.6451 178.171 65.6073Z" fill="#060606"/>
<path d="M177.544 73.053C177.544 73.053 180.731 73.4617 184.042 71.6489C183.987 71.6586 182.054 75.0246 177.426 74.3395L177.544 73.053Z" fill="#F4AF9B"/>
<path d="M178.389 67.2312C178.642 66.9227 179.071 66.7648 179.488 66.8268C179.777 66.8699 180.065 67.0217 180.232 67.265C180.399 67.5084 180.422 67.8458 180.252 68.065C180.061 68.3118 179.682 68.3554 179.366 68.2515C179.05 68.1477 178.784 67.9264 178.532 67.7064C178.462 67.6456 178.39 67.5823 178.349 67.5009C178.307 67.4195 178.301 67.3152 178.36 67.2518" fill="#F4AF9B"/>
<path d="M180.123 66.1495C180.014 66.139 179.983 66.8654 179.341 67.3556C178.7 67.8479 177.929 67.7348 177.919 67.8365C177.907 67.8818 178.085 67.9843 178.412 68.0063C178.732 68.0305 179.204 67.946 179.598 67.646C179.99 67.345 180.17 66.9296 180.207 66.6326C180.247 66.3308 180.173 66.1473 180.123 66.1495Z" fill="#060606"/>
<path d="M180.569 58.8569C180.628 59.0413 181.299 58.9823 182.08 59.1086C182.865 59.2191 183.489 59.4747 183.599 59.3154C183.649 59.2393 183.546 59.0637 183.297 58.8772C183.05 58.6911 182.652 58.5076 182.183 58.4359C181.713 58.3655 181.279 58.4227 180.988 58.5278C180.695 58.6325 180.544 58.7694 180.569 58.8569Z" fill="#060606"/>
<path d="M174.55 58.4246C174.662 58.5813 175.129 58.4422 175.684 58.4572C176.239 58.4528 176.704 58.6006 176.818 58.4462C176.869 58.371 176.801 58.2156 176.602 58.0634C176.406 57.912 176.072 57.7809 175.691 57.7774C175.309 57.7743 174.973 57.8984 174.774 58.0467C174.572 58.1945 174.501 58.3485 174.55 58.4246Z" fill="#060606"/>
<path d="M177.812 51.2007C181.414 51.7722 184.947 52.7741 188.312 54.1795C189.092 54.5051 189.91 54.8923 190.351 55.6134C190.818 56.3768 190.758 57.3378 190.682 58.2292C190.313 62.576 189.944 66.9232 189.575 71.27L189.108 71.2458C187.763 71.464 187.67 70.7807 186.709 69.8162C185.748 68.8517 185.287 67.4134 185.51 66.07C185.706 64.8847 186.394 63.6971 186.024 62.554C185.535 61.0426 183.463 60.5045 182.965 58.9957C182.676 58.1192 183.003 57.1187 182.671 56.2576C182.358 55.448 181.537 54.957 180.733 54.6309C179.928 54.3049 179.061 54.0677 178.397 53.5094C177.731 52.9514 177.342 51.9302 177.812 51.2007Z" fill="#060606"/>
<path d="M148.399 76.2579H112.885C111.438 76.2579 110.266 75.0853 110.266 73.639V45.094C110.266 43.6477 111.438 42.4751 112.885 42.4751H148.399C149.845 42.4751 151.018 43.6477 151.018 45.094V73.639C151.018 75.0853 149.845 76.2579 148.399 76.2579Z" fill="#060606"/>
<path d="M130.643 64.5832C133.886 64.5832 136.516 61.9537 136.516 58.71C136.516 55.4664 133.886 52.8369 130.643 52.8369C127.399 52.8369 124.77 55.4664 124.77 58.71C124.77 61.9537 127.399 64.5832 130.643 64.5832Z" fill="#1256DB"/>
<path d="M129.227 60.4277V56.9627C129.227 56.7937 129.408 56.6877 129.556 56.7704L132.653 58.5163C132.803 58.6008 132.802 58.8177 132.652 58.9013L129.554 60.6208C129.407 60.7022 129.227 60.5962 129.227 60.4277Z" fill="white"/>
<path d="M167.5 189.878L168.516 199.668C168.516 199.668 158.907 203.989 158.918 205.816L177.971 204.528L177.014 189.208L167.5 189.878Z" fill="#1256DB"/>
<g opacity="0.3">
<path d="M167.5 189.878L168.516 199.668C168.516 199.668 158.907 203.989 158.918 205.816L177.971 204.528L177.014 189.208L167.5 189.878Z" fill="black"/>
</g>
<g opacity="0.6">
<path d="M174.352 198.444C174.728 198.52 175.01 198.917 174.95 199.295C174.89 199.674 174.488 199.965 174.111 199.896C173.735 199.826 173.381 199.36 173.483 198.99C173.585 198.621 174.075 198.305 174.425 198.463" fill="white"/>
</g>
<g opacity="0.6">
<path d="M177.97 204.528L177.813 202.987L159.604 204.798C159.604 204.798 158.781 205.225 158.918 205.816L177.97 204.528Z" fill="white"/>
</g>
<path d="M168.2 199.591C168.209 199.684 168.678 199.695 169.155 199.963C169.64 200.219 169.903 200.606 169.986 200.563C170.071 200.54 169.895 199.993 169.31 199.678C168.729 199.358 168.174 199.507 168.2 199.591Z" fill="#060606"/>
<path d="M166.258 200.553C166.243 200.645 166.657 200.776 166.999 201.148C167.352 201.51 167.461 201.93 167.554 201.92C167.642 201.929 167.669 201.38 167.235 200.925C166.804 200.466 166.255 200.465 166.258 200.553Z" fill="#060606"/>
<path d="M165.284 203.022C165.37 203.036 165.468 202.562 165.195 202.069C164.925 201.574 164.473 201.403 164.439 201.483C164.391 201.563 164.692 201.817 164.91 202.225C165.138 202.628 165.191 203.019 165.284 203.022Z" fill="#060606"/>
<path d="M168.215 197.335C168.26 197.417 168.678 197.26 169.206 197.26C169.735 197.249 170.155 197.398 170.199 197.315C170.248 197.244 169.825 196.926 169.203 196.935C168.581 196.939 168.164 197.265 168.215 197.335Z" fill="#060606"/>
<path d="M168.047 195.356C168.049 195.394 168.42 195.427 169.001 195.287C169.29 195.216 169.628 195.097 169.979 194.912C170.154 194.82 170.331 194.711 170.507 194.584C170.591 194.522 170.691 194.458 170.78 194.341C170.876 194.237 170.918 193.986 170.789 193.843C170.682 193.703 170.505 193.652 170.367 193.658C170.226 193.663 170.114 193.699 170.012 193.732C169.804 193.797 169.609 193.881 169.433 193.975C169.08 194.165 168.798 194.395 168.592 194.613C168.178 195.052 168.05 195.409 168.083 195.425C168.128 195.453 168.323 195.147 168.75 194.779C168.963 194.596 169.238 194.402 169.569 194.242C169.735 194.163 169.914 194.092 170.105 194.036C170.304 193.97 170.475 193.956 170.533 194.043C170.554 194.076 170.558 194.089 170.519 194.151C170.479 194.208 170.401 194.267 170.319 194.329C170.158 194.451 169.994 194.558 169.834 194.651C169.513 194.839 169.202 194.973 168.935 195.067C168.399 195.256 168.042 195.306 168.047 195.356Z" fill="#060606"/>
<path d="M168.179 195.481C168.213 195.493 168.375 195.147 168.368 194.542C168.364 194.242 168.308 193.882 168.167 193.507C168.096 193.319 168.003 193.129 167.885 192.944C167.761 192.763 167.608 192.521 167.244 192.503C167.056 192.509 166.909 192.667 166.864 192.796C166.81 192.929 166.804 193.041 166.789 193.153C166.769 193.378 166.788 193.596 166.832 193.796C166.92 194.197 167.108 194.523 167.306 194.754C167.712 195.222 168.108 195.307 168.113 195.275C168.141 195.226 167.805 195.069 167.488 194.613C167.331 194.389 167.186 194.089 167.125 193.737C167.094 193.562 167.085 193.375 167.105 193.185C167.122 192.98 167.186 192.811 167.264 192.827C167.358 192.819 167.53 192.961 167.619 193.117C167.728 193.281 167.818 193.45 167.89 193.618C168.033 193.954 168.107 194.28 168.139 194.557C168.204 195.115 168.127 195.47 168.179 195.481Z" fill="#060606"/>
<path d="M165.849 118.229C165.849 118.229 157.408 156.544 157.149 159.965C156.89 163.386 167.609 192.923 167.609 192.923L176.833 191.181C176.833 191.181 176.247 147.563 175.948 146.708C175.649 145.853 178.305 124.416 178.305 124.416L165.849 118.229Z" fill="#060606"/>
<path d="M171.741 190.333L171.843 200.175C171.843 200.175 161.873 203.585 161.715 205.405L180.802 205.604L181.275 190.551L171.741 190.333Z" fill="#1256DB"/>
<g opacity="0.6">
<path d="M177.77 199.499C178.137 199.609 178.381 200.031 178.286 200.402C178.191 200.773 177.764 201.026 177.395 200.922C177.026 200.818 176.717 200.32 176.853 199.962C176.99 199.604 177.507 199.335 177.84 199.524" fill="white"/>
</g>
<g opacity="0.6">
<path d="M180.804 205.604L180.793 204.345L162.495 204.456C162.495 204.456 161.635 204.804 161.716 205.405L180.804 205.604Z" fill="white"/>
</g>
<path d="M171.536 200.07C171.536 200.164 172.001 200.218 172.453 200.529C172.911 200.829 173.138 201.239 173.224 201.204C173.311 201.189 173.186 200.628 172.633 200.26C172.084 199.888 171.518 199.985 171.536 200.07Z" fill="#060606"/>
<path d="M169.513 200.847C169.489 200.937 169.889 201.106 170.195 201.508C170.513 201.901 170.582 202.329 170.675 202.328C170.762 202.345 170.841 201.801 170.45 201.308C170.064 200.811 169.517 200.759 169.513 200.847Z" fill="#060606"/>
<path d="M168.316 203.215C168.4 203.237 168.541 202.774 168.315 202.258C168.092 201.74 167.658 201.527 167.616 201.604C167.562 201.679 167.838 201.96 168.017 202.387C168.206 202.81 168.223 203.203 168.316 203.215Z" fill="#060606"/>
<path d="M171.765 197.825C171.802 197.911 172.232 197.793 172.759 197.843C173.286 197.881 173.691 198.068 173.742 197.99C173.797 197.924 173.406 197.569 172.786 197.519C172.166 197.465 171.721 197.751 171.765 197.825Z" fill="#060606"/>
<g opacity="0.3">
<path d="M171.766 192.283L171.781 194.037L181.166 194.191L181.219 192.612L171.766 192.283Z" fill="black"/>
</g>
<path d="M171.777 195.839C171.776 195.877 172.142 195.944 172.733 195.858C173.028 195.815 173.375 195.728 173.742 195.576C173.924 195.5 174.112 195.409 174.298 195.299C174.387 195.245 174.493 195.191 174.592 195.082C174.699 194.987 174.763 194.742 174.648 194.587C174.554 194.438 174.383 194.37 174.245 194.364C174.104 194.356 173.99 194.381 173.885 194.404C173.671 194.45 173.47 194.516 173.285 194.593C172.916 194.75 172.615 194.952 172.389 195.149C171.936 195.548 171.776 195.892 171.807 195.911C171.848 195.943 172.071 195.657 172.531 195.33C172.759 195.167 173.051 195 173.396 194.871C173.568 194.807 173.753 194.753 173.949 194.715C174.152 194.667 174.325 194.67 174.374 194.762C174.392 194.796 174.394 194.81 174.35 194.868C174.305 194.921 174.222 194.973 174.134 195.027C173.962 195.132 173.79 195.224 173.621 195.303C173.284 195.459 172.963 195.564 172.688 195.633C172.138 195.772 171.777 195.789 171.777 195.839Z" fill="#060606"/>
<path d="M171.896 195.975C171.929 195.99 172.123 195.661 172.172 195.058C172.196 194.759 172.174 194.396 172.068 194.008C172.015 193.815 171.94 193.617 171.84 193.422C171.733 193.23 171.603 192.974 171.242 192.924C171.053 192.912 170.893 193.055 170.836 193.18C170.77 193.308 170.754 193.418 170.729 193.528C170.688 193.75 170.687 193.969 170.712 194.172C170.762 194.58 170.919 194.922 171.095 195.17C171.456 195.674 171.841 195.796 171.85 195.764C171.883 195.718 171.562 195.53 171.289 195.047C171.154 194.809 171.037 194.497 171.009 194.141C170.995 193.964 171.003 193.777 171.041 193.589C171.076 193.387 171.156 193.225 171.232 193.248C171.327 193.249 171.485 193.406 171.559 193.57C171.652 193.744 171.726 193.921 171.782 194.094C171.893 194.442 171.936 194.774 171.943 195.053C171.955 195.613 171.846 195.96 171.896 195.975Z" fill="#060606"/>
<path d="M187.297 117.639L165.848 118.229L168.926 156.393L170.835 193.181L181.962 193.569C182.53 186.468 182.572 161.376 182.572 161.376L184.818 146.22C185.339 142.133 186.979 137.84 187.769 134.172C188.233 132.017 188.911 129.223 189.055 128.311C189.481 125.612 187.297 117.639 187.297 117.639Z" fill="#060606"/>
<path d="M167.097 127.011C167.101 127.011 167.102 127.069 167.1 127.182C167.096 127.306 167.092 127.472 167.086 127.684C167.068 128.136 167.043 128.784 167.011 129.611C166.975 130.448 166.932 131.472 166.896 132.66C166.859 133.849 166.802 135.202 166.774 136.699C166.693 139.692 166.648 143.257 166.663 147.215C166.693 151.173 166.788 155.524 167.01 160.086C167.245 164.65 167.591 168.989 167.983 172.928C168.199 174.895 168.39 176.766 168.626 178.511C168.741 179.383 168.837 180.228 168.954 181.037C169.072 181.845 169.186 182.621 169.294 183.362C169.498 184.845 169.737 186.178 169.927 187.352C170.113 188.526 170.296 189.534 170.451 190.357C170.598 191.172 170.713 191.809 170.794 192.254C170.829 192.463 170.857 192.628 170.877 192.749C170.895 192.861 170.902 192.918 170.898 192.919C170.895 192.92 170.88 192.863 170.855 192.753C170.829 192.633 170.795 192.47 170.75 192.263C170.66 191.819 170.532 191.184 170.367 190.373C170.199 189.552 170.004 188.546 169.806 187.373C169.605 186.2 169.355 184.868 169.141 183.385C169.028 182.644 168.91 181.868 168.787 181.06C168.665 180.252 168.564 179.407 168.446 178.534C168.201 176.79 168.004 174.918 167.782 172.949C167.378 169.008 167.027 164.665 166.791 160.098C166.569 155.532 166.48 151.177 166.461 147.216C166.458 143.256 166.518 139.689 166.619 136.695C166.657 135.198 166.725 133.844 166.774 132.656C166.821 131.467 166.876 130.443 166.926 129.607C166.976 128.78 167.015 128.134 167.042 127.682C167.057 127.47 167.069 127.304 167.077 127.182C167.087 127.068 167.094 127.011 167.097 127.011Z" fill="#455A64"/>
<path d="M154.886 75.9688L149.393 70.104L145.062 73.1369L149.393 79.5411L154.886 75.9688Z" fill="#FFD3C1"/>
<path d="M189.615 78.1363L189.347 74.4188L176.944 74.2393L176.838 78.9072C176.838 78.9072 170.749 85.4923 168.538 92.8803C164.823 105.297 163.477 121.102 163.477 121.102H188.861C188.597 116.73 186.791 106.941 186.791 106.941L192.434 90.1118C193.837 84.0631 189.615 78.1363 189.615 78.1363Z" fill="#1256DB"/>
<path d="M158.902 94.9397C158.902 94.9397 158.973 95.0074 159.113 95.1298C159.249 95.2582 159.466 95.4272 159.757 95.6292C160.338 96.0238 161.277 96.5118 162.538 96.6966C163.164 96.7947 163.873 96.7921 164.606 96.6755C165.343 96.591 166.131 96.4902 166.959 96.3802C168.615 96.1563 170.431 95.8773 172.332 95.5566C176.117 94.8926 179.542 94.2916 182.058 93.8498C183.282 93.65 184.283 93.4864 185.011 93.3676C185.339 93.3152 185.605 93.2725 185.814 93.2395C185.998 93.2092 186.093 93.1885 186.093 93.1885C186.093 93.1885 185.996 93.1964 185.811 93.2206C185.602 93.2492 185.335 93.2857 185.005 93.331C184.306 93.4296 183.295 93.5818 182.047 93.7834C179.551 94.1802 176.118 94.8156 172.317 95.4624C170.416 95.7827 168.602 96.0643 166.948 96.2931C166.121 96.4053 165.334 96.5092 164.596 96.5972C163.861 96.7173 163.172 96.7226 162.548 96.6302C161.298 96.4559 160.362 95.9816 159.777 95.5988C159.485 95.4021 159.265 95.2389 159.126 95.1157C158.982 94.9982 158.902 94.9397 158.902 94.9397Z" fill="#060606"/>
<path d="M190.397 88.9395C190.4 88.94 190.409 88.9061 190.424 88.8405C190.442 88.7503 190.462 88.6557 190.483 88.5537C190.531 88.3042 190.596 87.9416 190.659 87.4911C190.777 86.5961 190.906 85.3122 190.567 83.9477C190.221 82.582 189.367 81.5405 188.595 81.0525C188.21 80.8035 187.86 80.6671 187.612 80.6064C187.364 80.5435 187.223 80.5347 187.223 80.5347C187.21 80.565 187.804 80.5989 188.557 81.1084C189.306 81.6017 190.135 82.6299 190.475 83.9711C190.808 85.3139 190.693 86.5877 190.592 87.4823C190.538 87.9324 190.483 88.2958 190.446 88.5471C190.431 88.65 190.418 88.7455 190.405 88.8366C190.397 88.9039 190.394 88.9391 190.397 88.9395Z" fill="#060606"/>
<path d="M163.99 91.9687C163.997 91.9679 163.99 91.8689 163.971 91.6907C163.949 91.4553 163.926 91.2058 163.901 90.9361C163.848 90.2989 163.804 89.4159 163.828 88.4404C163.853 87.4649 163.941 86.5849 164.026 85.9513C164.065 85.6829 164.1 85.4352 164.134 85.2011C164.161 85.0242 164.173 84.9256 164.166 84.9243C164.16 84.923 164.136 85.0194 164.097 85.1945C164.058 85.3696 164.01 85.6248 163.959 85.9416C163.857 86.5748 163.757 87.4583 163.732 88.4382C163.708 89.4181 163.763 90.3047 163.834 90.9427C163.869 91.2617 163.904 91.5186 163.935 91.6959C163.964 91.8728 163.983 91.9701 163.99 91.9687Z" fill="#060606"/>
<path d="M176.986 78.8392C177.244 77.961 177.798 77.2042 178.342 76.4681C179.231 75.2656 180.19 74.0098 181.574 73.4426C182.516 73.0559 184.95 73.2702 185.599 72.4843C187.623 70.0318 184.658 68.5089 185.735 65.1359C186.915 61.4421 186.305 62.0079 186.395 59.1026L190.89 57.1587C191.598 57.6871 193.563 59.5945 193.345 60.4508C193.128 61.3066 193.192 62.2605 193.517 63.2791C194.208 65.4452 196.593 66.7225 197.721 68.6968C198.877 70.7195 197.575 73.4004 197.544 75.7298C197.513 78.0591 198.392 80.8593 200.665 81.3666C199.818 83.0742 198.393 84.4897 196.68 85.3275C196.205 84.6802 195.73 84.0326 195.254 83.3853C195.537 85.1422 194.341 87.0158 192.628 87.4989C192.15 85.4546 191.644 83.3493 190.407 81.6535C189.169 79.9577 186.997 78.7614 184.97 79.3043C183.613 79.6678 182.563 80.7141 181.352 81.4242C180.14 82.1344 178.422 82.4358 177.452 81.4198C176.82 80.7568 176.728 79.7175 176.986 78.8392Z" fill="#060606"/>
<g opacity="0.3">
<path d="M168.539 96.0887C174.388 95.0213 182.183 93.7453 188.032 92.6778C188.25 92.6378 188.483 92.5991 188.689 92.6814C189.077 92.8358 189.19 93.3721 189.015 93.7514C188.84 94.1307 188.468 94.3771 188.098 94.5707C186.179 95.5739 183.928 95.6544 181.763 95.7138C178.066 95.8146 172.236 95.9879 168.539 96.0887Z" fill="black"/>
</g>
<path d="M164.266 96.6705C166.085 96.7079 187.029 92.8799 187.029 92.8799Z" fill="#1256DB"/>
<path d="M186.675 79.803C188.21 79.9926 189.211 80.2593 191.003 82.1772C191.195 82.3827 191.374 82.6379 191.539 82.9296C193.535 86.4505 192.089 91.3108 188.264 92.6325L184.559 93.395L164.268 96.6704C164.268 96.6704 159.945 97.6419 156.233 91.8797C154.872 89.7655 145.496 75.781 145.496 75.781L151.656 71.6577L164.074 84.9431L186.675 79.803Z" fill="#1256DB"/>
<path d="M158.902 94.9397C158.902 94.9397 158.973 95.0074 159.113 95.1298C159.249 95.2582 159.466 95.4272 159.757 95.6292C160.338 96.0238 161.277 96.5118 162.538 96.6966C163.164 96.7947 163.873 96.7921 164.606 96.6755C165.343 96.591 166.131 96.4902 166.959 96.3802C168.615 96.1563 170.431 95.8773 172.332 95.5566C176.117 94.8926 179.542 94.2916 182.058 93.8498C183.282 93.65 184.283 93.4864 185.011 93.3676C185.339 93.3152 185.605 93.2725 185.814 93.2395C185.998 93.2092 186.093 93.1885 186.093 93.1885C186.093 93.1885 185.996 93.1964 185.811 93.2206C185.602 93.2492 185.335 93.2857 185.005 93.331C184.306 93.4296 183.295 93.5818 182.047 93.7834C179.551 94.1802 176.118 94.8156 172.317 95.4624C170.416 95.7827 168.602 96.0643 166.948 96.2931C166.121 96.4053 165.334 96.5092 164.596 96.5972C163.861 96.7173 163.172 96.7226 162.548 96.6302C161.298 96.4559 160.362 95.9816 159.777 95.5988C159.485 95.4021 159.265 95.2389 159.126 95.1157C158.982 94.9982 158.902 94.9397 158.902 94.9397Z" fill="#060606"/>
<path d="M190.397 88.9395C190.4 88.94 190.409 88.9061 190.424 88.8405C190.442 88.7503 190.462 88.6557 190.483 88.5537C190.531 88.3042 190.596 87.9416 190.659 87.4911C190.777 86.5961 190.906 85.3122 190.567 83.9477C190.221 82.582 189.367 81.5405 188.595 81.0525C188.21 80.8035 187.86 80.6671 187.612 80.6064C187.364 80.5435 187.223 80.5347 187.223 80.5347C187.21 80.565 187.804 80.5989 188.557 81.1084C189.306 81.6017 190.135 82.6299 190.475 83.9711C190.808 85.3139 190.693 86.5877 190.592 87.4823C190.538 87.9324 190.483 88.2958 190.446 88.5471C190.431 88.65 190.418 88.7455 190.405 88.8366C190.397 88.9039 190.394 88.9391 190.397 88.9395Z" fill="#060606"/>
<path d="M163.99 91.9687C163.997 91.9679 163.99 91.8689 163.971 91.6907C163.949 91.4553 163.926 91.2058 163.901 90.9361C163.848 90.2989 163.804 89.4159 163.828 88.4404C163.853 87.4649 163.941 86.5849 164.026 85.9513C164.065 85.6829 164.1 85.4352 164.134 85.2011C164.161 85.0242 164.173 84.9256 164.166 84.9243C164.16 84.923 164.136 85.0194 164.097 85.1945C164.058 85.3696 164.01 85.6248 163.959 85.9416C163.857 86.5748 163.757 87.4583 163.732 88.4382C163.708 89.4181 163.763 90.3047 163.834 90.9427C163.869 91.2617 163.904 91.5186 163.935 91.6959C163.964 91.8728 163.983 91.9701 163.99 91.9687Z" fill="#060606"/>
<path d="M149.366 65.5754C149.198 64.2673 149.22 63.4507 149.253 63.0529C149.268 62.869 149.114 62.7211 148.93 62.7383C148.596 62.7691 148.104 62.9579 147.8 63.7261C147.614 64.1951 147.669 64.6791 147.673 65.1486C147.681 65.9309 147.673 66.5483 147.673 66.5483C147.673 66.5483 143.766 61.8715 142.974 61.6603C142.545 61.5459 142.393 61.6744 142.236 61.9256C142.091 62.1584 142.38 62.7049 142.38 62.7049L144.583 65.8566C144.583 65.8566 141.253 61.9371 140.651 61.9485C140.034 61.9599 139.784 62.4043 140.164 63.1145C140.448 63.6451 143.357 67.093 143.357 67.093C143.357 67.093 140.244 64.0891 139.627 64.1142C139.007 64.1397 139.112 64.7953 139.438 65.0685C139.763 65.3422 142.067 68.0179 142.067 68.0179C142.067 68.0179 139.818 66.1201 139.364 66.2693C138.899 66.422 139.106 66.9218 139.346 67.3284C139.586 67.7349 145.224 73.3762 145.224 73.3762L150.113 70.9205C150.243 70.2337 150.218 69.5288 150.039 68.853C149.816 68.0161 149.517 66.7639 149.366 65.5754Z" fill="#FFD3C1"/>
<path d="M77.5251 121.135C75.0391 121.135 73.0234 119.12 73.0234 116.634V77.5019C73.0234 75.5109 74.7469 73.8966 76.873 73.8966H80.5527C82.0544 73.8966 83.4189 73.079 84.0481 71.8022L84.8388 70.1979C85.468 68.921 86.8324 68.1035 88.3341 68.1035H105.801C107.162 68.1035 108.422 68.7772 109.115 69.875L109.973 71.2346C110.666 72.3324 111.926 73.006 113.288 73.006H135.554C137.68 73.006 139.404 74.6204 139.404 76.6114V116.635C139.404 119.121 137.388 121.136 134.902 121.136H77.5251V121.135Z" fill="#1256DB"/>
<g opacity="0.3">
<path d="M77.5251 121.135C75.0391 121.135 73.0234 119.12 73.0234 116.634V77.5019C73.0234 75.5109 74.7469 73.8966 76.873 73.8966H80.5527C82.0544 73.8966 83.4189 73.079 84.0481 71.8022L84.8388 70.1979C85.468 68.921 86.8324 68.1035 88.3341 68.1035H105.801C107.162 68.1035 108.422 68.7772 109.115 69.875L109.973 71.2346C110.666 72.3324 111.926 73.006 113.288 73.006H135.554C137.68 73.006 139.404 74.6204 139.404 76.6114V116.635C139.404 119.121 137.388 121.136 134.902 121.136H77.5251V121.135Z" fill="black"/>
</g>
<path d="M111.091 73.0051L96.9264 72.9738L95.661 70.6075C94.84 69.0723 93.164 68.103 91.331 68.103H77.4855C75.021 68.103 73.0234 69.9739 73.0234 72.2821V73.8965V116.387C73.0234 119.01 75.2934 121.135 78.0931 121.135H134.334C137.134 121.135 139.404 119.01 139.404 116.387V76.2474C139.404 74.4566 137.952 73.0051 136.161 73.0051H111.091Z" fill="#1256DB"/>
<path d="M118.233 106.428H111.964C111.719 106.428 111.52 106.229 111.52 105.984C111.52 105.739 111.719 105.541 111.964 105.541H118.233C121.673 105.541 124.471 102.742 124.471 99.3027C124.471 95.9939 121.881 93.2615 118.575 93.082C118.382 93.0714 118.218 92.9372 118.169 92.7498C117.033 88.3449 113.065 85.2689 108.52 85.2689C105.482 85.2689 102.644 86.6342 100.736 89.0142C100.641 89.133 100.49 89.1963 100.34 89.1774C99.9911 89.1369 99.68 89.1176 99.3878 89.1176C94.8598 89.1176 91.1761 92.8012 91.1761 97.3293C91.1761 101.857 94.8598 105.541 99.3878 105.541H104.469C104.714 105.541 104.913 105.739 104.913 105.984C104.913 106.229 104.714 106.428 104.469 106.428H99.3878C94.3709 106.428 90.2891 102.346 90.2891 97.3293C90.2891 92.3124 94.3709 88.2305 99.3878 88.2305C99.6439 88.2305 99.911 88.2437 100.199 88.2706C102.273 85.796 105.292 84.3818 108.52 84.3818C113.364 84.3818 117.605 87.589 118.944 92.2209C122.566 92.5799 125.359 95.6304 125.359 99.3022C125.358 103.231 122.162 106.428 118.233 106.428Z" fill="white"/>
<path d="M108.096 110.43C107.851 110.43 107.652 110.232 107.652 109.987V98.547C107.652 98.302 107.851 98.1035 108.096 98.1035C108.341 98.1035 108.539 98.302 108.539 98.547V109.987C108.539 110.232 108.341 110.43 108.096 110.43Z" fill="white"/>
<path d="M111.44 103.114C111.305 103.114 111.172 103.053 111.084 102.936L108.169 99.0297C108.145 98.9975 108.122 98.9967 108.084 98.9901C108.059 98.9901 108.026 98.9975 107.998 99.031L104.905 102.83C104.75 103.02 104.471 103.048 104.281 102.893C104.091 102.739 104.062 102.459 104.217 102.269L107.31 98.4713C107.503 98.2328 107.792 98.1052 108.099 98.103C108.407 98.1074 108.69 98.2504 108.877 98.4946L111.795 102.405C111.942 102.601 111.901 102.879 111.705 103.025C111.626 103.086 111.533 103.114 111.44 103.114Z" fill="white"/>
<path d="M99.5117 130.409V128.436H99.8756V130.394C99.8756 131.211 100.259 131.585 100.929 131.585C101.603 131.585 101.986 131.211 101.986 130.394V128.436H102.34V130.409C102.34 131.398 101.809 131.909 100.929 131.909C100.048 131.909 99.5117 131.398 99.5117 130.409Z" fill="#060606"/>
<path d="M105.985 130.586C105.985 131.373 105.434 131.905 104.696 131.905C104.283 131.905 103.929 131.727 103.713 131.392V132.834H103.363V129.292H103.698V129.804C103.909 129.459 104.268 129.272 104.696 129.272C105.434 129.273 105.985 129.804 105.985 130.586ZM105.636 130.586C105.636 129.986 105.218 129.577 104.671 129.577C104.121 129.577 103.707 129.986 103.707 130.586C103.707 131.191 104.121 131.594 104.671 131.594C105.217 131.594 105.636 131.191 105.636 130.586Z" fill="#060606"/>
<path d="M106.695 128.229H107.045V131.88H106.695V128.229Z" fill="#060606"/>
<path d="M107.758 130.585C107.758 129.818 108.319 129.272 109.076 129.272C109.834 129.272 110.39 129.818 110.39 130.585C110.39 131.353 109.834 131.904 109.076 131.904C108.319 131.904 107.758 131.353 107.758 130.585ZM110.036 130.585C110.036 129.98 109.627 129.577 109.076 129.577C108.525 129.577 108.112 129.98 108.112 130.585C108.112 131.191 108.525 131.594 109.076 131.594C109.627 131.594 110.036 131.191 110.036 130.585Z" fill="#060606"/>
<path d="M113.041 130.276V131.879H112.706V131.476C112.549 131.742 112.244 131.905 111.816 131.905C111.23 131.905 110.871 131.6 110.871 131.152C110.871 130.753 111.127 130.418 111.869 130.418H112.691V130.261C112.691 129.818 112.44 129.577 111.958 129.577C111.623 129.577 111.308 129.695 111.097 129.882L110.94 129.621C111.2 129.4 111.584 129.272 111.992 129.272C112.662 129.272 113.041 129.606 113.041 130.276ZM112.691 131.102V130.679H111.88C111.378 130.679 111.216 130.876 111.216 131.141C111.216 131.441 111.457 131.628 111.87 131.628C112.263 131.629 112.554 131.442 112.691 131.102Z" fill="#060606"/>
<path d="M116.361 128.229V131.88H116.026V131.368C115.815 131.717 115.456 131.904 115.027 131.904C114.29 131.904 113.738 131.368 113.738 130.586C113.738 129.803 114.29 129.273 115.027 129.273C115.441 129.273 115.795 129.45 116.011 129.784V128.229H116.361ZM116.017 130.586C116.017 129.981 115.603 129.577 115.057 129.577C114.506 129.577 114.093 129.98 114.093 130.586C114.093 131.191 114.506 131.594 115.057 131.594C115.603 131.594 116.017 131.191 116.017 130.586Z" fill="#060606"/>
<path d="M117.105 131.633C117.105 131.481 117.223 131.368 117.366 131.368C117.509 131.368 117.632 131.481 117.632 131.633C117.632 131.786 117.509 131.904 117.366 131.904C117.223 131.904 117.105 131.786 117.105 131.633Z" fill="#060606"/>
<path d="M118.148 131.633C118.148 131.481 118.267 131.368 118.409 131.368C118.552 131.368 118.675 131.481 118.675 131.633C118.675 131.786 118.552 131.904 118.409 131.904C118.267 131.904 118.148 131.786 118.148 131.633Z" fill="#060606"/>
<path d="M119.191 131.633C119.191 131.481 119.31 131.368 119.452 131.368C119.595 131.368 119.717 131.481 119.717 131.633C119.717 131.786 119.594 131.904 119.452 131.904C119.309 131.904 119.191 131.786 119.191 131.633Z" fill="#060606"/>
<path d="M141.599 144.452H72.9745C71.3641 144.452 70.0586 143.147 70.0586 141.537V140.685C70.0586 139.075 71.3641 137.77 72.9745 137.77H141.599C143.209 137.77 144.514 139.075 144.514 140.685V141.537C144.515 143.147 143.209 144.452 141.599 144.452Z" fill="#E0E0E0"/>
<path d="M104.371 144.452H72.9745C71.3641 144.452 70.0586 143.147 70.0586 141.537V140.685C70.0586 139.075 71.3641 137.77 72.9745 137.77H104.371C105.982 137.77 107.287 139.075 107.287 140.685V141.537C107.287 143.147 105.982 144.452 104.371 144.452Z" fill="#1256DB"/>
<g opacity="0.3">
<path d="M75.6853 137.769L71.7227 144.055L72.3448 144.333C72.5208 144.412 72.7105 144.452 72.9014 144.452H74.1616L78.4643 137.769H75.6853V137.769Z" fill="white"/>
</g>
<g opacity="0.3">
<path d="M82.7677 137.769L78.5547 144.452H81.2435L85.5463 137.769H82.7677Z" fill="white"/>
</g>
<g opacity="0.3">
<path d="M89.8458 137.769L85.6328 144.452H88.3221L92.6244 137.769H89.8458Z" fill="white"/>
</g>
<g opacity="0.3">
<path d="M96.9278 137.769L92.7148 144.452H95.4041L99.7069 137.769H96.9278Z" fill="white"/>
</g>
<g opacity="0.3">
<path d="M104.01 137.769L99.7969 144.452H102.486L105.876 139.187L106.277 138.615C105.76 138.04 104.962 137.81 104.01 137.769Z" fill="white"/>
</g>
<path d="M141.663 144.452C141.663 144.443 141.801 144.448 142.066 144.41C142.328 144.373 142.726 144.28 143.17 144.006C143.612 143.742 144.097 143.266 144.371 142.557C144.51 142.203 144.571 141.797 144.562 141.358C144.554 140.917 144.594 140.443 144.459 139.97C144.225 139.028 143.385 138.087 142.197 137.876C141.905 137.816 141.6 137.828 141.283 137.827C140.967 137.828 140.645 137.828 140.317 137.829C139.66 137.83 138.978 137.832 138.272 137.834C135.446 137.839 132.228 137.845 128.673 137.851C114.442 137.86 94.7918 137.872 73.0888 137.885C72.4359 137.888 71.7908 138.117 71.2892 138.529C70.7898 138.944 70.4422 139.529 70.3159 140.161C70.2495 140.475 70.2649 140.801 70.2618 141.139C70.2605 141.477 70.2583 141.796 70.3261 142.11C70.4598 142.736 70.8175 143.305 71.3086 143.707C71.8023 144.109 72.4306 144.329 73.0611 144.336C73.7167 144.336 74.3697 144.337 75.02 144.338C76.3215 144.338 77.612 144.338 78.892 144.339C84.0101 144.341 88.9469 144.343 93.65 144.345C103.055 144.355 111.524 144.363 118.639 144.37C125.748 144.385 131.502 144.398 135.486 144.406C137.471 144.416 139.013 144.423 140.066 144.428C140.585 144.433 140.983 144.437 141.257 144.439C141.526 144.444 141.663 144.452 141.663 144.452C141.663 144.452 141.526 144.46 141.258 144.464C140.983 144.467 140.586 144.471 140.067 144.476C139.014 144.48 137.471 144.488 135.486 144.497C131.503 144.506 125.749 144.518 118.639 144.534C111.525 144.541 103.055 144.549 93.6505 144.558C88.9473 144.56 84.0105 144.563 78.8924 144.565C77.6129 144.565 76.3219 144.565 75.0204 144.566C74.3692 144.565 73.7158 144.565 73.0598 144.565C72.3787 144.557 71.698 144.319 71.1643 143.885C70.6332 143.451 70.246 142.836 70.1012 142.158C70.0273 141.819 70.0304 141.466 70.0317 141.139C70.0348 140.81 70.0176 140.461 70.0898 140.116C70.2262 139.433 70.6024 138.799 71.1427 138.351C71.6848 137.905 72.3839 137.656 73.0893 137.653C94.7923 137.667 114.442 137.678 128.673 137.687C132.229 137.693 135.446 137.699 138.273 137.704C138.979 137.706 139.661 137.707 140.317 137.709C140.646 137.71 140.968 137.711 141.283 137.711C141.595 137.714 141.914 137.703 142.217 137.767C143.45 137.994 144.313 138.973 144.546 139.947C144.682 140.439 144.637 140.921 144.643 141.357C144.648 141.8 144.581 142.222 144.436 142.581C144.148 143.304 143.648 143.784 143.194 144.045C142.739 144.317 142.335 144.402 142.07 144.432C141.801 144.464 141.663 144.452 141.663 144.452Z" fill="#060606"/>
</svg>
