<svg width="666" height="540" viewBox="0 0 666 540" fill="none" xmlns="http://www.w3.org/2000/svg">
<g id="No Results">
<g id="circle">
<path id="Stroke 1" d="M24.0352 248.177V253.723" stroke="#D2D8DF" stroke-width="2.921" stroke-linecap="round"/>
<g id="Group 8">
<path id="Stroke 2" d="M11.3789 251.181L15.9816 255.846" stroke="#D2D8DF" stroke-width="2.921" stroke-linecap="round"/>
<path id="Stroke 4" d="M6 263.6H12.5082" stroke="#D2D8DF" stroke-width="2.921" stroke-linecap="round"/>
<path id="Stroke 6" d="M10.8516 276.24L15.4543 271.575" stroke="#D2D8DF" stroke-width="2.921" stroke-linecap="round"/>
</g>
<path id="Stroke 9" d="M24.0352 277.756V272.21" stroke="#D2D8DF" stroke-width="2.921" stroke-linecap="round"/>
<path id="Stroke 10" d="M33.4153 274.059L29.6602 270.362" stroke="#D2D8DF" stroke-width="2.921" stroke-linecap="round"/>
<path id="Stroke 11" d="M40.9413 264.816H35.3086" stroke="#D2D8DF" stroke-width="2.921" stroke-linecap="round"/>
<path id="Stroke 12" d="M37.177 251.874L33.4219 255.571" stroke="#D2D8DF" stroke-width="2.921" stroke-linecap="round"/>
<path id="Stroke 13" d="M326.32 6V9.69736" stroke="#D2D8DF" stroke-width="2.921" stroke-linecap="round"/>
<path id="Stroke 15" d="M315.047 17.0918H318.802" stroke="#D2D8DF" stroke-width="2.921" stroke-linecap="round"/>
<path id="Stroke 16" d="M326.32 28.1837V24.4863" stroke="#D2D8DF" stroke-width="2.921" stroke-linecap="round"/>
<path id="Stroke 17" d="M335.712 17.0918H331.957" stroke="#D2D8DF" stroke-width="2.921" stroke-linecap="round"/>
<path id="Stroke 18" d="M108.527 161.29V166.836" stroke="#D2D8DF" stroke-width="2.921" stroke-linecap="round"/>
<path id="Stroke 19" d="M91.6289 177.927H97.2616" stroke="#D2D8DF" stroke-width="2.921" stroke-linecap="round"/>
<path id="Stroke 20" d="M108.527 192.716V187.17" stroke="#D2D8DF" stroke-width="2.921" stroke-linecap="round"/>
<path id="Stroke 21" d="M123.547 177.927H117.914" stroke="#D2D8DF" stroke-width="2.921" stroke-linecap="round"/>
<g id="Group 42">
<path id="Stroke 22" d="M512.677 362.867C517.164 362.867 520.803 366.451 520.803 370.87C520.803 375.291 517.164 378.873 512.677 378.873C508.19 378.873 504.551 375.291 504.551 370.87" stroke="#D2D8DF" stroke-width="2.921" stroke-linecap="round"/>
<path id="Fill 26" fill-rule="evenodd" clip-rule="evenodd" d="M549.867 290.26C554.692 288.778 562.088 282.968 563.8 276.716C565.353 282.242 571.861 288.778 577.733 289.272C571.123 291.577 564.803 298.423 563.8 303.801C563.118 298.319 554.377 291.059 549.867 290.26Z" fill="#EBECEE"/>
<path id="Fill 28" fill-rule="evenodd" clip-rule="evenodd" d="M54.5859 360.402C56.9992 359.661 60.6956 356.756 61.5516 353.631C62.3279 356.392 65.5812 359.661 68.5173 359.909C65.213 361.059 62.0537 364.483 61.5516 367.173C61.2105 364.432 56.8398 360.8 54.5859 360.402Z" fill="#EBECEE"/>
<path id="Fill 30" fill-rule="evenodd" clip-rule="evenodd" d="M99.3676 103.235C99.3676 106.664 96.5463 109.441 93.0666 109.441C89.5854 109.441 86.7656 106.664 86.7656 103.235C86.7656 99.8084 89.5854 97.0298 93.0666 97.0298C96.5463 97.0298 99.3676 99.8084 99.3676 103.235Z" fill="#D1D8DF"/>
<path id="Fill 32" fill-rule="evenodd" clip-rule="evenodd" d="M520.119 119.898C520.119 125.627 515.402 130.271 509.588 130.271C503.77 130.271 499.055 125.627 499.055 119.898C499.055 114.17 503.77 109.526 509.588 109.526C515.402 109.526 520.119 114.17 520.119 119.898Z" fill="#EBECEE"/>
<path id="Fill 34" fill-rule="evenodd" clip-rule="evenodd" d="M665.996 91.797C665.996 96.3417 662.256 100.025 657.643 100.025C653.029 100.025 649.289 96.3417 649.289 91.797C649.289 87.2522 653.029 83.5693 657.643 83.5693C662.256 83.5693 665.996 87.2522 665.996 91.797Z" fill="#EBECEE"/>
<path id="Stroke 36" fill-rule="evenodd" clip-rule="evenodd" d="M217.133 476.059C217.133 478.924 214.775 481.246 211.866 481.246C208.959 481.246 206.602 478.924 206.602 476.059C206.602 473.194 208.959 470.873 211.866 470.873C214.775 470.873 217.133 473.194 217.133 476.059Z" stroke="#D2D8DF" stroke-width="2.921" stroke-linecap="round"/>
<path id="Stroke 38" fill-rule="evenodd" clip-rule="evenodd" d="M214 63.3668C214 66.7954 211.179 69.5725 207.699 69.5725C204.22 69.5725 201.398 66.7954 201.398 63.3668C201.398 59.9398 204.22 57.1611 207.699 57.1611C211.179 57.1611 214 59.9398 214 63.3668Z" stroke="#D2D8DF" stroke-width="2.921" stroke-linecap="round"/>
<path id="Stroke 40" fill-rule="evenodd" clip-rule="evenodd" d="M374.725 533.495C370.698 535.003 366.192 533.011 364.66 529.047C363.129 525.082 365.15 520.642 369.178 519.135C373.203 517.626 377.709 519.617 379.241 523.583C380.774 527.548 378.751 531.986 374.725 533.495Z" stroke="#D2D8DF" stroke-width="2.921" stroke-linecap="round"/>
</g>
</g>
<g id="search">
<g id="documents">
<path id="Fill 1" fill-rule="evenodd" clip-rule="evenodd" d="M372.322 386.83H218.352C207.515 386.83 198.645 378.069 198.645 367.363V151.173C198.645 140.467 207.515 131.711 218.352 131.711H372.322C383.163 131.711 392.034 140.467 392.034 151.173V367.363C392.034 378.069 383.163 386.83 372.322 386.83Z" fill="#E0E2EE"/>
<path id="Fill 3" fill-rule="evenodd" clip-rule="evenodd" d="M359.173 396.073H205.204C194.367 396.073 185.496 387.313 185.496 376.606V160.417C185.496 149.71 194.367 140.955 205.204 140.955H359.173C370.015 140.955 378.885 149.71 378.885 160.417V376.606C378.885 387.313 370.015 396.073 359.173 396.073Z" fill="#E8EBF2"/>
<path id="Fill 5" fill-rule="evenodd" clip-rule="evenodd" d="M346.395 403.37H192.108C181.248 403.37 172.359 394.647 172.359 383.985V168.69C172.359 158.028 181.248 149.309 192.108 149.309H346.395C357.259 149.309 366.148 158.028 366.148 168.69V383.985C366.148 394.647 357.259 403.37 346.395 403.37Z" fill="#D8DBEA"/>
<path id="Fill 8" fill-rule="evenodd" clip-rule="evenodd" d="M346.395 403.37H192.108C181.248 403.37 172.359 394.647 172.359 383.985V168.69C172.359 158.028 181.248 149.309 192.108 149.309H346.395C357.259 149.309 366.148 158.028 366.148 168.69V383.985C366.148 394.647 357.259 403.37 346.395 403.37Z" fill="#F1F2F7"/>
<path id="Fill 11" fill-rule="evenodd" clip-rule="evenodd" d="M324.148 214.902H210.188C206.933 214.902 204.27 212.406 204.27 209.358C204.27 206.305 206.933 203.81 210.188 203.81H324.148C327.402 203.81 330.066 206.305 330.066 209.358C330.066 212.406 327.402 214.902 324.148 214.902Z" fill="#E0E2EE"/>
<path id="Fill 13" fill-rule="evenodd" clip-rule="evenodd" d="M324.148 248.177H210.188C206.933 248.177 204.27 245.682 204.27 242.633C204.27 239.58 206.933 237.085 210.188 237.085H324.148C327.402 237.085 330.066 239.58 330.066 242.633C330.066 245.682 327.402 248.177 324.148 248.177Z" fill="#E0E2EE"/>
<path id="Fill 15" fill-rule="evenodd" clip-rule="evenodd" d="M324.148 281.454H210.188C206.933 281.454 204.27 278.958 204.27 275.91C204.27 272.861 206.933 270.362 210.188 270.362H324.148C327.402 270.362 330.066 272.861 330.066 275.91C330.066 278.958 327.402 281.454 324.148 281.454Z" fill="#E0E2EE"/>
<path id="Fill 17" fill-rule="evenodd" clip-rule="evenodd" d="M324.148 314.731H210.188C206.933 314.731 204.27 312.235 204.27 309.187C204.27 306.134 206.933 303.639 210.188 303.639H324.148C327.402 303.639 330.066 306.134 330.066 309.187C330.066 312.235 327.402 314.731 324.148 314.731Z" fill="#E0E2EE"/>
<path id="Fill 19" fill-rule="evenodd" clip-rule="evenodd" d="M269.673 348.006H210.213C206.945 348.006 204.27 345.511 204.27 342.462C204.27 339.409 206.945 336.914 210.213 336.914H269.673C272.942 336.914 275.617 339.409 275.617 342.462C275.617 345.511 272.942 348.006 269.673 348.006Z" fill="#E0E2EE"/>
</g>
<g id="search_2">
<path id="Fill 21" fill-rule="evenodd" clip-rule="evenodd" d="M389.706 305.001C366.918 327.434 331.64 329.964 306.029 312.645C302.756 310.391 299.64 307.861 296.735 305.001C295.24 303.533 293.83 302.018 292.502 300.424C289.845 297.239 287.518 293.843 285.612 290.334C282.252 284.407 279.968 278.118 278.721 271.617C274.698 251.23 280.714 229.286 296.735 213.519C312.795 197.704 335.085 191.819 355.794 195.742C362.393 197.008 368.786 199.256 374.807 202.525C378.376 204.445 381.778 206.735 385.018 209.351C386.633 210.654 388.172 212.046 389.663 213.519C392.573 216.379 395.181 219.441 397.427 222.668C415.025 247.876 412.45 282.61 389.706 305.001Z" fill="white" fill-opacity="0.1"/>
<path id="Fill 23" fill-rule="evenodd" clip-rule="evenodd" d="M383.325 300.583C359.617 323.93 321.198 323.925 297.486 300.583C273.805 277.266 273.805 239.433 297.517 216.091C321.198 192.774 359.617 192.774 383.298 216.091C407.005 239.433 407.005 277.266 383.325 300.583ZM395.493 204.098C365.063 174.135 315.751 174.135 285.321 204.098C254.895 234.056 254.869 282.639 285.294 312.601C312.99 339.862 356.399 342.32 386.93 319.937C389.913 317.748 392.784 315.294 395.524 312.601C398.259 309.904 400.752 307.076 402.97 304.14C425.703 274.073 423.184 231.362 395.493 204.098Z" fill="#E0E2EE"/>
<path id="Fill 25" fill-rule="evenodd" clip-rule="evenodd" d="M515.243 425.543L513.965 426.801C505.513 435.128 491.673 435.128 483.216 426.801L405.176 349.961L437.202 318.428L515.243 395.268C523.699 403.594 523.699 417.217 515.243 425.543Z" fill="url(#paint0_linear_1107_107631)"/>
<path id="Fill 27" fill-rule="evenodd" clip-rule="evenodd" d="M404.645 301.79L427.706 324.497L411.334 340.612L388.277 317.906C391.32 315.672 394.246 313.168 397.046 310.42C399.837 307.672 402.381 304.786 404.645 301.79Z" fill="#E0E2EE"/>
<path id="Fill 29" fill-rule="evenodd" clip-rule="evenodd" d="M514.083 394.324L482.26 425.652L476.531 420.007L508.349 388.679L514.083 394.324Z" fill="#EF545F"/>
<path id="Fill 31" fill-rule="evenodd" clip-rule="evenodd" d="M438.977 319.513L406.283 351.704L401.426 346.922L434.12 314.73L438.977 319.513Z" fill="url(#paint1_linear_1107_107631)"/>
<path id="Fill 33" fill-rule="evenodd" clip-rule="evenodd" d="M367.63 208.059L287.451 287C284.432 281.672 282.378 276.018 281.262 270.173L350.539 201.961C356.471 203.103 362.218 205.12 367.63 208.059Z" fill="white" fill-opacity="0.5"/>
<path id="Fill 35" fill-rule="evenodd" clip-rule="evenodd" d="M393.921 226.824L307.239 307.337C304.135 305.325 301.18 303.06 298.425 300.501C297.007 299.183 295.665 297.832 294.41 296.405L382.148 214.903C383.684 216.073 385.143 217.319 386.557 218.637C389.312 221.196 391.791 223.936 393.921 226.824Z" fill="white" fill-opacity="0.5"/>
</g>
</g>
</g>
<defs>
<linearGradient id="paint0_linear_1107_107631" x1="463.38" y1="261.119" x2="348.776" y2="377.514" gradientUnits="userSpaceOnUse">
<stop stop-color="#FF8960"/>
<stop offset="1" stop-color="#FF62A5"/>
</linearGradient>
<linearGradient id="paint1_linear_1107_107631" x1="420.201" y1="296.244" x2="383.232" y2="333.79" gradientUnits="userSpaceOnUse">
<stop stop-color="#FF404E"/>
<stop offset="1" stop-color="#FF62A5"/>
</linearGradient>
</defs>
</svg>
