<svg width="250" height="250" viewBox="0 0 250 250" fill="none" xmlns="http://www.w3.org/2000/svg">
<path d="M125.607 250C194.305 250 249.996 219.753 249.996 182.442C249.996 145.132 194.305 114.885 125.607 114.885C56.9094 114.885 1.21875 145.132 1.21875 182.442C1.21875 219.753 56.9094 250 125.607 250Z" fill="#F5F5F5"/>
<path d="M205.294 191.268C223.618 191.268 238.472 182.323 238.472 171.288C238.472 160.253 223.618 151.308 205.294 151.308C186.971 151.308 172.117 160.253 172.117 171.288C172.117 182.323 186.971 191.268 205.294 191.268Z" fill="#E6E6E6"/>
<path d="M71.6822 159.429C84.3748 167.074 84.8921 179.694 72.1941 187.338C59.496 194.983 38.407 194.756 25.709 187.111C13.0109 179.466 13.0164 167.074 25.709 159.429C38.4016 151.785 58.9787 151.785 71.6822 159.429Z" fill="#E6E6E6"/>
<path d="M175.217 200.623L133.551 175.531C132.82 175.144 132.012 174.942 131.193 174.942C130.374 174.942 129.566 175.144 128.835 175.531L87.169 200.623C85.8676 201.406 85.8676 202.678 87.169 203.462L106.145 214.889L88.4214 225.561C84.8222 227.725 78.9632 227.725 75.3531 225.561L47.474 208.773C45.9385 207.847 45.089 206.683 45.089 205.501C45.089 204.32 45.9385 203.15 47.474 202.224L72.1786 187.344C72.3087 187.273 72.4237 187.175 72.5167 187.057C72.6097 186.938 72.6787 186.801 72.7197 186.654C72.7606 186.507 72.7726 186.352 72.7548 186.2C72.7371 186.048 72.6901 185.902 72.6166 185.769C72.5431 185.636 72.4446 185.521 72.3271 185.429C72.2096 185.337 72.0755 185.271 71.9329 185.234C71.7902 185.198 71.642 185.192 71.497 185.217C71.3521 185.241 71.2135 185.297 71.0895 185.379L46.3959 200.248C44.1579 201.599 42.9219 203.462 42.9219 205.496C42.9219 207.529 44.1579 209.386 46.3959 210.738L74.2749 227.526C76.6324 228.793 79.246 229.455 81.8981 229.455C84.5502 229.455 87.1639 228.793 89.5213 227.526L108.334 216.201L128.857 228.554C129.588 228.941 130.395 229.142 131.215 229.142C132.034 229.142 132.842 228.941 133.572 228.554L175.239 203.462C176.518 202.678 176.518 201.406 175.217 200.623Z" fill="#E6E6E6"/>
<path d="M222.824 161.905C222.824 161.905 224.337 138.517 223.913 129.896C223.559 123.08 222.671 120.241 222.486 118.702C222.486 118.702 220.88 102.799 220.749 89.2307C220.684 82.7106 220.107 78.0762 216.682 70.3293L194.667 75.8214C194.22 79.2632 192.707 102.151 192.347 122.501C192.037 140.318 192.522 155.913 192.522 155.913V156.851C192.522 157.896 192.304 158.623 191.661 160.292C190.858 162.444 189.705 164.434 188.253 166.176C187.801 166.687 184.659 169.55 184.245 170.152C182.895 171.793 185.693 172.719 187.768 172.424C189.946 172.117 193.355 171.248 194.302 169.862C194.945 168.931 195.429 165.688 196.088 164.751C198.315 161.582 199.23 160.207 199.246 159.208C199.279 157.379 198.675 156.658 198.457 155.624C198.636 153.466 203.107 135.717 203.183 129.43C203.221 126.437 203.025 122.314 203.025 122.314L206.488 101.572C207.828 106.752 210.18 119.61 210.975 124.546C211.939 130.577 214.46 146.06 215.952 155.294C216.524 158.855 216.791 160.656 217.041 162.309L217.101 163.013C217.15 163.91 217.776 173.509 218.114 175.508C218.822 179.705 222.399 179.177 222.971 175.78C223.461 172.895 222.851 163.944 222.835 162.848L222.824 161.905Z" fill="#FFA8A7"/>
<path d="M222.828 161.906C223.841 161.906 223.177 166 223.438 168.619C223.716 171.43 224.598 173.486 224.854 175.786C225.197 177.797 224.901 179.869 224.01 181.687C223.307 183.391 219.768 185.663 218.423 183.272C217.078 180.881 216.79 178.115 216.947 175.491C217.105 172.867 216.947 171.106 216.996 169.045C217.045 167.227 215.766 162.587 217.078 162.326L217.138 163.03C217.612 164.013 222.393 164.206 222.872 162.877L222.828 161.906Z" fill="#37474F"/>
<path d="M199.477 161.44C199.787 162.752 199.477 166.352 199.477 166.352C199.477 166.352 198.932 167.596 196.988 168.42L196.117 163.41L199.477 161.44Z" fill="#263238"/>
<path d="M196.978 168.42L192.699 166.955L191.664 162.99L196.478 165.529L196.978 168.42Z" fill="black"/>
<path d="M192.525 156.851V155.914C191.943 156.209 190.663 161.099 188.932 164.433C187.353 167.494 184.222 169.198 183.203 170.533C181.842 172.31 184.488 174.611 188.73 173.662C190.837 173.191 194.028 171.788 194.894 170.305C195.76 168.823 196.048 166.097 196.756 165.006C197.464 163.916 199.147 162.661 199.479 161.423C199.756 160.305 199.756 159.133 199.479 158.015C199.147 156.879 198.853 155.522 198.482 155.647V156.504C198.199 157.106 197.17 157.811 195.03 157.936C193.985 157.987 192.994 157.822 192.525 156.851Z" fill="#37474F"/>
<path d="M194.222 75.5261C194.222 75.5261 192.768 92.3772 192.3 107.297C191.831 122.217 192.251 141.471 192.251 141.471C192.251 141.471 193.726 142.572 196.977 142.726C200.228 142.879 201.333 141.749 201.333 141.749C201.333 141.749 203.321 134.985 203.631 130.225C203.828 127.649 203.828 125.06 203.631 122.484L206.533 102.572C206.533 102.572 210.214 122.177 210.634 124.546C211.053 126.914 214.576 147.866 214.576 147.866C214.576 147.866 215.959 149.195 219.509 149.127C222.651 149.064 223.56 147.888 223.56 147.888C223.56 147.888 224.317 135.041 224.143 129.555C223.996 124.716 222.934 120.865 222.722 117.725C222.509 114.584 222.39 96.7106 222.177 89.8952C221.965 83.0799 221.42 77.23 215.828 69.0288L194.222 75.5261Z" fill="#455A64"/>
<path d="M206.561 102.589L204.144 90.0941C204.144 90.0941 199.934 88.9582 197.969 86.2661C197.969 86.2661 198.513 89.2422 202.869 91.1448L205.439 103.572L204.546 116.418L206.561 102.589Z" fill="#37474F"/>
<path d="M163.471 72.4194C165.021 72.6662 166.606 72.5438 168.105 72.0616C167.446 71.7183 166.83 71.293 166.27 70.7951C166.012 70.5796 165.846 70.2681 165.805 69.9267C165.765 69.5853 165.853 69.2408 166.052 68.9663C166.253 68.7391 166.754 69.2673 167.887 69.6024C169.335 70.0283 170.386 70.1192 171.78 70.9598C172.306 71.2789 172.924 71.3917 173.522 71.2778C176.92 70.6133 184.843 66.7342 188.475 64.7123C189.215 61.5602 190.5 56.9258 192.085 51.1441C193.55 45.8167 195.897 43.4881 199.643 43.5733L199.104 55.1424C199.104 55.1424 197.318 63.1334 195.107 69.6592C194.72 70.7951 193.169 72.1184 190.326 73.2202C186.645 74.6458 182.202 75.9918 176.773 77.5423C174.573 78.1958 172.326 78.6612 170.054 78.9338C164.315 79.4449 162.115 77.7979 161.342 76.6165C159.142 73.3565 160.443 71.789 163.471 72.4194Z" fill="#FFA8A7"/>
<path d="M209.296 43.488L214.535 43.9083C214.084 46.1288 214.211 48.4348 214.905 50.5864C215.598 52.7379 216.832 54.6563 218.477 56.1419L216.141 65.956C216.217 67.1714 218.145 71.2607 220.012 75.6566C216.5 80.5636 199.272 82.2391 193.652 77.9284C194.518 73.3053 195.166 69.7954 195.34 68.0404L195.057 61.6964C188.011 55.6705 196.511 46.4867 199.642 43.5675L203.574 43.3857L209.296 43.488Z" fill="#1256DB"/>
<path d="M231.348 92.3828C230.968 92.0734 230.667 91.6711 230.471 91.2115C230.276 90.7519 230.192 90.249 230.226 89.7475C230.319 88.8331 230.521 87.6858 230.885 87.2428C231.25 86.7998 233.537 83.5568 234.55 85.4424C235.639 87.4984 235.416 88.3333 235.416 88.3333L231.348 92.3828Z" fill="#F28F8F"/>
<path d="M224.299 135.729C221.841 135.643 219.447 134.887 217.357 133.536L190.169 117.157C185.971 114.629 182.546 108.456 182.546 103.395V79.604C182.543 78.8078 182.34 78.0263 181.956 77.3378C181.573 76.6493 181.023 76.078 180.361 75.6811C179.699 75.2842 178.949 75.0757 178.186 75.0764C177.423 75.0771 176.673 75.287 176.012 75.6851L166.494 81.4328C166.37 81.515 166.231 81.5702 166.086 81.595C165.941 81.6199 165.793 81.6139 165.65 81.5775C165.508 81.541 165.373 81.4748 165.256 81.3829C165.138 81.291 165.04 81.1753 164.966 81.0426C164.893 80.91 164.846 80.7632 164.828 80.6112C164.811 80.4591 164.823 80.3048 164.863 80.1577C164.904 80.0106 164.973 79.8736 165.066 79.755C165.159 79.6364 165.274 79.5387 165.405 79.4677L174.95 73.7144C175.942 73.1167 177.068 72.8018 178.214 72.8013C179.36 72.8007 180.486 73.1145 181.479 73.7112C182.472 74.3079 183.297 75.1664 183.871 76.2007C184.446 77.235 184.749 78.4087 184.751 79.604V103.395C184.751 107.655 187.746 113.05 191.285 115.192L218.473 131.56C221.952 133.656 225.181 134.019 227.555 132.594C229.929 131.168 231.242 128.05 231.242 123.876V93.5017C231.242 88.3561 234.394 82.4267 238.418 80.0016L245.056 76.0259C245.18 75.9437 245.318 75.8885 245.463 75.8637C245.608 75.8388 245.757 75.8448 245.899 75.8812C246.042 75.9177 246.176 75.9838 246.294 76.0758C246.411 76.1677 246.509 76.2834 246.583 76.4161C246.656 76.5487 246.704 76.6955 246.721 76.8475C246.739 76.9996 246.727 77.1539 246.686 77.301C246.645 77.4481 246.576 77.5851 246.483 77.7037C246.39 77.8223 246.275 77.92 246.145 77.991L239.507 81.9667C236.208 83.9545 233.42 89.2307 233.42 93.496V123.87C233.42 128.902 231.721 132.696 228.644 134.553C227.322 135.342 225.822 135.748 224.299 135.729Z" fill="#37474F"/>
<path d="M177.318 83.074V84.9312C177.318 87.9016 175.319 91.5194 172.847 93.0018L156.359 102.935L139.594 92.837V77.6955L155.853 69.8465C158.439 68.6027 162.534 68.7958 165.006 70.2781L172.836 74.9978C175.303 76.4858 177.318 80.1036 177.318 83.074Z" fill="#37474F"/>
<path d="M155.859 69.8465C158.445 68.6027 162.54 68.7958 165.012 70.2781L172.842 74.9978C175.309 76.4801 175.211 78.6951 172.625 79.9446L156.349 87.7823L139.578 77.6899L155.859 69.8465Z" fill="#455A64"/>
<path opacity="0.15" d="M157.931 84.1474C158.58 84.5895 159.121 85.1849 159.509 85.8855C159.896 86.586 160.121 87.372 160.163 88.1798V100.635L156.351 102.907L139.586 92.8086V77.6955L143.833 75.6509L157.931 84.1474Z" fill="black"/>
<path d="M138.15 75.0886C138.401 74.9667 138.679 74.9171 138.955 74.9451C139.23 74.9731 139.494 75.0775 139.718 75.2476L156.206 85.1811C156.856 85.6234 157.398 86.2196 157.786 86.9213C158.173 87.623 158.397 88.4103 158.438 89.2192V104.031C158.468 104.319 158.423 104.61 158.308 104.874C158.193 105.138 158.012 105.365 157.785 105.531C157.404 105.752 156.059 106.564 155.683 106.797C155.431 106.919 155.152 106.968 154.876 106.941C154.599 106.913 154.334 106.808 154.109 106.638L137.616 96.7047C136.967 96.2626 136.426 95.6672 136.038 94.9666C135.65 94.2661 135.426 93.4801 135.384 92.6723V77.8602C135.355 77.572 135.399 77.2809 135.513 77.0166C135.627 76.7522 135.806 76.524 136.032 76.3551L138.15 75.0886Z" fill="#37474F"/>
<path d="M154.116 86.442L137.623 76.5142C136.393 75.7702 135.391 76.3722 135.391 77.8603V92.6724C135.433 93.4801 135.657 94.2661 136.045 94.9667C136.433 95.6673 136.974 96.2627 137.623 96.7048L154.116 106.638C155.347 107.382 156.349 106.78 156.349 105.292V90.4801C156.307 89.6715 156.082 88.8847 155.695 88.1832C155.307 87.4818 154.766 86.8853 154.116 86.442Z" fill="#455A64"/>
<path d="M134.578 103.685V106.246C134.578 107.286 134.921 108.007 135.487 108.348L136.969 109.239C137.323 109.42 137.719 109.496 138.112 109.46C138.505 109.424 138.882 109.277 139.201 109.035L152.814 100.822V90.713L151.333 89.8213L137.693 98.0338C136.784 98.6543 136.029 99.4893 135.488 100.471C134.947 101.453 134.635 102.554 134.578 103.685ZM140.747 100.516C140.799 100.7 140.829 100.891 140.835 101.084C140.796 101.843 140.586 102.581 140.221 103.24C139.857 103.898 139.349 104.457 138.738 104.872C138.569 104.976 138.385 105.052 138.194 105.099C138.146 104.914 138.12 104.723 138.117 104.531C138.157 103.772 138.367 103.034 138.731 102.376C139.096 101.717 139.603 101.158 140.214 100.743C140.383 100.647 140.562 100.57 140.747 100.516Z" fill="#1256DB"/>
<path opacity="0.2" d="M136.897 109.183C136.926 109.209 136.957 109.231 136.99 109.251L136.935 109.217L135.503 108.348C134.931 108.018 134.594 107.297 134.594 106.252V103.69C134.629 102.552 134.946 101.443 135.514 100.47L136.995 101.362C136.433 102.337 136.118 103.445 136.08 104.582V107.144C136.04 107.807 136.245 108.461 136.652 108.972C136.725 109.052 136.808 109.123 136.897 109.183Z" fill="black"/>
<path opacity="0.5" d="M152.82 90.713L139.207 98.9255C138.284 99.5259 137.523 100.363 136.997 101.356L135.516 100.465C136.041 99.4726 136.8 98.6362 137.721 98.0338L151.361 89.8213L152.82 90.713Z" fill="white"/>
<path opacity="0.2" d="M140.839 101.084C140.838 100.879 140.812 100.674 140.762 100.476C141.661 100.22 142.32 100.805 142.32 101.975C142.281 102.734 142.071 103.472 141.708 104.13C141.344 104.788 140.838 105.348 140.229 105.764C139.259 106.332 138.432 106.042 138.203 105.099C138.395 105.055 138.579 104.978 138.748 104.872C139.356 104.456 139.863 103.896 140.226 103.238C140.589 102.58 140.799 101.842 140.839 101.084Z" fill="black"/>
<path d="M122.008 96.1085V98.6756C122.008 99.7093 122.351 100.436 122.917 100.771L124.398 101.669C124.753 101.845 125.146 101.918 125.538 101.88C125.929 101.842 126.303 101.694 126.62 101.453L140.233 93.2347V83.1422L138.752 82.2449L125.139 90.4574C124.228 91.077 123.47 91.9114 122.927 92.8931C122.383 93.8749 122.068 94.9764 122.008 96.1085ZM128.177 92.9223C128.227 93.1208 128.252 93.3249 128.253 93.53C128.214 94.2889 128.004 95.0274 127.64 95.6856C127.275 96.3438 126.767 96.9032 126.157 97.3182C125.985 97.4159 125.802 97.4922 125.612 97.5454C125.561 97.3513 125.535 97.1506 125.536 96.9491C125.575 96.1908 125.785 95.4528 126.148 94.7947C126.511 94.1366 127.018 93.5769 127.627 93.1608C127.799 93.0548 127.984 92.9745 128.177 92.9223Z" fill="#1256DB"/>
<path opacity="0.2" d="M124.464 101.708H124.436H124.398L122.917 100.805C122.345 100.47 122.008 99.749 122.008 98.704V96.1426C122.014 95.5953 122.096 95.0519 122.253 94.5296C122.417 93.9708 122.641 93.4334 122.923 92.928L124.404 93.814C124.263 94.067 124.138 94.3288 124.028 94.5977C123.69 95.361 123.505 96.1881 123.483 97.0286V99.59C123.437 100.249 123.632 100.903 124.028 101.419C124.156 101.54 124.304 101.638 124.464 101.708Z" fill="black"/>
<path opacity="0.5" d="M140.25 83.1422L126.637 91.3548C125.712 91.9536 124.951 92.7907 124.426 93.7856L122.945 92.8996C123.462 91.9066 124.211 91.0664 125.123 90.4574L138.736 82.2449L140.25 83.1422Z" fill="white"/>
<path opacity="0.2" d="M128.247 93.5242C128.248 93.3212 128.224 93.1189 128.176 92.9222C129.069 92.6609 129.734 93.2516 129.734 94.4216C129.695 95.1799 129.485 95.9179 129.122 96.576C128.758 97.2341 128.252 97.7938 127.643 98.2098C126.668 98.7777 125.846 98.4881 125.617 97.5396C125.81 97.4974 125.994 97.4205 126.162 97.3124C126.77 96.8964 127.276 96.3366 127.639 95.6784C128.001 95.0202 128.21 94.2822 128.247 93.5242Z" fill="black"/>
<path d="M126.134 86.6294C125.953 86.63 125.776 86.567 125.633 86.4507C125.49 86.3343 125.388 86.1713 125.345 85.9876L123.167 77.0822C123.112 76.8631 123.144 76.6304 123.254 76.4355C123.364 76.2406 123.544 76.0994 123.755 76.0429C123.965 75.9864 124.188 76.0193 124.375 76.1343C124.561 76.2493 124.697 76.4371 124.751 76.6563L126.929 85.5674C126.957 85.6755 126.964 85.7884 126.949 85.8993C126.934 86.0102 126.898 86.117 126.844 86.2132C126.789 86.3095 126.716 86.3934 126.63 86.46C126.544 86.5266 126.445 86.5746 126.341 86.601C126.273 86.6193 126.204 86.6288 126.134 86.6294Z" fill="#E0E0E0"/>
<path d="M120.008 90.3439C119.824 90.3444 119.646 90.2804 119.501 90.1622L111.394 83.4774C111.304 83.4101 111.229 83.3246 111.172 83.226C111.115 83.1274 111.078 83.0178 111.062 82.9038C111.047 82.7899 111.054 82.6738 111.083 82.5628C111.112 82.4518 111.163 82.348 111.231 82.2578C111.299 82.1675 111.385 82.0927 111.482 82.0378C111.579 81.9829 111.685 81.949 111.795 81.9383C111.905 81.9275 112.016 81.9401 112.121 81.9753C112.226 82.0104 112.323 82.0674 112.406 82.1427L120.514 88.8218C120.684 88.9626 120.793 89.1674 120.819 89.3918C120.844 89.6162 120.784 89.842 120.65 90.0202C120.574 90.122 120.477 90.2041 120.365 90.2603C120.254 90.3164 120.132 90.345 120.008 90.3439Z" fill="#E0E0E0"/>
<path d="M108.832 98.4996C108.615 98.5079 108.404 98.4261 108.245 98.2722C108.087 98.1183 107.993 97.9049 107.985 97.6789C107.977 97.453 108.055 97.233 108.203 97.0674C108.351 96.9018 108.555 96.8041 108.772 96.7958L118.252 96.029C118.359 96.0197 118.467 96.0327 118.569 96.0672C118.671 96.1016 118.766 96.1569 118.847 96.2298C118.929 96.3028 118.995 96.3918 119.044 96.4919C119.092 96.592 119.121 96.7011 119.128 96.8128C119.143 97.0376 119.073 97.2596 118.932 97.4307C118.792 97.6019 118.592 97.7083 118.377 97.7272L108.897 98.4939L108.832 98.4996Z" fill="#E0E0E0"/>
<path d="M238.768 83.1138C238.584 81.0155 238.286 78.9297 237.875 76.8664C236.637 72.0256 234.986 67.3099 232.942 62.7756C232.033 60.9638 229.98 58.3229 228.526 56.0908C226.468 52.9387 225.019 51.1724 223.457 49.0312C220.015 44.3343 218.556 44.0617 214.538 43.9197C213.993 45.4134 212.752 51.5359 216.775 56.4827L225.401 65.9674C225.891 66.791 231.162 76.1905 232.038 79.6607C232.19 80.2778 232.116 80.9316 231.831 81.4951C231.142 83.0858 230.636 84.7558 230.323 86.4704C230.067 87.6744 229.381 88.6286 229.615 88.816C229.904 89.0176 230.25 89.1116 230.597 89.0827C230.944 89.0539 231.271 88.9039 231.526 88.657C232.142 87.9678 232.644 87.1771 233.013 86.317C233.175 86.306 233.337 86.3301 233.49 86.388C233.642 86.4458 233.781 86.5361 233.898 86.653C234.016 86.77 234.108 86.9111 234.171 87.0673C234.233 87.2236 234.263 87.3917 234.26 87.5608C234.309 88.2594 234.004 89.2306 233.77 90.4403C233.726 90.6789 233.672 90.9515 233.568 91.6103C233.479 92.0552 233.428 92.5076 233.416 92.962C234.505 93.1722 235.643 92.4793 237.472 90.6902C239.122 89.0205 239.231 86.8282 238.768 83.1138Z" fill="#FFA8A7"/>
<path d="M210.228 40.7279C210.261 39.592 213.8 36.934 215.592 34.1056C217.225 31.4817 219.572 24.2687 214.072 21.9628C214.072 21.9628 215.259 18.504 213.103 16.4651C210.947 14.4262 208.045 15.687 207.587 16.5389C207.311 15.4769 206.713 14.5362 205.883 13.8567C205.053 13.1773 204.035 12.7954 202.981 12.7678C201.95 12.6868 200.927 12.9969 200.098 13.6408C199.27 14.2847 198.692 15.2191 198.472 16.272C197.602 15.8791 196.629 15.8103 195.715 16.0771C194.802 16.3439 194.005 16.93 193.457 17.7373C191.437 20.6395 194.116 23.2975 194.116 23.2975C193.768 23.5421 193.491 23.8805 193.314 24.2766C193.136 24.6728 193.065 25.1117 193.109 25.5466C193.266 26.7734 194.394 27.0744 194.524 27.6878C194.55 27.8161 194.534 27.9495 194.48 28.0678C194.426 28.1861 194.336 28.2828 194.225 28.3432C194.113 28.4036 193.986 28.4244 193.862 28.4024C193.738 28.3805 193.625 28.317 193.539 28.2216C193.568 28.3818 193.627 28.5343 193.714 28.6704C193.8 28.8066 193.911 28.9237 194.04 29.015C194.17 29.1063 194.315 29.17 194.468 29.2024C194.621 29.2349 194.779 29.2355 194.933 29.2042C196.201 29.1303 197.334 27.3299 197.334 27.3299L210.228 40.7279Z" fill="#263238"/>
<path d="M198.684 21.5994C197.051 22.3377 195.51 24.9332 195.531 32.1916C195.531 38.3425 197.361 39.8987 198.254 40.3587C199.147 40.8187 200.949 40.5802 202.686 40.3019V43.8402C202.686 43.8402 199.545 47.9067 202.36 49.9286C209.613 48.6053 210.168 43.6414 210.168 43.6414L210.299 35.9287C210.299 35.9287 211.295 37.0192 213.021 35.4175C214.47 34.0942 214.992 31.8281 213.903 30.5786C212.814 29.3291 211.42 29.2326 210.157 30.6241C210.157 30.6241 207.843 30.7831 204.363 28.5056C200.884 26.2281 199.643 23.9166 198.684 21.5994Z" fill="#FFA8A7"/>
<path d="M202.862 36.0422C202.87 36.1595 202.854 36.2772 202.818 36.3884C202.781 36.4995 202.724 36.602 202.649 36.6897C202.574 36.7775 202.483 36.8488 202.381 36.8995C202.279 36.9502 202.169 36.9793 202.056 36.985C201.882 36.9997 201.707 36.9595 201.555 36.8696C201.402 36.7797 201.279 36.6442 201.201 36.4807C201.123 36.3172 201.094 36.133 201.117 35.952C201.14 35.771 201.215 35.6014 201.332 35.4651C201.448 35.3287 201.601 35.2319 201.771 35.1871C201.941 35.1423 202.119 35.1516 202.284 35.2137C202.449 35.2758 202.592 35.3879 202.695 35.5355C202.798 35.6832 202.856 35.8597 202.862 36.0422Z" fill="#B16668"/>
<path d="M198.381 30.0903C198.379 30.2503 198.333 30.4065 198.248 30.5394C198.162 30.6723 198.041 30.7761 197.9 30.8381C197.758 30.9 197.603 30.9172 197.452 30.8877C197.301 30.8582 197.162 30.7832 197.052 30.6719C196.941 30.5607 196.865 30.4182 196.831 30.262C196.798 30.1058 196.809 29.9428 196.864 29.7932C196.918 29.6436 197.014 29.514 197.138 29.4205C197.263 29.3269 197.411 29.2734 197.564 29.2668C197.669 29.2645 197.774 29.2841 197.873 29.3243C197.971 29.3645 198.061 29.4247 198.137 29.5012C198.213 29.5778 198.273 29.6692 198.315 29.7703C198.357 29.8714 198.379 29.9802 198.381 30.0903Z" fill="#263238"/>
<path d="M204.412 30.4651C204.419 30.5824 204.404 30.7001 204.368 30.8112C204.331 30.9224 204.273 31.0248 204.198 31.1126C204.123 31.2003 204.032 31.2716 203.931 31.3223C203.829 31.373 203.719 31.4021 203.606 31.4079C203.378 31.4094 203.159 31.3173 202.996 31.1515C202.833 30.9856 202.739 30.7594 202.735 30.5219C202.731 30.4071 202.749 30.2926 202.788 30.185C202.827 30.0775 202.886 29.979 202.961 29.8951C203.036 29.8113 203.127 29.7437 203.227 29.6963C203.328 29.6489 203.436 29.6226 203.546 29.6189C203.656 29.6151 203.766 29.6341 203.869 29.6746C203.972 29.7151 204.067 29.7764 204.147 29.855C204.227 29.9335 204.292 30.0279 204.338 30.1326C204.383 30.2373 204.408 30.3503 204.412 30.4651Z" fill="#263238"/>
<path d="M197.833 26.8359L196.172 27.8526C196.231 27.9697 196.313 28.0728 196.412 28.1555C196.511 28.2383 196.626 28.2988 196.748 28.3335C196.871 28.3681 196.999 28.376 197.125 28.3568C197.25 28.3376 197.371 28.2916 197.479 28.2217C197.697 28.0824 197.856 27.8607 197.922 27.6027C197.987 27.3447 197.956 27.0701 197.833 26.8359Z" fill="#263238"/>
<path d="M210.192 29.6245V33.0322C209.982 33.0378 209.774 32.9985 209.58 32.917C209.385 32.8354 209.209 32.7131 209.061 32.5578C208.914 32.4024 208.799 32.2172 208.722 32.0136C208.646 31.81 208.611 31.5922 208.618 31.3738C208.62 30.9288 208.783 30.5009 209.075 30.1764C209.367 29.8518 209.766 29.6547 210.192 29.6245Z" fill="#263238"/>
<path d="M200.526 29.2781L200.194 34.1852L197.711 33.5774L200.526 29.2781Z" fill="#F28F8F"/>
<path d="M202.709 40.3132C204.533 40.0917 208.301 39.0013 208.916 37.3997C208.672 38.2021 208.201 38.9088 207.566 39.4272C206.428 40.4495 202.703 41.5059 202.703 41.5059L202.709 40.3132Z" fill="#F28F8F"/>
<path d="M224.639 2.36298C225.334 2.63961 225.986 3.02243 226.572 3.49888C227.141 3.93225 227.63 4.46904 228.015 5.08346C228.382 5.6745 228.624 6.34069 228.723 7.0372C228.821 7.78061 228.733 8.53785 228.467 9.23516C228.277 9.79342 227.983 10.3069 227.602 10.7459C227.261 11.1202 226.87 11.4415 226.442 11.7001C226.025 11.9485 225.587 12.1575 225.135 12.3248L223.85 12.8076C223.472 12.95 223.107 13.1287 222.761 13.3414C222.434 13.5126 222.161 13.7764 221.971 14.1025C221.884 14.2547 221.76 14.3801 221.612 14.466C221.541 14.5068 221.462 14.5305 221.381 14.5355C221.3 14.5404 221.219 14.5263 221.144 14.4944L219.445 13.8299C219.364 13.7987 219.29 13.751 219.228 13.6896C219.165 13.6281 219.115 13.5541 219.08 13.4721C219.043 13.3935 219.023 13.307 219.023 13.2193C219.023 13.1316 219.043 13.0451 219.08 12.9666C219.298 12.4201 219.621 11.9255 220.027 11.5126C220.396 11.1508 220.808 10.8397 221.253 10.5869C221.682 10.3465 222.13 10.1451 222.592 9.98485C223.049 9.82582 223.474 9.67248 223.872 9.51345C224.231 9.37598 224.576 9.20092 224.901 8.99094C225.181 8.80601 225.395 8.53079 225.511 8.20717C225.618 7.92371 225.657 7.61715 225.625 7.31423C225.593 7.01131 225.49 6.72122 225.325 6.46925C224.916 5.84865 224.32 5.38727 223.632 5.15729C223.033 4.90858 222.374 4.85969 221.747 5.01734C221.12 5.17498 220.556 5.53142 220.131 6.03761C220.022 6.1573 219.895 6.25713 219.755 6.33294C219.604 6.38231 219.441 6.37014 219.298 6.29887L217.49 5.58893C217.425 5.5656 217.366 5.52892 217.316 5.4811C217.265 5.43327 217.224 5.37529 217.196 5.31064C217.165 5.24436 217.148 5.1715 217.148 5.09765C217.148 5.02381 217.165 4.95095 217.196 4.88467C217.435 4.30557 217.81 3.798 218.285 3.40801C218.814 2.94906 219.417 2.59142 220.065 2.35162C220.778 2.08905 221.526 1.94716 222.282 1.93134C223.087 1.91546 223.887 2.06202 224.639 2.36298ZM220.762 15.937C220.842 15.9664 220.914 16.0129 220.975 16.0736C221.036 16.1343 221.084 16.2077 221.116 16.2891C221.15 16.3697 221.167 16.4567 221.167 16.5447C221.167 16.6326 221.15 16.7196 221.116 16.8002L220.376 18.8505C220.348 18.9334 220.303 19.0091 220.245 19.0727C220.187 19.1363 220.116 19.1864 220.038 19.2197C219.961 19.2547 219.878 19.2728 219.793 19.2728C219.709 19.2728 219.626 19.2547 219.548 19.2197L217.626 18.4643C217.547 18.4349 217.474 18.3883 217.413 18.3277C217.352 18.267 217.304 18.1936 217.272 18.1122C217.239 18.0315 217.221 17.9445 217.221 17.8566C217.221 17.7687 217.239 17.6817 217.272 17.601L218.013 15.5507C218.042 15.4677 218.087 15.3916 218.145 15.3272C218.203 15.2628 218.273 15.2113 218.35 15.1759C218.428 15.1422 218.511 15.1248 218.595 15.1248C218.679 15.1248 218.763 15.1422 218.84 15.1759L220.762 15.937Z" fill="#1256DB"/>
<path d="M225.577 26.8415C225.634 26.8996 225.679 26.969 225.71 27.0456C225.741 27.1221 225.757 27.2043 225.757 27.2873C225.757 27.3704 225.741 27.4525 225.71 27.5291C225.679 27.6056 225.634 27.675 225.577 27.7332L224.216 29.2326C224.161 29.2931 224.096 29.3414 224.023 29.3746C223.95 29.4078 223.871 29.4251 223.791 29.4257C223.711 29.4287 223.632 29.4152 223.557 29.3859C223.482 29.3567 223.414 29.3123 223.356 29.2553L221.967 27.8638C221.909 27.8069 221.863 27.7383 221.831 27.6621C221.799 27.586 221.783 27.5039 221.782 27.4208C221.778 27.3374 221.79 27.2541 221.818 27.1759C221.846 27.0977 221.89 27.0264 221.945 26.9664L223.312 25.4727C223.426 25.3558 223.58 25.2903 223.74 25.2903C223.899 25.2903 224.053 25.3558 224.167 25.4727L225.577 26.8415ZM233.745 16.5446C234.251 17.045 234.686 17.6188 235.035 18.2484C235.372 18.8451 235.606 19.4986 235.727 20.1795C235.829 20.8321 235.798 21.4999 235.634 22.1389C235.461 22.7435 235.168 23.3037 234.775 23.7839C234.382 24.264 233.898 24.6535 233.353 24.9275C232.927 25.1237 232.476 25.2538 232.013 25.3137C231.563 25.3665 231.11 25.3798 230.658 25.3535L229.373 25.2796C228.989 25.258 228.605 25.2713 228.224 25.3194C227.882 25.3587 227.558 25.4964 227.287 25.717C227.159 25.818 227.006 25.879 226.846 25.893C226.77 25.902 226.692 25.8928 226.62 25.8663C226.547 25.8397 226.481 25.7965 226.427 25.7397L225.191 24.5129C225.072 24.3958 225.001 24.2348 224.995 24.0642C224.987 23.9803 224.999 23.8957 225.029 23.8176C225.059 23.7394 225.107 23.6701 225.169 23.6155C225.548 23.2221 226 22.913 226.498 22.7068C226.945 22.5336 227.411 22.421 227.886 22.3717C228.344 22.332 228.805 22.332 229.264 22.3717C229.717 22.4134 230.142 22.4418 230.538 22.4569C230.902 22.4761 231.267 22.4551 231.627 22.3945C231.937 22.3442 232.222 22.1885 232.438 21.9515C232.629 21.7453 232.769 21.4941 232.847 21.2192C232.925 20.9442 232.938 20.6538 232.885 20.3726C232.749 19.6758 232.395 19.0462 231.877 18.5835C231.442 18.1399 230.887 17.8472 230.286 17.7455C229.686 17.6438 229.07 17.7382 228.523 18.0156C228.389 18.0772 228.245 18.1138 228.098 18.1235C228.024 18.1188 227.951 18.0983 227.885 18.0631C227.818 18.0279 227.759 17.9789 227.712 17.919L226.394 16.6071C226.299 16.5176 226.241 16.3936 226.231 16.2606C226.227 16.1904 226.238 16.1202 226.263 16.0546C226.287 15.989 226.324 15.9296 226.372 15.8801C226.784 15.4715 227.285 15.1734 227.832 15.0111C228.453 14.8175 229.101 14.7386 229.748 14.7783C230.46 14.8235 231.161 14.9885 231.823 15.2667C232.531 15.5578 233.177 15.9921 233.723 16.5446H233.745Z" fill="#1256DB"/>
<g opacity="0.6">
<path d="M225.577 26.8415C225.634 26.8996 225.679 26.969 225.71 27.0456C225.741 27.1221 225.757 27.2043 225.757 27.2873C225.757 27.3704 225.741 27.4525 225.71 27.5291C225.679 27.6056 225.634 27.675 225.577 27.7332L224.216 29.2326C224.161 29.2931 224.096 29.3414 224.023 29.3746C223.95 29.4078 223.871 29.4251 223.791 29.4257C223.711 29.4287 223.632 29.4152 223.557 29.3859C223.482 29.3567 223.414 29.3123 223.356 29.2553L221.967 27.8638C221.909 27.8069 221.863 27.7383 221.831 27.6621C221.799 27.586 221.783 27.5039 221.782 27.4208C221.778 27.3374 221.79 27.2541 221.818 27.1759C221.846 27.0977 221.89 27.0264 221.945 26.9664L223.312 25.4727C223.426 25.3558 223.58 25.2903 223.74 25.2903C223.899 25.2903 224.053 25.3558 224.167 25.4727L225.577 26.8415ZM233.745 16.5446C234.251 17.045 234.686 17.6188 235.035 18.2484C235.372 18.8451 235.606 19.4986 235.727 20.1795C235.829 20.8321 235.798 21.4999 235.634 22.1389C235.461 22.7435 235.168 23.3037 234.775 23.7839C234.382 24.264 233.898 24.6535 233.353 24.9275C232.927 25.1237 232.476 25.2538 232.013 25.3137C231.563 25.3665 231.11 25.3798 230.658 25.3535L229.373 25.2796C228.989 25.258 228.605 25.2713 228.224 25.3194C227.882 25.3587 227.558 25.4964 227.287 25.717C227.159 25.818 227.006 25.879 226.846 25.893C226.77 25.902 226.692 25.8928 226.62 25.8663C226.547 25.8397 226.481 25.7965 226.427 25.7397L225.191 24.5129C225.072 24.3958 225.001 24.2348 224.995 24.0642C224.987 23.9803 224.999 23.8957 225.029 23.8176C225.059 23.7394 225.107 23.6701 225.169 23.6155C225.548 23.2221 226 22.913 226.498 22.7068C226.945 22.5336 227.411 22.421 227.886 22.3717C228.344 22.332 228.805 22.332 229.264 22.3717C229.717 22.4134 230.142 22.4418 230.538 22.4569C230.902 22.4761 231.267 22.4551 231.627 22.3945C231.937 22.3442 232.222 22.1885 232.438 21.9515C232.629 21.7453 232.769 21.4941 232.847 21.2192C232.925 20.9442 232.938 20.6538 232.885 20.3726C232.749 19.6758 232.395 19.0462 231.877 18.5835C231.442 18.1399 230.887 17.8472 230.286 17.7455C229.686 17.6438 229.07 17.7382 228.523 18.0156C228.389 18.0772 228.245 18.1138 228.098 18.1235C228.024 18.1188 227.951 18.0983 227.885 18.0631C227.818 18.0279 227.759 17.9789 227.712 17.919L226.394 16.6071C226.299 16.5176 226.241 16.3936 226.231 16.2606C226.227 16.1904 226.238 16.1202 226.263 16.0546C226.287 15.989 226.324 15.9296 226.372 15.8801C226.784 15.4715 227.285 15.1734 227.832 15.0111C228.453 14.8175 229.101 14.7386 229.748 14.7783C230.46 14.8235 231.161 14.9885 231.823 15.2667C232.531 15.5578 233.177 15.9921 233.723 16.5446H233.745Z" fill="white"/>
</g>
<path d="M31.8281 169.641C33.5542 170.737 35.8466 170.777 38.0084 169.987L39.6419 158.06L32.0187 156.027L31.8281 169.641Z" fill="#FFA8A7"/>
<path d="M44.136 181.057C44.3266 181.261 44.2123 182.76 43.9781 183.096C43.744 183.431 42.4317 184.567 40.0141 184.612C37.7108 184.652 35.658 184.214 34.3729 183.243C33.0879 182.272 32.4726 181.255 32.4127 179.881C32.3528 178.507 32.5706 177.206 32.0043 176.121C31.438 175.036 30.7573 174.128 30.5831 173.594C30.3786 172.627 30.3786 171.625 30.5831 170.657L44.136 181.057Z" fill="#263238"/>
<path d="M38.541 169.487C38.5517 170.005 38.6211 170.52 38.7479 171.021C39.0448 172.095 39.4634 173.128 39.9948 174.099C40.2591 174.606 40.5556 175.093 40.8824 175.559C41.5303 176.462 42.358 177.217 43.0604 178.086C43.8061 178.91 44.2545 179.978 44.3291 181.108C44.3291 182.993 42.3417 183.521 40.8225 183.715C39.1716 183.925 37.4966 183.744 35.9218 183.186C35.0977 182.912 34.367 182.395 33.8175 181.697C33.2679 181 32.9228 180.153 32.8236 179.256C32.7637 178.728 32.8236 178.2 32.7909 177.672C32.6553 176.46 32.2324 175.302 31.5603 174.304C31.1696 173.726 30.8409 173.105 30.5802 172.452C30.1663 171.265 30.6129 169.976 30.9722 168.834C31.2826 167.852 31.5167 166.665 31.8652 166.778C31.8652 166.977 31.8652 167.42 31.8652 167.42C31.9632 167.642 32.2028 167.801 32.2627 168.062C32.3192 168.331 32.3976 168.596 32.4969 168.851C32.6452 169.247 32.9078 169.584 33.2483 169.817C33.3082 169.107 33.3681 168.397 33.4225 167.693C33.4071 167.581 33.4163 167.467 33.4494 167.359C33.4826 167.251 33.5388 167.153 33.6139 167.071C33.689 166.99 33.7809 166.927 33.8826 166.888C33.9844 166.849 34.0933 166.835 34.2012 166.846C35.4785 166.603 36.7838 166.563 38.0727 166.727C38.1698 166.735 38.2645 166.762 38.3514 166.808C38.4383 166.854 38.5156 166.917 38.5791 166.994C38.6456 167.145 38.6664 167.313 38.639 167.477C38.5716 168.145 38.5388 168.816 38.541 169.487Z" fill="#1256DB"/>
<path opacity="0.2" d="M38.541 169.487C38.5517 170.005 38.6211 170.52 38.7479 171.021C39.0448 172.095 39.4634 173.128 39.9948 174.099C40.2591 174.606 40.5556 175.093 40.8824 175.559C41.5303 176.462 42.358 177.217 43.0604 178.086C43.8061 178.91 44.2545 179.978 44.3291 181.108C44.3291 182.993 42.3417 183.521 40.8225 183.715C39.1716 183.925 37.4966 183.744 35.9218 183.186C35.0977 182.912 34.367 182.395 33.8175 181.697C33.2679 181 32.9228 180.153 32.8236 179.256C32.7637 178.728 32.8236 178.2 32.7909 177.672C32.6553 176.46 32.2324 175.302 31.5603 174.304C31.1696 173.726 30.8409 173.105 30.5802 172.452C30.1663 171.265 30.6129 169.976 30.9722 168.834C31.2826 167.852 31.5167 166.665 31.8652 166.778C31.8652 166.977 31.8652 167.42 31.8652 167.42C31.9632 167.642 32.2028 167.801 32.2627 168.062C32.3192 168.331 32.3976 168.596 32.4969 168.851C32.6452 169.247 32.9078 169.584 33.2483 169.817C33.3082 169.107 33.3681 168.397 33.4225 167.693C33.4071 167.581 33.4163 167.467 33.4494 167.359C33.4826 167.251 33.5388 167.153 33.6139 167.071C33.689 166.99 33.7809 166.927 33.8826 166.888C33.9844 166.849 34.0933 166.835 34.2012 166.846C35.4785 166.603 36.7838 166.563 38.0727 166.727C38.1698 166.735 38.2645 166.762 38.3514 166.808C38.4383 166.854 38.5156 166.917 38.5791 166.994C38.6456 167.145 38.6664 167.313 38.639 167.477C38.5716 168.145 38.5388 168.816 38.541 169.487Z" fill="black"/>
<path d="M40.2174 174.508C39.5749 173.94 38.072 173.855 37.2444 173.9C36.4059 173.93 35.5878 174.178 34.8649 174.622C34.758 174.69 34.6321 174.717 34.5081 174.699C34.3841 174.682 34.2698 174.62 34.1842 174.525C34.1339 174.47 34.0958 174.404 34.0727 174.331C34.0495 174.259 34.0418 174.182 34.0501 174.106C34.0584 174.031 34.0825 173.958 34.1207 173.893C34.159 173.828 34.2104 173.772 34.2713 173.73C35.0715 173.186 36.001 172.885 36.9558 172.861C39.014 172.827 39.5586 173.213 39.5586 173.213C39.5586 173.213 40.4516 173.895 40.2174 174.508Z" fill="#455A64"/>
<path d="M41.6571 176.519C40.8403 175.951 39.185 175.951 38.3573 175.979C37.5342 176.02 36.7359 176.286 36.0431 176.751C35.9358 176.821 35.8086 176.849 35.6835 176.832C35.5583 176.814 35.4429 176.751 35.357 176.655C35.3061 176.6 35.2676 176.533 35.2443 176.46C35.221 176.388 35.2135 176.311 35.2224 176.234C35.2312 176.158 35.2562 176.085 35.2955 176.02C35.3348 175.956 35.3875 175.901 35.4496 175.86C36.2544 175.285 37.1979 174.959 38.1722 174.917C40.2032 174.877 40.7096 175.343 40.7096 175.343C40.9431 175.45 41.1499 175.612 41.3141 175.816C41.4784 176.02 41.5957 176.26 41.6571 176.519Z" fill="#455A64"/>
<path d="M36.2542 170.8C37.1141 170.692 37.986 170.817 38.7861 171.163C39.1292 171.396 39.3307 171.992 39.0965 172.129C38.3903 171.787 37.614 171.633 36.8368 171.68C36.0758 171.715 35.3262 171.886 34.6206 172.185C34.4409 172.254 34.234 172.356 34.0761 172.447C34.0179 172.478 33.9542 172.496 33.889 172.5C33.8237 172.504 33.7584 172.494 33.697 172.471C33.6356 172.447 33.5796 172.411 33.5324 172.364C33.4851 172.317 33.4478 172.26 33.4227 172.197C33.3885 172.092 33.3905 171.978 33.4283 171.874C33.466 171.77 33.5372 171.684 33.6296 171.629C34.4379 171.161 35.3327 170.878 36.2542 170.8Z" fill="#455A64"/>
<path d="M53.3198 165.16C54.6485 168.63 56.7285 167.562 59.8976 165.563L60.3767 153.716L52.3125 152.938L53.3198 165.16Z" fill="#FFA8A7"/>
<path d="M72.0587 173.514C72.2058 174.072 72.1435 174.667 71.8845 175.178C71.634 175.655 69.1129 176.962 65.8186 176.541C63.376 176.228 61.059 175.235 59.1102 173.668C57.8959 172.725 56.5945 172.492 54.961 172.299C53.3275 172.106 52.1023 171.515 51.781 170.697C51.4598 169.879 51.9498 168.528 51.9498 168.528L72.0587 173.514Z" fill="#263238"/>
<path d="M59.2353 162.593C59.533 162.527 59.826 162.44 60.112 162.331C60.2719 162.27 60.4476 162.27 60.6075 162.331C60.8144 162.428 60.8798 162.689 60.9288 162.899C60.9752 163.413 61.0701 163.921 61.2119 164.416C61.4347 164.826 61.7304 165.188 62.0831 165.483C62.8679 166.216 63.7238 166.861 64.6369 167.409C65.6878 168.079 66.7224 168.607 67.806 169.192C68.8895 169.777 70.4087 170.197 71.2691 170.896C72.516 171.884 72.565 174.184 71.0404 175.002C69.7281 175.712 66.3303 176.371 62.8727 175.133C60.9832 174.457 58.9685 172.202 56.4638 171.856C54.8683 171.64 52.7447 171.379 51.7809 170.055C51.4325 169.487 51.7374 167.84 52.0205 165.915C52.2764 164.211 52.5106 161.485 53.0388 161.667L53.0769 162.189L53.7194 162.99C53.8602 163.146 54.0092 163.294 54.1659 163.433C54.3379 163.643 54.5196 163.844 54.7104 164.035C54.9693 164.266 55.2911 164.407 55.6307 164.438C55.7916 164.449 55.9522 164.412 56.0935 164.331C56.3657 164.171 56.4039 163.797 56.638 163.564C56.8912 163.292 57.1952 163.078 57.531 162.933C57.9975 162.76 58.4851 162.657 58.9794 162.627C59.0653 162.621 59.1508 162.61 59.2353 162.593Z" fill="#1256DB"/>
<path opacity="0.2" d="M59.2353 162.593C59.533 162.527 59.826 162.44 60.112 162.331C60.2719 162.27 60.4476 162.27 60.6075 162.331C60.8144 162.428 60.8798 162.689 60.9288 162.899C60.9752 163.413 61.0701 163.921 61.2119 164.416C61.4347 164.826 61.7304 165.188 62.0831 165.483C62.8679 166.216 63.7238 166.861 64.6369 167.409C65.6878 168.079 66.7224 168.607 67.806 169.192C68.8895 169.777 70.4087 170.197 71.2691 170.896C72.516 171.884 72.565 174.184 71.0404 175.002C69.7281 175.712 66.3303 176.371 62.8727 175.133C60.9832 174.457 58.9685 172.202 56.4638 171.856C54.8683 171.64 52.7447 171.379 51.7809 170.055C51.4325 169.487 51.7374 167.84 52.0205 165.915C52.2764 164.211 52.5106 161.485 53.0388 161.667L53.0769 162.189L53.7194 162.99C53.8602 163.146 54.0092 163.294 54.1659 163.433C54.3379 163.643 54.5196 163.844 54.7104 164.035C54.9693 164.266 55.2911 164.407 55.6307 164.438C55.7916 164.449 55.9522 164.412 56.0935 164.331C56.3657 164.171 56.4039 163.797 56.638 163.564C56.8912 163.292 57.1952 163.078 57.531 162.933C57.9975 162.76 58.4851 162.657 58.9794 162.627C59.0653 162.621 59.1508 162.61 59.2353 162.593Z" fill="black"/>
<path d="M63.1918 166.398C63.0871 166.162 62.9277 165.957 62.7281 165.801C62.5285 165.646 62.2949 165.544 62.0483 165.506C61.3296 165.324 60.0173 165.813 59.1842 166.455C59.1051 166.515 59.0413 166.594 58.9983 166.686C58.9554 166.777 58.9346 166.879 58.9378 166.98C58.941 167.082 58.9682 167.182 59.0168 167.271C59.0655 167.359 59.1341 167.434 59.2169 167.488C59.3218 167.554 59.4434 167.586 59.5658 167.579C59.6882 167.572 59.8057 167.526 59.903 167.449C60.8242 166.661 62.0057 166.283 63.1918 166.398Z" fill="#455A64"/>
<path d="M65.3739 167.858C65.2271 167.616 65.0268 167.414 64.79 167.27C64.5531 167.126 64.2865 167.043 64.0126 167.028C62.8892 167.017 61.7912 167.377 60.8762 168.056C60.7987 168.112 60.7354 168.187 60.6916 168.274C60.6479 168.361 60.625 168.458 60.625 168.556C60.625 168.654 60.6479 168.751 60.6916 168.838C60.7354 168.925 60.7987 169 60.8762 169.056C60.9781 169.12 61.0964 169.15 61.2152 169.142C61.3339 169.134 61.4475 169.088 61.5405 169.011C62.0549 168.53 62.6669 168.176 63.3306 167.976C63.9944 167.777 64.6929 167.736 65.3739 167.858Z" fill="#455A64"/>
<path d="M67.803 169.186C67.6333 168.961 67.419 168.776 67.1747 168.645C66.9304 168.513 66.6618 168.439 66.3872 168.425C65.3031 168.434 64.2493 168.8 63.3761 169.47C63.3003 169.529 63.2394 169.606 63.1984 169.694C63.1575 169.783 63.1378 169.881 63.141 169.979C63.1442 170.077 63.1702 170.173 63.2169 170.259C63.2635 170.344 63.3294 170.417 63.4087 170.47C63.5076 170.539 63.6256 170.573 63.7446 170.566C63.8636 170.559 63.9771 170.511 64.0676 170.43C64.5537 169.933 65.1448 169.561 65.7935 169.345C66.4422 169.129 67.1305 169.075 67.803 169.186Z" fill="#455A64"/>
<path d="M31.621 137.665C31.8661 131.946 33.0313 128.97 33.1947 127.385C33.1947 127.385 33.6412 95.9211 34.3763 86.3739L61.3841 85.1755C61.7816 95.3986 62.141 122.865 61.9286 126.499C61.7272 129.981 60.3713 160.179 60.3713 160.179C56.5597 161.423 52.4922 159.611 52.4922 159.611C52.4922 159.611 50.227 142.43 49.8568 138.642C49.594 135.235 49.6779 131.808 50.1073 128.419L48.3811 103.958C48.3811 103.958 46.2957 122.927 45.2665 130.083C44.0904 138.267 39.0155 163.638 39.0155 163.638C35.3673 164.586 31.8171 162.945 31.8171 162.945C31.8171 162.945 31.2617 145.952 31.621 137.665Z" fill="#455A64"/>
<path d="M48.3828 103.98L48.8947 100.607C50.4683 100.362 54.4541 97.7669 56.8119 95.4951C55.1323 98.1459 52.8599 100.331 50.1906 101.862L50.1089 128.43L48.3828 103.98Z" fill="#37474F"/>
<path d="M59.4655 68.603C57.6305 64.2355 54.4723 56.8805 54.4723 56.8805L53.6719 44.9536C54.8403 44.9924 56.0056 45.1005 57.1622 45.2773C58.8611 45.5556 61.5564 47.2481 62.787 50.44C63.7072 52.8083 68.4881 67.257 68.4881 67.257L76.8191 62.6793C78.9536 61.2651 79.7105 58.9195 81.0718 57.5678C82.433 56.216 83.7943 56.0116 85.3026 54.9268C86.8109 53.842 87.4044 52.973 87.7856 54.0578C88.1668 55.1426 86.4788 56.8067 86.1521 57.2213C85.8254 57.6359 84.1864 58.5219 86.2773 58.6355C88.3682 58.7491 92.5991 56.625 93.6119 56.2615C94.6247 55.898 94.5376 57.1531 94.0094 57.9312C93.4812 58.7093 93.4268 60.9925 92.5447 62.2704C91.6081 63.6334 91.1017 64.2184 89.0924 65.0306C87.2248 65.7803 83.3533 65.9734 81.3604 67.1718C79.3674 68.3701 74.5431 72.9194 71.325 75.2537C67.007 78.3887 64.5785 78.5932 62.885 76.0942C61.1916 73.5953 60.1135 70.1421 59.4655 68.603Z" fill="#FFA8A7"/>
<path d="M52.5469 44.6979C55.3783 44.4708 58.7162 44.6525 60.5621 46.4018C62.0377 47.8046 62.5931 48.6736 64.2376 53.5239C65.3266 56.7782 67.6571 64.2751 67.6571 64.2751C64.4573 65.0281 61.5858 66.8631 59.4894 69.4946L54.1804 57.0508L52.5469 44.6979Z" fill="#E0E0E0"/>
<path d="M68.4917 67.2284C67.0568 67.7583 65.8222 68.7535 64.9688 70.0682C64.9688 70.0682 65.1702 67.7964 68.2358 66.439L68.4917 67.2284Z" fill="#F28F8F"/>
<path d="M45.7608 44.1642C44.4197 44.1065 43.0778 44.2597 41.7804 44.6185C39.292 45.3058 34.8324 46.612 34.8324 46.612C33.4167 47.3788 32.8667 49.9345 32.5455 51.4055C31.5218 56.1138 34.179 66.7401 34.5874 70.8805C34.9958 75.0208 34.1137 87.7031 34.1137 87.7031C37.1575 91.3834 53.6508 93.8256 61.6824 87.7031C61.6824 87.7031 62.0308 58.5844 61.2413 54.4043C60.0434 48.0774 58.2628 45.0729 51.9846 44.6924L45.7608 44.1642Z" fill="#F5F5F5"/>
<path d="M49.2902 28.5455L47.4987 29.5735C47.3748 29.3162 47.3492 29.0194 47.427 28.7432C47.5048 28.467 47.6803 28.2319 47.918 28.0854C48.0364 28.0184 48.1666 27.9771 48.3008 27.964C48.4349 27.9509 48.5702 27.9663 48.6984 28.0093C48.8267 28.0523 48.9453 28.122 49.047 28.2142C49.1487 28.3063 49.2314 28.419 49.2902 28.5455Z" fill="#263238"/>
<path d="M57.0789 29.2952L55.4453 27.9833C55.5221 27.868 55.6205 27.7703 55.7346 27.696C55.8487 27.6218 55.9761 27.5725 56.1091 27.5512C56.2421 27.53 56.3778 27.5372 56.508 27.5724C56.6382 27.6076 56.7602 27.6701 56.8665 27.7561C57.0829 27.9364 57.2253 28.1959 57.2648 28.4818C57.3042 28.7678 57.2377 29.0586 57.0789 29.2952Z" fill="#263238"/>
<path d="M41.0549 22.5991C41.0549 22.5991 39.1273 22.8774 38.4194 24.4109C37.8096 25.7285 38.0274 28.909 38.8496 32.3622C39.3142 34.6026 40.0079 36.7847 40.9187 38.8708C41.2405 39.4619 41.7663 39.9027 42.3889 40.1033L42.2855 35.98L42.1439 33.1402C42.1439 33.1402 43.9027 30.6299 44.0987 28.5967C44.3492 25.95 43.8155 24.8652 43.8155 24.8652L41.0549 22.5991Z" fill="#263238"/>
<path d="M44.1641 26.5747C44.1713 28.6098 44.9522 30.5588 46.3354 31.9941C47.7186 33.4293 49.5912 34.2337 51.5422 34.2307C55.6043 34.2307 58.6536 30.7378 58.6209 26.4952C58.5882 22.2526 55.539 18.8563 51.4715 18.8734C49.5247 18.8884 47.6628 19.7071 46.2933 21.1504C44.9239 22.5937 44.1583 24.5441 44.1641 26.5747Z" fill="#263238"/>
<path d="M42.2888 32.6575C41.6245 33.2595 41.0854 31.709 40.53 31.1013C39.9746 30.4936 38.1505 29.6758 37.263 31.6693C36.3754 33.6628 38.0579 36.5536 39.441 37.1102C39.8585 37.2751 40.3171 37.2886 40.7428 37.1484C41.1686 37.0083 41.5367 36.7228 41.7879 36.3378V45.425C43.8842 49.3665 47.5815 49.2416 49.5581 49.0201C51.5346 48.7986 51.9648 46.6574 50.5218 44.9309V42.0911C51.6201 42.2709 52.7337 42.3261 53.8434 42.2558C55.6512 41.9605 56.5659 40.552 57.1105 38.4903C57.9817 35.2019 58.3356 29.6815 57.1105 23.3034C55.0849 21.6677 48.0606 21.9403 43.808 24.7517C44.1402 30.4709 42.9204 32.0612 42.2888 32.6575Z" fill="#FFA8A7"/>
<path d="M57.4685 20.1456C57.7421 18.9616 57.8648 17.7452 57.8334 16.5278C57.8334 16.0507 57.719 15.4714 57.2889 15.2896C56.8587 15.1079 56.434 15.4373 56.0637 15.6986C54.4955 16.8004 52.5462 17.1128 50.6567 17.2207C47.3896 17.4081 42.3964 17.1866 40.7357 20.918C40.2728 21.9517 40.1912 23.0421 41.1059 23.7578C41.9215 24.3276 42.8541 24.6895 43.8285 24.8141C45.462 25.1152 47.0956 25.49 48.7727 25.7229C50.4498 25.9557 52.4427 26.1829 54.1035 25.649C55.5029 25.2003 56.924 24.8141 57.9641 23.6555C58.8655 22.6453 59.3741 21.3211 59.3907 19.9411C59.3907 19.748 59.3526 19.5038 59.1674 19.4527C59.0749 19.4406 58.9812 19.4605 58.9006 19.5095L57.4685 20.1456Z" fill="#263238"/>
<path d="M50.4991 42.1535C50.4991 42.1535 46.4588 41.3187 45.054 40.5406C44.2218 40.0909 43.5388 39.3903 43.0938 38.53C43.3007 39.3894 43.671 40.1968 44.1828 40.9041C45.2228 42.2785 50.4882 43.2724 50.4882 43.2724L50.4991 42.1535Z" fill="#F28F8F"/>
<path d="M49.6933 31.3343C49.6879 31.5206 49.6301 31.7011 49.527 31.8533C49.4238 32.0055 49.28 32.1226 49.1135 32.1901C48.9469 32.2575 48.765 32.2723 48.5904 32.2326C48.4159 32.1928 48.2564 32.1003 48.1319 31.9666C48.0075 31.8329 47.9235 31.6639 47.8906 31.4807C47.8576 31.2976 47.8772 31.1083 47.9467 30.9367C48.0163 30.765 48.1328 30.6185 48.2817 30.5155C48.4306 30.4125 48.6053 30.3575 48.7839 30.3574C49.0285 30.3619 49.2614 30.4672 49.4318 30.6502C49.6022 30.8332 49.6962 31.0792 49.6933 31.3343Z" fill="#263238"/>
<path d="M50.999 37.894C51.0034 38.134 50.9165 38.3661 50.7573 38.5396C50.5982 38.713 50.3797 38.8138 50.1496 38.8197C49.918 38.8152 49.6975 38.7154 49.5363 38.5419C49.3751 38.3684 49.2863 38.1355 49.2892 37.894C49.2871 37.7754 49.3073 37.6575 49.3488 37.5471C49.3903 37.4366 49.4523 37.3358 49.5312 37.2504C49.6101 37.1649 49.7043 37.0965 49.8086 37.0491C49.9128 37.0016 50.025 36.9761 50.1387 36.9739C50.3693 36.9784 50.5889 37.0774 50.7499 37.2497C50.911 37.4219 51.0005 37.6534 50.999 37.894Z" fill="#B16668"/>
<path d="M48.5467 28.3524L46.6735 29.5849C46.519 29.3167 46.4701 28.9965 46.5371 28.6915C46.6041 28.3865 46.7818 28.1204 47.0329 27.9492C47.1571 27.8698 47.2953 27.8172 47.4394 27.7945C47.5834 27.7718 47.7304 27.7795 47.8715 27.8171C48.0127 27.8547 48.1451 27.9214 48.2611 28.0134C48.3771 28.1053 48.4742 28.2206 48.5467 28.3524Z" fill="#263238"/>
<path d="M55.1581 27.1484L57.1293 28.0685C57.0761 28.2035 56.9972 28.3258 56.8975 28.428C56.7977 28.5303 56.6791 28.6104 56.5488 28.6635C56.4185 28.7166 56.2792 28.7416 56.1394 28.7369C55.9996 28.7323 55.8621 28.6981 55.7353 28.6365C55.478 28.5088 55.2759 28.2852 55.169 28.0096C55.0621 27.7341 55.0583 27.4268 55.1581 27.1484Z" fill="#263238"/>
<path d="M56.198 31.0503C56.1916 31.2293 56.135 31.4024 56.0351 31.5481C55.9352 31.6938 55.7964 31.8057 55.6361 31.8699C55.4758 31.9341 55.3009 31.9477 55.1332 31.9091C54.9655 31.8705 54.8123 31.7814 54.6927 31.6529C54.5732 31.5243 54.4924 31.3619 54.4605 31.1859C54.4287 31.0099 54.4471 30.828 54.5134 30.6628C54.5798 30.4976 54.6913 30.3563 54.8339 30.2566C54.9766 30.1569 55.1442 30.103 55.3159 30.1018C55.5533 30.1063 55.7793 30.2086 55.9445 30.3863C56.1098 30.564 56.201 30.8027 56.198 31.0503Z" fill="#263238"/>
<path d="M51.7422 29.4485L52.0689 35.7641L54.9385 34.9689L51.7422 29.4485Z" fill="#F28F8F"/>
<path d="M0.90205 55.4606C1.84406 55.9887 5.68287 58.8058 7.76836 59.05C8.65047 59.1522 8.89006 59.0046 8.85738 58.766C8.81382 58.4366 8.25297 57.9425 8.11685 57.6756C7.88271 57.2098 6.48331 55.2788 7.02782 54.2679C7.57233 53.2569 8.04606 54.2224 9.342 55.5457C10.6379 56.8691 11.9666 57.3291 13.1046 58.8682C14.2426 60.4074 14.6238 62.8439 16.5078 64.6102L24.0112 69.9546C24.0112 69.9546 27.507 53.0354 29.0425 51.0419C30.676 48.9462 37.6839 53.5125 36.2137 60.1745C34.7435 66.8366 31.3948 78.4 29.0643 80.6661C27.5614 82.1371 24.3978 80.7513 20.4501 77.088C17.33 74.1915 13.0556 69.8467 11.2478 68.3075C9.44001 66.7684 5.68287 65.9392 3.95677 64.8999C2.09998 63.764 1.69159 63.0995 0.978281 61.5944C0.30853 60.1802 0.608012 57.9141 0.210518 57.0508C-0.186977 56.1875 -0.0562932 54.9324 0.90205 55.4606Z" fill="#FFA8A7"/>
<path d="M34.8325 46.6121C37.2392 48.1796 37.359 50.4628 37.4788 53.0753C37.5129 56.1335 37.0489 59.1755 36.1067 62.0716C35.0884 65.36 33.4712 71.3633 33.4712 71.3633C33.4712 71.3633 27.1875 71.5166 23.9531 68.603C23.9531 68.603 25.4288 62.1284 26.4688 57.2441C27.5088 52.3597 28.7721 47.163 34.8325 46.6121Z" fill="#E0E0E0"/>
<path d="M23.9844 69.9661C25.6996 70.96 26.7069 73.0955 27.0173 73.9418C26.943 72.9564 26.6457 72.0035 26.1497 71.1613C25.6537 70.3191 24.9732 69.6117 24.1641 69.0972L23.9844 69.9661Z" fill="#F28F8F"/>
<path d="M89.1719 192.717L131.197 218.024V227.35L89.1719 202.042V192.717Z" fill="#1256DB"/>
<path opacity="0.35" d="M89.1719 192.717L131.197 218.024V227.35L89.1719 202.042V192.717Z" fill="black"/>
<path d="M173.221 192.717L131.195 218.024V227.35L173.221 202.042V192.717Z" fill="#1256DB"/>
<path opacity="0.2" d="M173.221 192.717L131.195 218.024V227.35L173.221 202.042V192.717Z" fill="black"/>
<path d="M173.223 192.717L131.197 167.415L89.1719 192.717L131.197 218.024L173.223 192.717Z" fill="#1256DB"/>
<path opacity="0.15" d="M173.223 192.717L131.197 167.415L89.1719 192.717L131.197 218.024L173.223 192.717Z" fill="black"/>
<path opacity="0.1" d="M131.197 218.024V215.361L93.5933 192.717H89.1719L131.197 218.024Z" fill="black"/>
<path opacity="0.1" d="M131.195 167.415V170.078L168.799 192.717H173.221L131.195 167.415Z" fill="black"/>
<path d="M173.221 192.717H168.799L131.195 215.361V218.024L173.221 192.717Z" fill="#1256DB"/>
<path d="M131.197 167.415V170.078L93.5933 192.717H89.1719L131.197 167.415Z" fill="#1256DB"/>
<path d="M131.348 181.733L149.404 192.603C150.754 193.421 150.754 194.739 149.404 195.551L135.938 203.684C135.18 204.088 134.34 204.299 133.488 204.299C132.636 204.299 131.796 204.088 131.038 203.684L112.982 192.813C111.631 191.995 111.631 190.678 112.982 189.866L126.453 181.733C127.211 181.329 128.049 181.119 128.9 181.119C129.751 181.119 130.59 181.329 131.348 181.733Z" fill="#37474F"/>
<path d="M135.94 203.684L148.959 195.84L131.35 185.237C130.59 184.837 129.75 184.629 128.899 184.629C128.048 184.629 127.209 184.837 126.449 185.237L113.43 193.091L131.039 203.684C131.798 204.088 132.638 204.299 133.49 204.299C134.341 204.299 135.181 204.088 135.94 203.684Z" fill="#455A64"/>
<path d="M120.44 192.734L128.341 187.98C128.488 187.903 128.65 187.863 128.815 187.863C128.979 187.863 129.142 187.903 129.289 187.98L130.258 188.548C130.519 188.701 130.519 188.957 130.258 189.116L122.357 193.87C122.211 193.947 122.049 193.987 121.886 193.987C121.722 193.987 121.561 193.947 121.415 193.87L120.446 193.302C120.389 193.282 120.34 193.244 120.305 193.193C120.27 193.143 120.251 193.082 120.25 193.02C120.249 192.957 120.267 192.896 120.301 192.845C120.336 192.794 120.384 192.755 120.44 192.734Z" fill="#263238"/>
<path d="M132.245 199.85L140.146 195.096C140.292 195.02 140.453 194.979 140.617 194.979C140.78 194.979 140.942 195.02 141.088 195.096L142.062 195.664C142.324 195.818 142.324 196.073 142.062 196.232L134.162 200.986C134.016 201.063 133.854 201.103 133.691 201.103C133.527 201.103 133.366 201.063 133.22 200.986L132.25 200.418C132.194 200.398 132.145 200.36 132.109 200.31C132.074 200.259 132.055 200.198 132.055 200.136C132.054 200.074 132.072 200.013 132.106 199.962C132.14 199.91 132.189 199.871 132.245 199.85Z" fill="#263238"/>
<path d="M112.943 211.135C112.899 210.273 112.66 209.435 112.245 208.687C111.831 207.94 111.253 207.306 110.558 206.836C110.318 206.653 110.035 206.541 109.739 206.511C109.443 206.481 109.145 206.534 108.876 206.666L107.847 207.29C107.604 207.469 107.412 207.711 107.29 207.992C107.167 208.274 107.119 208.584 107.15 208.892C107.195 209.754 107.434 210.593 107.847 211.341C108.26 212.088 108.837 212.724 109.529 213.197C109.77 213.38 110.054 213.492 110.351 213.522C110.648 213.552 110.947 213.499 111.217 213.367L112.241 212.726C112.482 212.548 112.673 212.308 112.797 212.029C112.92 211.75 112.971 211.441 112.943 211.135Z" fill="#1256DB"/>
<path opacity="0.1" d="M109.528 207.478C110.222 207.947 110.8 208.582 111.215 209.329C111.629 210.076 111.868 210.915 111.913 211.777C111.913 213.362 110.824 214.003 109.528 213.214C108.835 212.741 108.259 212.105 107.846 211.358C107.432 210.61 107.194 209.771 107.148 208.909C107.148 207.33 108.216 206.688 109.528 207.478Z" fill="black"/>
<path d="M81.9059 225.618C79.2489 225.666 76.6243 225.004 74.2827 223.693L46.4037 206.904C44.1657 205.552 42.9297 203.689 42.9297 201.656C42.9297 199.623 44.1657 197.766 46.4037 196.414L78.7042 176.962C82.2435 174.832 85.2383 169.431 85.2383 165.166V58.5446C85.2383 58.2433 85.3531 57.9544 85.5573 57.7414C85.7615 57.5284 86.0385 57.4087 86.3274 57.4087C86.6162 57.4087 86.8932 57.5284 87.0974 57.7414C87.3017 57.9544 87.4164 58.2433 87.4164 58.5446V165.166C87.4164 170.311 84.0731 176.36 79.7932 178.933L47.4927 198.385C45.9572 199.311 45.1077 200.469 45.1077 201.656C45.1077 202.843 45.9572 204.008 47.4927 204.933L75.3718 221.722C78.971 223.891 84.83 223.891 88.4401 221.722L108.995 209.352C109.119 209.27 109.258 209.215 109.403 209.19C109.548 209.165 109.696 209.171 109.839 209.207C109.981 209.244 110.116 209.31 110.233 209.402C110.351 209.494 110.449 209.609 110.523 209.742C110.596 209.875 110.643 210.021 110.661 210.174C110.678 210.326 110.667 210.48 110.626 210.627C110.585 210.774 110.516 210.911 110.423 211.03C110.33 211.148 110.215 211.246 110.084 211.317L89.5291 223.693C87.188 225.005 84.5631 225.668 81.9059 225.618Z" fill="#37474F"/>
<path d="M32.9877 17.7715C32.9715 17.6945 32.971 17.6149 32.986 17.5376C33.001 17.4604 33.0312 17.3872 33.0748 17.3228C33.1158 17.2555 33.17 17.1979 33.2338 17.1539C33.2976 17.1098 33.3696 17.0803 33.4451 17.0673L36.0914 16.5334C36.166 16.5157 36.2434 16.5147 36.3185 16.5304C36.3935 16.546 36.4646 16.578 36.527 16.6243C36.6535 16.7151 36.7413 16.8535 36.772 17.0105L37.1804 19.2255C37.1958 19.3028 37.1955 19.3827 37.1795 19.46C37.1636 19.5372 37.1324 19.6102 37.0878 19.6741C37.048 19.7419 36.9949 19.8002 36.932 19.8452C36.8692 19.8902 36.798 19.9209 36.723 19.9354L34.0712 20.4636C33.9974 20.4804 33.9211 20.481 33.847 20.4654C33.7729 20.4497 33.7028 20.4182 33.6411 20.3727C33.5765 20.3299 33.5213 20.2734 33.4791 20.2068C33.4369 20.1403 33.4086 20.0652 33.396 19.9865L32.9877 17.7715ZM30.7769 5.81051C30.7619 5.73254 30.7619 5.65224 30.7768 5.57424C30.7917 5.49624 30.8212 5.4221 30.8637 5.35609C30.9063 5.29008 30.9609 5.23351 31.0245 5.18965C31.0881 5.1458 31.1594 5.11552 31.2343 5.10058L33.8861 4.56671C33.9603 4.5507 34.0369 4.55102 34.111 4.56764C34.185 4.58427 34.255 4.61683 34.3163 4.66326C34.3802 4.70544 34.435 4.76107 34.4772 4.82659C34.5194 4.89211 34.5481 4.96608 34.5613 5.04378L36.2983 14.5115C36.3137 14.5889 36.3133 14.6687 36.2974 14.746C36.2815 14.8233 36.2502 14.8962 36.2057 14.9602C36.1653 15.0269 36.112 15.084 36.0491 15.128C35.9863 15.172 35.9154 15.2019 35.8409 15.2157L33.1891 15.7496C33.1149 15.7656 33.0384 15.7653 32.9643 15.7487C32.8902 15.732 32.8203 15.6995 32.759 15.6531C32.695 15.6109 32.6402 15.5552 32.598 15.4897C32.5558 15.4242 32.5272 15.3502 32.5139 15.2725L30.7769 5.81051Z" fill="#1256DB"/>
<path d="M28.5648 27.0405C28.5139 26.9816 28.4747 26.9129 28.4493 26.8382C28.4239 26.7634 28.4129 26.6842 28.417 26.6051C28.421 26.5259 28.44 26.4484 28.4729 26.3769C28.5057 26.3054 28.5518 26.2414 28.6084 26.1885L30.6177 24.3086C30.6737 24.2548 30.74 24.2138 30.8123 24.1884C30.8845 24.1629 30.961 24.1536 31.0369 24.161C31.1124 24.1627 31.1867 24.1807 31.2551 24.2139C31.3236 24.2472 31.3846 24.2949 31.4344 24.3541L32.8774 26.0579C32.9283 26.1168 32.9676 26.1855 32.993 26.2602C33.0183 26.335 33.0293 26.4142 33.0253 26.4933C33.0212 26.5725 33.0022 26.65 32.9694 26.7215C32.9365 26.793 32.8905 26.857 32.8338 26.9098L30.8518 28.767C30.7957 28.8209 30.7294 28.8619 30.6572 28.8873C30.585 28.9127 30.5084 28.9221 30.4325 28.9147C30.3571 28.913 30.2827 28.895 30.2143 28.8617C30.1459 28.8285 30.0848 28.7808 30.035 28.7216L28.5648 27.0405ZM20.7729 17.9533C20.6704 17.8335 20.6175 17.6763 20.6258 17.516C20.6282 17.4368 20.6463 17.3591 20.6791 17.2877C20.7119 17.2163 20.7587 17.1528 20.8164 17.1014L22.8257 15.2215C22.8813 15.1666 22.9474 15.1246 23.0196 15.0982C23.0919 15.0717 23.1687 15.0615 23.245 15.0681C23.3208 15.0705 23.3954 15.0894 23.4639 15.1237C23.5323 15.1579 23.5931 15.2067 23.6424 15.2669L29.8063 22.4571C29.858 22.5156 29.8972 22.5848 29.9216 22.6601C29.946 22.7354 29.955 22.8153 29.9479 22.8944C29.9463 22.9732 29.929 23.0507 29.8971 23.122C29.8653 23.1934 29.8195 23.2571 29.7628 23.309L27.7481 25.189C27.6926 25.2421 27.6272 25.2826 27.556 25.308C27.4848 25.3334 27.4093 25.3432 27.3342 25.3366C27.2579 25.3357 27.1825 25.3181 27.1131 25.2848C27.0437 25.2515 26.9817 25.2034 26.9313 25.1435L20.7729 17.9533Z" fill="#1256DB"/>
<g opacity="0.6">
<path d="M28.5648 27.0405C28.5139 26.9816 28.4747 26.9129 28.4493 26.8382C28.4239 26.7634 28.4129 26.6842 28.417 26.6051C28.421 26.5259 28.44 26.4484 28.4729 26.3769C28.5057 26.3054 28.5518 26.2414 28.6084 26.1885L30.6177 24.3086C30.6737 24.2548 30.74 24.2138 30.8123 24.1884C30.8845 24.1629 30.961 24.1536 31.0369 24.161C31.1124 24.1627 31.1867 24.1807 31.2551 24.2139C31.3236 24.2472 31.3846 24.2949 31.4344 24.3541L32.8774 26.0579C32.9283 26.1168 32.9676 26.1855 32.993 26.2602C33.0183 26.335 33.0293 26.4142 33.0253 26.4933C33.0212 26.5725 33.0022 26.65 32.9694 26.7215C32.9365 26.793 32.8905 26.857 32.8338 26.9098L30.8518 28.767C30.7957 28.8209 30.7294 28.8619 30.6572 28.8873C30.585 28.9127 30.5084 28.9221 30.4325 28.9147C30.3571 28.913 30.2827 28.895 30.2143 28.8617C30.1459 28.8285 30.0848 28.7808 30.035 28.7216L28.5648 27.0405ZM20.7729 17.9533C20.6704 17.8335 20.6175 17.6763 20.6258 17.516C20.6282 17.4368 20.6463 17.3591 20.6791 17.2877C20.7119 17.2163 20.7587 17.1528 20.8164 17.1014L22.8257 15.2215C22.8813 15.1666 22.9474 15.1246 23.0196 15.0982C23.0919 15.0717 23.1687 15.0615 23.245 15.0681C23.3208 15.0705 23.3954 15.0894 23.4639 15.1237C23.5323 15.1579 23.5931 15.2067 23.6424 15.2669L29.8063 22.4571C29.858 22.5156 29.8972 22.5848 29.9216 22.6601C29.946 22.7354 29.955 22.8153 29.9479 22.8944C29.9463 22.9732 29.929 23.0507 29.8971 23.122C29.8653 23.1934 29.8195 23.2571 29.7628 23.309L27.7481 25.189C27.6926 25.2421 27.6272 25.2826 27.556 25.308C27.4848 25.3334 27.4093 25.3432 27.3342 25.3366C27.2579 25.3357 27.1825 25.3181 27.1131 25.2848C27.0437 25.2515 26.9817 25.2034 26.9313 25.1435L20.7729 17.9533Z" fill="white"/>
</g>
<path d="M80.3997 0.556992C81.3323 0.496038 82.2547 0.788488 82.997 1.38052C83.3149 1.68237 83.5632 2.05522 83.7235 2.47123C83.8838 2.88723 83.9519 3.33563 83.9227 3.78294C83.9504 4.23262 83.8817 4.68309 83.7216 5.10161C83.5615 5.52013 83.314 5.89617 82.997 6.2024C82.2596 6.80689 81.3361 7.10983 80.3997 7.05432H78.2216V10.2632C78.2229 10.3149 78.2139 10.3664 78.1951 10.4143C78.1764 10.4622 78.1483 10.5055 78.1127 10.5415C78.0786 10.5777 78.0379 10.6063 77.9931 10.6258C77.9482 10.6454 77.9 10.6553 77.8514 10.6551H76.7351C76.6856 10.6559 76.6364 10.6463 76.5905 10.6268C76.5446 10.6074 76.5029 10.5786 76.4678 10.542C76.4328 10.5055 76.4051 10.462 76.3865 10.4141C76.3679 10.3662 76.3587 10.3149 76.3594 10.2632V0.960235C76.3594 0.909036 76.3692 0.858348 76.3881 0.811118C76.4071 0.763887 76.4348 0.721057 76.4698 0.68512C76.5047 0.649182 76.5462 0.620854 76.5918 0.601783C76.6373 0.582712 76.6861 0.573277 76.7351 0.57403L80.3997 0.556992ZM78.2216 5.25393H80.3616C80.8023 5.27773 81.2399 5.1651 81.6194 4.9302C81.7856 4.79988 81.9163 4.6265 81.9985 4.42724C82.0806 4.22798 82.1114 4.00978 82.0877 3.7943C82.1142 3.57858 82.0847 3.35939 82.0024 3.1596C81.92 2.9598 81.7878 2.78672 81.6194 2.6584C81.2361 2.43489 80.8002 2.32859 80.3616 2.35171H78.2216V5.25393Z" fill="#455A64"/>
<path d="M85.1709 5.00962C85.2196 4.77999 85.3062 4.56092 85.4268 4.36216C85.5695 4.11396 85.754 3.89464 85.9713 3.7147C86.2419 3.49685 86.5456 3.3279 86.8698 3.21491C87.2684 3.07816 87.6863 3.01287 88.1058 3.0218C88.5359 3.01473 88.9643 3.07994 89.3745 3.21491C89.7328 3.33388 90.0643 3.52705 90.3492 3.78285C90.6255 4.04195 90.8399 4.3648 90.9754 4.72565C91.1294 5.14212 91.2052 5.5856 91.1986 6.03193V10.2631C91.1989 10.3152 91.1888 10.3668 91.1692 10.4147C91.1495 10.4625 91.1206 10.5057 91.0843 10.5414C91.0504 10.5778 91.0097 10.6067 90.9648 10.6262C90.9199 10.6457 90.8716 10.6555 90.8229 10.655H89.7775C89.7279 10.6558 89.6787 10.6462 89.6328 10.6268C89.5869 10.6073 89.5452 10.5785 89.5102 10.542C89.4751 10.5054 89.4475 10.4619 89.4289 10.414C89.4102 10.3661 89.401 10.3148 89.4018 10.2631V9.79175C89.1832 10.0952 88.8973 10.3388 88.5687 10.5017C88.1353 10.715 87.659 10.8163 87.1801 10.797C86.8109 10.8051 86.4429 10.7495 86.0911 10.6323C85.7995 10.5366 85.5305 10.3779 85.3016 10.1666C85.0921 9.96632 84.9252 9.72256 84.8115 9.45098C84.6962 9.16731 84.6387 8.86172 84.6427 8.55362C84.629 8.25699 84.6831 7.9612 84.8005 7.69064C84.9179 7.42008 85.0952 7.18248 85.3179 6.99744C85.8637 6.58123 86.5033 6.31908 87.1747 6.23639L89.4235 5.83315C89.4375 5.67234 89.4106 5.51053 89.3456 5.36398C89.2806 5.21743 89.1798 5.0913 89.0533 4.99826C88.7723 4.8291 88.4519 4.74456 88.1276 4.75405C87.941 4.74417 87.7547 4.77914 87.5831 4.85628C87.4474 4.92747 87.3226 5.01935 87.2128 5.12889C87.1451 5.19419 87.0679 5.24786 86.9841 5.28792C86.9112 5.31771 86.8337 5.33312 86.7554 5.33335H85.4704C85.3839 5.33661 85.2997 5.30393 85.2362 5.24248C85.2048 5.21451 85.1819 5.17757 85.1703 5.13621C85.1587 5.09485 85.1589 5.05086 85.1709 5.00962ZM87.4796 9.07613C87.7628 9.08069 88.0445 9.03458 88.3127 8.93982C88.5384 8.85854 88.7472 8.73327 88.928 8.57066C89.0854 8.42796 89.2117 8.25172 89.2983 8.05383C89.3785 7.87602 89.4212 7.68236 89.4235 7.48588V7.31549L87.545 7.65626C87.2572 7.69218 86.9804 7.79295 86.7336 7.9516C86.6531 8.01099 86.588 8.09039 86.5443 8.18261C86.5006 8.27483 86.4795 8.37697 86.4832 8.47979C86.4822 8.57776 86.5105 8.67362 86.5642 8.75404C86.6179 8.83445 86.6942 8.89542 86.7826 8.92847C87.0025 9.0281 87.2399 9.07841 87.4796 9.07613Z" fill="#455A64"/>
<path d="M96.192 12.092C96.393 12.0912 96.5928 12.0606 96.7856 12.0011C96.9836 11.9403 97.1685 11.84 97.3301 11.7058C97.4971 11.5651 97.6359 11.3914 97.7385 11.1947C97.8466 10.9692 97.9008 10.7197 97.8964 10.4677V9.93381C97.8077 10.0347 97.7112 10.1278 97.6078 10.2121C97.4736 10.3241 97.3275 10.4194 97.1722 10.4961C96.9821 10.5894 96.7831 10.6617 96.5786 10.7119C96.3268 10.7713 96.0691 10.7999 95.8109 10.7971C95.3804 10.8044 94.9539 10.7092 94.5639 10.5188C94.2002 10.34 93.8758 10.0848 93.611 9.76911C93.3434 9.45142 93.1331 9.08583 92.9903 8.69C92.8371 8.28196 92.7506 7.85001 92.7344 7.41212C92.7344 7.27013 92.7344 7.09975 92.7344 6.91232C92.7344 6.7249 92.7344 6.54884 92.7344 6.40685C92.7506 5.96896 92.8371 5.53701 92.9903 5.12897C93.1344 4.73379 93.3445 4.36842 93.611 4.04987C93.8742 3.73479 94.1967 3.4796 94.5585 3.30017C94.9484 3.10972 95.3749 3.01454 95.8054 3.02188C96.0637 3.01905 96.3213 3.04764 96.5732 3.10707C96.7777 3.15726 96.9766 3.22959 97.1667 3.32289C97.322 3.39957 97.4682 3.49487 97.6023 3.60686C97.7057 3.69117 97.8022 3.78425 97.8909 3.88516V3.55575C97.8923 3.45323 97.9316 3.35523 98.0006 3.28221C98.0696 3.20918 98.1629 3.16678 98.2612 3.16387H99.3121C99.4105 3.16806 99.5037 3.21069 99.5733 3.28329C99.6429 3.3559 99.6838 3.45316 99.6878 3.55575V10.3087C99.7196 10.7912 99.6525 11.2752 99.491 11.7286C99.3295 12.182 99.0773 12.5944 98.7512 12.9383C98.0369 13.5616 97.122 13.8783 96.192 13.8243C95.7493 13.8277 95.3086 13.7606 94.8852 13.6255C94.5138 13.5135 94.1625 13.3389 93.8452 13.1086C93.5667 12.9136 93.3264 12.665 93.1373 12.376C92.9703 12.1259 92.8706 11.8337 92.8487 11.5297C92.8442 11.479 92.8512 11.4279 92.8692 11.3805C92.8872 11.3332 92.9156 11.2909 92.9522 11.2571C93.0238 11.1848 93.1193 11.1441 93.219 11.1435H94.161C94.2223 11.1422 94.2832 11.1536 94.3402 11.177C94.3972 11.2004 94.4492 11.2353 94.4932 11.2798C94.5857 11.3707 94.662 11.4559 94.7273 11.5297C94.8569 11.7036 95.0251 11.842 95.2174 11.933C95.5273 12.0592 95.8599 12.1134 96.192 12.092ZM94.5585 6.50908C94.5313 6.77716 94.5313 7.04749 94.5585 7.31557C94.5622 7.82169 94.758 8.30567 95.103 8.66161C95.424 8.93813 95.8304 9.08347 96.2465 9.07053C96.6628 9.08319 97.0686 8.93331 97.3845 8.65025C97.5468 8.49926 97.6786 8.31599 97.7721 8.11118C97.8656 7.90638 97.919 7.68416 97.929 7.45756C97.949 7.26898 97.9581 7.07932 97.9563 6.88961C97.9579 6.6999 97.9488 6.51025 97.929 6.32166C97.9065 5.87875 97.7192 5.46246 97.4071 5.16127C97.0949 4.86007 96.6825 4.69771 96.2574 4.70869C95.8413 4.69574 95.4349 4.84108 95.1139 5.11761C94.9359 5.29826 94.7948 5.51474 94.6994 5.75392C94.6039 5.9931 94.556 6.25001 94.5585 6.50908Z" fill="#455A64"/>
<path d="M101.235 6.91238C101.232 6.3946 101.313 5.88007 101.474 5.39028C101.626 4.93235 101.865 4.51119 102.177 4.15215C102.479 3.79747 102.85 3.51467 103.266 3.32295C103.709 3.12627 104.186 3.0249 104.668 3.0249C105.15 3.0249 105.627 3.12627 106.07 3.32295C106.481 3.50651 106.851 3.77508 107.159 4.11239C107.458 4.45302 107.69 4.85019 107.845 5.28237C108.005 5.73131 108.086 6.20642 108.085 6.6852V7.33266C108.087 7.38362 108.078 7.43439 108.059 7.48146C108.04 7.52852 108.012 7.57077 107.976 7.60528C107.943 7.64327 107.903 7.67353 107.858 7.69409C107.812 7.71464 107.764 7.72502 107.715 7.72455H103.103C103.101 7.92221 103.145 8.11732 103.233 8.2925C103.319 8.4603 103.44 8.60586 103.587 8.71846C103.741 8.83786 103.914 8.92645 104.099 8.97971C104.292 9.037 104.492 9.06568 104.693 9.06491C104.934 9.0717 105.174 9.03912 105.406 8.96836C105.569 8.91614 105.723 8.83757 105.863 8.7355C105.941 8.67261 106.025 8.61925 106.114 8.57647C106.197 8.54375 106.286 8.52832 106.375 8.53103H107.464C107.564 8.53162 107.659 8.57231 107.731 8.64462C107.769 8.67832 107.799 8.72144 107.817 8.77005C107.835 8.81866 107.841 8.87121 107.834 8.92292C107.802 9.10985 107.73 9.28664 107.622 9.43975C107.458 9.68029 107.255 9.88968 107.023 10.0588C106.718 10.2792 106.384 10.4532 106.032 10.5756C105.595 10.7265 105.137 10.7994 104.676 10.7915C104.195 10.7995 103.717 10.7048 103.271 10.5132C102.855 10.336 102.482 10.0621 102.182 9.71237C101.871 9.3651 101.63 8.95548 101.474 8.50832C101.308 7.99446 101.227 7.45471 101.235 6.91238ZM104.622 4.7485C104.387 4.74141 104.154 4.78391 103.936 4.87345C103.759 4.94473 103.597 5.05295 103.462 5.1915C103.336 5.31323 103.234 5.45996 103.162 5.62314C103.096 5.76622 103.052 5.91967 103.032 6.0775H106.152C106.132 5.92288 106.097 5.7707 106.048 5.62314C105.997 5.46149 105.911 5.31397 105.798 5.1915C105.672 5.05201 105.517 4.94339 105.346 4.87345C105.115 4.78165 104.869 4.73916 104.622 4.7485Z" fill="#455A64"/>
<path d="M119.412 10.2633C119.412 10.3144 119.403 10.3653 119.385 10.4128C119.367 10.4603 119.34 10.5036 119.305 10.54C119.271 10.5765 119.23 10.6054 119.184 10.6252C119.139 10.645 119.091 10.6551 119.041 10.6551H117.974C117.926 10.6557 117.877 10.6458 117.832 10.6263C117.787 10.6068 117.747 10.578 117.713 10.5415C117.677 10.5058 117.648 10.4626 117.628 10.4148C117.608 10.3669 117.598 10.3153 117.599 10.2633V6.60567C117.624 6.11317 117.487 5.62638 117.212 5.22555C117.068 5.04704 116.885 4.907 116.678 4.8171C116.472 4.72721 116.248 4.69005 116.025 4.70872C115.808 4.69772 115.592 4.73857 115.393 4.82816C115.194 4.91774 115.017 5.05368 114.876 5.22555C114.578 5.61656 114.428 6.1071 114.451 6.60567V10.2633C114.452 10.315 114.443 10.3664 114.425 10.4143C114.406 10.4622 114.378 10.5055 114.342 10.5415C114.308 10.5777 114.268 10.6064 114.223 10.6259C114.178 10.6454 114.13 10.6553 114.081 10.6551H113.074C113.025 10.6553 112.977 10.6454 112.932 10.6259C112.887 10.6064 112.846 10.5777 112.812 10.5415C112.777 10.5055 112.749 10.4622 112.73 10.4143C112.711 10.3664 112.702 10.315 112.703 10.2633V3.55578C112.702 3.50483 112.71 3.45406 112.729 3.40699C112.748 3.35992 112.776 3.31767 112.812 3.28317C112.845 3.24518 112.886 3.21491 112.931 3.19436C112.976 3.1738 113.024 3.16342 113.074 3.1639H114.125C114.174 3.16342 114.222 3.1738 114.267 3.19436C114.313 3.21491 114.353 3.24518 114.386 3.28317C114.422 3.31767 114.45 3.35992 114.469 3.40699C114.488 3.45406 114.497 3.50483 114.495 3.55578V3.88519C114.742 3.63174 115.027 3.42256 115.339 3.26613C115.697 3.09413 116.088 3.01056 116.482 3.02191C116.966 3.0053 117.447 3.09831 117.893 3.29453C118.248 3.45897 118.56 3.71029 118.802 4.02718C119.038 4.3437 119.205 4.70997 119.292 5.1006C119.391 5.52246 119.441 5.95544 119.439 6.38985L119.412 10.2633Z" fill="#455A64"/>
<path d="M124.406 3.022C124.874 3.01408 125.339 3.09689 125.778 3.26622C126.171 3.42767 126.531 3.66464 126.84 3.9648C127.138 4.25177 127.382 4.59472 127.559 4.97575C127.74 5.36291 127.845 5.78378 127.869 6.21387C127.876 6.32356 127.876 6.43359 127.869 6.54328V7.34409C127.876 7.45189 127.876 7.56002 127.869 7.66782C127.835 8.09678 127.728 8.516 127.553 8.90595C127.382 9.28534 127.139 9.62517 126.84 9.90554C126.529 10.1959 126.169 10.4232 125.778 10.5757C124.897 10.896 123.937 10.896 123.056 10.5757C122.655 10.4271 122.285 10.1996 121.967 9.90554C121.669 9.62495 121.428 9.28507 121.259 8.90595C121.082 8.51632 120.973 8.09711 120.938 7.66782C120.937 7.58074 120.938 7.47283 120.938 7.34409C120.938 7.21346 120.938 7.08283 120.938 6.94653C120.938 6.81022 120.938 6.67959 120.938 6.54328C120.938 6.40698 120.938 6.29907 120.938 6.21387C120.966 5.78466 121.072 5.36482 121.248 4.97575C121.425 4.59472 121.668 4.25177 121.967 3.9648C122.285 3.66905 122.655 3.43963 123.056 3.28894C123.486 3.11461 123.944 3.02413 124.406 3.022ZM126.078 6.25931C126.059 6.00156 125.99 5.75043 125.876 5.52098C125.78 5.33773 125.646 5.17877 125.484 5.05526C125.332 4.93822 125.157 4.85685 124.972 4.81672C124.794 4.77305 124.611 4.7502 124.428 4.74857C124.244 4.74986 124.062 4.77273 123.883 4.81672C123.698 4.85685 123.524 4.93822 123.371 5.05526C123.207 5.17561 123.073 5.33531 122.979 5.52098C122.863 5.74938 122.794 6.00107 122.778 6.25931C122.778 6.33882 122.778 6.43537 122.778 6.54896C122.778 6.66255 122.778 6.7875 122.778 6.91245C122.778 7.0374 122.778 7.15667 122.778 7.27594C122.773 7.37053 122.773 7.46532 122.778 7.55991C122.793 7.81827 122.862 8.0701 122.979 8.29824C123.074 8.48442 123.208 8.64564 123.371 8.76964C123.526 8.88217 123.7 8.96312 123.883 9.00818C124.062 9.04767 124.245 9.0686 124.428 9.07066C124.611 9.06834 124.793 9.04742 124.972 9.00818C125.156 8.96312 125.33 8.88217 125.484 8.76964C125.645 8.64256 125.778 8.48203 125.876 8.29824C125.991 8.06909 126.06 7.8178 126.078 7.55991C126.078 7.49176 126.078 7.39521 126.078 7.27594V6.54896C126.089 6.43537 126.083 6.33882 126.078 6.23659V6.25931Z" fill="#455A64"/>
<path d="M131.796 7.94046C131.784 8.20045 131.865 8.45583 132.025 8.65607C132.141 8.75847 132.277 8.83496 132.423 8.88086C132.569 8.92676 132.723 8.9411 132.874 8.92301H133.718C133.767 8.92216 133.815 8.93181 133.86 8.95136C133.905 8.9709 133.946 8.99992 133.979 9.0366C134.014 9.07198 134.042 9.11439 134.061 9.16125C134.079 9.20811 134.089 9.25845 134.088 9.30922V10.2577C134.089 10.3089 134.08 10.3597 134.062 10.4072C134.043 10.4547 134.016 10.498 133.982 10.5345C133.947 10.5709 133.906 10.5999 133.861 10.6196C133.816 10.6394 133.767 10.6496 133.718 10.6496H132.678C131.958 10.6992 131.246 10.4639 130.685 9.99076C130.437 9.7293 130.245 9.41456 130.125 9.06836C130.005 8.72216 129.958 8.3528 129.988 7.9859V4.89626H129.073C128.975 4.89334 128.882 4.85094 128.813 4.77792C128.744 4.70489 128.704 4.60689 128.703 4.50437V3.5559C128.704 3.45338 128.744 3.35538 128.813 3.28236C128.882 3.20933 128.975 3.16693 129.073 3.16401H129.988V0.818386C129.988 0.715958 130.027 0.617726 130.097 0.545298C130.166 0.472871 130.26 0.432181 130.358 0.432181H131.409C131.458 0.431331 131.506 0.440982 131.551 0.460528C131.596 0.480073 131.637 0.509093 131.671 0.545771C131.706 0.581151 131.733 0.623559 131.752 0.670421C131.771 0.717283 131.78 0.767621 131.78 0.818386V3.16401H133.56C133.659 3.16821 133.752 3.21084 133.821 3.28344C133.891 3.35605 133.932 3.45331 133.936 3.5559V4.53277C133.932 4.63536 133.891 4.73262 133.821 4.80522C133.752 4.87783 133.659 4.92046 133.56 4.92465H131.78L131.796 7.94046Z" fill="#455A64"/>
<path d="M140.835 3.1639H142.752C142.802 3.16368 142.851 3.17415 142.897 3.19467C142.943 3.21518 142.984 3.24531 143.019 3.28317C143.054 3.31855 143.081 3.36096 143.1 3.40782C143.119 3.45468 143.128 3.50502 143.128 3.55579V4.53266C143.128 4.58342 143.119 4.63377 143.1 4.68063C143.081 4.72749 143.054 4.76989 143.019 4.80527C142.984 4.84314 142.943 4.87327 142.897 4.89378C142.851 4.9143 142.802 4.92477 142.752 4.92454H140.835V10.2917C140.836 10.3428 140.827 10.3937 140.809 10.4412C140.79 10.4887 140.763 10.532 140.729 10.5684C140.694 10.6049 140.653 10.6338 140.608 10.6536C140.563 10.6734 140.514 10.6835 140.465 10.6835H139.414C139.365 10.6841 139.317 10.6743 139.272 10.6547C139.227 10.6352 139.187 10.6064 139.153 10.57C139.116 10.5342 139.088 10.491 139.068 10.4432C139.048 10.3953 139.038 10.3437 139.038 10.2917V4.89615H138.113C138.063 4.89699 138.015 4.88678 137.97 4.8662C137.924 4.84562 137.884 4.81515 137.851 4.77688C137.815 4.74237 137.787 4.70012 137.768 4.65305C137.749 4.60598 137.741 4.55522 137.742 4.50426V3.55579C137.741 3.50483 137.749 3.45407 137.768 3.407C137.787 3.35993 137.815 3.31768 137.851 3.28317C137.884 3.2449 137.924 3.21443 137.97 3.19385C138.015 3.17327 138.063 3.16306 138.113 3.1639H139.022V2.51644C139.011 2.11668 139.078 1.71876 139.218 1.34647C139.332 1.0393 139.52 0.76758 139.763 0.557021C140.019 0.350897 140.314 0.20378 140.628 0.125381C140.996 0.0371728 141.373 -0.00477615 141.75 0.00043147H142.872C142.92 -0.000418472 142.969 0.00923076 143.014 0.0287765C143.059 0.0483222 143.099 0.0773438 143.133 0.114022C143.168 0.149402 143.196 0.191808 143.214 0.23867C143.233 0.285532 143.243 0.335872 143.242 0.386637V1.33511C143.243 1.3863 143.234 1.43714 143.215 1.48465C143.197 1.53216 143.17 1.57541 143.135 1.61188C143.101 1.64834 143.06 1.6773 143.015 1.69706C142.969 1.71683 142.921 1.727 142.872 1.727H141.924C141.645 1.70673 141.366 1.77398 141.124 1.9201C141.022 2.01005 140.943 2.12527 140.894 2.25524C140.846 2.3852 140.829 2.52577 140.846 2.66411L140.835 3.1639Z" fill="#455A64"/>
<path d="M147.375 3.022C147.843 3.01408 148.308 3.09689 148.747 3.26622C149.132 3.43016 149.485 3.66701 149.787 3.9648C150.085 4.25177 150.329 4.59472 150.506 4.97575C150.687 5.36291 150.792 5.78378 150.816 6.21387C150.823 6.32356 150.823 6.43359 150.816 6.54328V7.34409C150.823 7.45189 150.823 7.56002 150.816 7.66782C150.782 8.09678 150.675 8.516 150.5 8.90595C150.329 9.28534 150.086 9.62517 149.787 9.90554C149.476 10.1959 149.116 10.4232 148.725 10.5757C148.291 10.7288 147.833 10.7981 147.375 10.7802C146.905 10.788 146.438 10.7052 145.997 10.536C145.606 10.3834 145.246 10.1561 144.935 9.86578C144.638 9.58519 144.397 9.24532 144.228 8.86619C144.049 8.47753 143.94 8.05783 143.906 7.62807C143.906 7.54287 143.906 7.43496 143.906 7.30434C143.906 7.17371 143.906 7.04308 143.906 6.90677C143.906 6.77046 143.906 6.63984 143.906 6.50353C143.906 6.36722 143.906 6.25931 143.906 6.17412C143.93 5.74403 144.035 5.32315 144.217 4.93599C144.391 4.57099 144.627 4.24194 144.914 3.9648C145.224 3.67275 145.584 3.44356 145.975 3.28894C146.422 3.10915 146.896 3.01859 147.375 3.022ZM149.008 6.23659C148.991 5.97924 148.925 5.72813 148.812 5.49826C148.716 5.31342 148.58 5.15412 148.415 5.03254C148.265 4.91562 148.092 4.83422 147.908 4.794C147.73 4.75034 147.547 4.72748 147.364 4.72585C147.181 4.72685 146.998 4.74972 146.819 4.794C146.634 4.83413 146.46 4.9155 146.308 5.03254C146.143 5.1529 146.009 5.31259 145.916 5.49826C145.799 5.72667 145.73 5.97836 145.714 6.23659C145.714 6.3161 145.714 6.41265 145.714 6.52624C145.714 6.63983 145.714 6.76478 145.714 6.88973C145.714 7.01468 145.714 7.13395 145.714 7.25322C145.709 7.34781 145.709 7.4426 145.714 7.53719C145.73 7.79555 145.798 8.04738 145.916 8.27553C146.01 8.46171 146.144 8.62292 146.308 8.74692C146.462 8.85946 146.636 8.9404 146.819 8.98546C146.998 9.02533 147.181 9.04626 147.364 9.04794C147.547 9.04563 147.729 9.0247 147.908 8.98546C148.09 8.94025 148.262 8.85929 148.415 8.74692C148.579 8.62172 148.714 8.46087 148.812 8.27553C148.925 8.04594 148.992 7.79468 149.008 7.53719C149.015 7.44268 149.015 7.34774 149.008 7.25322V6.54896C149.016 6.44498 149.016 6.34057 149.008 6.23659Z" fill="#455A64"/>
<path d="M152.336 3.55571C152.337 3.45319 152.377 3.35519 152.446 3.28216C152.515 3.20914 152.608 3.16674 152.706 3.16382H153.757C153.856 3.16801 153.949 3.21065 154.018 3.28325C154.088 3.35585 154.129 3.45311 154.133 3.55571V7.21329C154.109 7.69988 154.231 8.18214 154.481 8.59341C154.617 8.77401 154.793 8.91642 154.995 9.00768C155.197 9.09894 155.417 9.13615 155.636 9.11592C155.848 9.1285 156.061 9.0876 156.255 8.99666C156.449 8.90573 156.62 8.76743 156.752 8.59341C157.028 8.19258 157.164 7.70579 157.139 7.21329V3.55571C157.143 3.45311 157.184 3.35585 157.253 3.28325C157.323 3.21065 157.416 3.16801 157.514 3.16382H158.56C158.61 3.1636 158.659 3.17407 158.705 3.19458C158.751 3.2151 158.792 3.24522 158.827 3.28309C158.862 3.31847 158.889 3.36088 158.908 3.40774C158.927 3.4546 158.936 3.50494 158.936 3.55571V10.2632C158.936 10.3148 158.927 10.3662 158.908 10.414C158.89 10.4619 158.862 10.5054 158.827 10.542C158.792 10.5785 158.75 10.6074 158.704 10.6268C158.659 10.6462 158.609 10.6558 158.56 10.6551H157.514C157.466 10.6556 157.417 10.6458 157.373 10.6262C157.328 10.6067 157.287 10.5779 157.253 10.5415C157.217 10.5057 157.188 10.4626 157.168 10.4147C157.148 10.3668 157.138 10.3153 157.139 10.2632V9.93377C156.904 10.1607 156.64 10.352 156.355 10.5017C156.005 10.6901 155.615 10.782 155.222 10.7687C154.744 10.7853 154.268 10.6923 153.828 10.496C153.48 10.3326 153.177 10.0807 152.946 9.76338C152.718 9.44418 152.556 9.07846 152.472 8.68996C152.379 8.26715 152.333 7.83451 152.336 7.40072V3.55571Z" fill="#455A64"/>
<path d="M167.58 10.2633C167.58 10.3144 167.571 10.3653 167.553 10.4128C167.535 10.4603 167.508 10.5036 167.473 10.54C167.439 10.5765 167.398 10.6054 167.352 10.6252C167.307 10.645 167.258 10.6551 167.209 10.6551H166.158C166.11 10.6557 166.061 10.6458 166.017 10.6263C165.972 10.6068 165.931 10.578 165.897 10.5415C165.861 10.5058 165.832 10.4626 165.812 10.4148C165.793 10.3669 165.783 10.3153 165.783 10.2633V6.60567C165.808 6.11317 165.672 5.62638 165.396 5.22555C165.252 5.04704 165.069 4.907 164.863 4.8171C164.656 4.72721 164.432 4.69005 164.209 4.70872C163.992 4.69772 163.776 4.73857 163.577 4.82816C163.378 4.91774 163.201 5.05368 163.06 5.22555C162.763 5.61656 162.612 6.1071 162.635 6.60567V10.2633C162.637 10.315 162.628 10.3664 162.609 10.4143C162.59 10.4622 162.562 10.5055 162.527 10.5415C162.492 10.5777 162.452 10.6064 162.407 10.6259C162.362 10.6454 162.314 10.6553 162.265 10.6551H161.214C161.166 10.6553 161.117 10.6454 161.073 10.6259C161.028 10.6064 160.987 10.5777 160.953 10.5415C160.917 10.5055 160.889 10.4622 160.871 10.4143C160.852 10.3664 160.843 10.315 160.844 10.2633V3.55578C160.842 3.50483 160.851 3.45406 160.87 3.40699C160.889 3.35992 160.917 3.31767 160.953 3.28317C160.986 3.24518 161.026 3.21491 161.071 3.19436C161.116 3.1738 161.165 3.16342 161.214 3.1639H162.265C162.314 3.16342 162.363 3.1738 162.408 3.19436C162.453 3.21491 162.494 3.24518 162.527 3.28317C162.563 3.31767 162.591 3.35992 162.61 3.40699C162.629 3.45406 162.637 3.50483 162.635 3.55578V3.88519C162.882 3.63174 163.167 3.42256 163.479 3.26613C163.838 3.09413 164.229 3.01056 164.623 3.02191C165.106 3.0053 165.588 3.09831 166.033 3.29453C166.388 3.45897 166.7 3.71029 166.943 4.02718C167.179 4.3437 167.346 4.70997 167.433 5.1006C167.532 5.52246 167.581 5.95544 167.58 6.38985V10.2633Z" fill="#455A64"/>
<path d="M172.175 3.02198C172.433 3.01863 172.691 3.04723 172.943 3.10718C173.147 3.15736 173.346 3.22969 173.536 3.323C173.692 3.39968 173.838 3.49498 173.972 3.60697C174.076 3.68979 174.173 3.78299 174.26 3.88527V0.818343C174.26 0.767145 174.27 0.716457 174.289 0.669226C174.308 0.621995 174.336 0.579166 174.371 0.543228C174.406 0.50729 174.447 0.478963 174.493 0.459892C174.538 0.44082 174.587 0.431385 174.636 0.432138H175.693C175.741 0.430204 175.79 0.439361 175.835 0.458973C175.88 0.478585 175.921 0.508185 175.954 0.545728C175.991 0.579951 176.02 0.622011 176.04 0.669051C176.059 0.71609 176.069 0.767006 176.068 0.818343V10.2633C176.068 10.3154 176.058 10.367 176.039 10.4148C176.019 10.4627 175.99 10.5059 175.954 10.5416C175.92 10.578 175.879 10.6069 175.834 10.6264C175.789 10.6459 175.741 10.6557 175.693 10.6552H174.647C174.598 10.656 174.548 10.6464 174.502 10.6269C174.457 10.6075 174.415 10.5787 174.38 10.5421C174.345 10.5056 174.317 10.4621 174.298 10.4142C174.28 10.3663 174.271 10.315 174.271 10.2633V9.93392C174.184 10.0362 174.087 10.1294 173.983 10.2122C173.849 10.3242 173.702 10.4195 173.547 10.4962C173.357 10.5895 173.158 10.6618 172.954 10.712C172.702 10.772 172.444 10.8006 172.186 10.7972C171.755 10.8045 171.329 10.7094 170.939 10.5189C170.575 10.3401 170.251 10.0849 169.986 9.76921C169.72 9.4501 169.51 9.08487 169.365 8.69011C169.212 8.28207 169.126 7.85011 169.109 7.41222C169.109 7.27024 169.109 7.09985 169.109 6.91243C169.109 6.72501 169.109 6.54894 169.109 6.40696C169.126 5.96907 169.212 5.53711 169.365 5.12907C169.511 4.73492 169.721 4.3699 169.986 4.04997C170.251 3.73427 170.575 3.47904 170.939 3.30028C171.326 3.11151 171.748 3.01637 172.175 3.02198ZM170.89 6.50919C170.863 6.77727 170.863 7.0476 170.89 7.31567C170.896 7.82129 171.091 8.30438 171.434 8.66171C171.756 8.93732 172.162 9.08254 172.578 9.07063C172.996 9.08253 173.403 8.93284 173.721 8.65035C173.884 8.49937 174.015 8.3161 174.109 8.11129C174.202 7.90648 174.256 7.68426 174.266 7.45766C174.286 7.26909 174.295 7.07943 174.293 6.88971C174.295 6.7 174.286 6.51036 174.266 6.32176C174.243 5.87885 174.056 5.46257 173.744 5.16137C173.432 4.86018 173.019 4.69782 172.594 4.70879C172.178 4.69688 171.772 4.8421 171.451 5.11771C171.273 5.29868 171.131 5.51509 171.035 5.75411C170.939 5.99313 170.889 6.2499 170.89 6.50919Z" fill="#455A64"/>
<path d="M96.9733 24.8426C97.0183 24.8421 97.0628 24.8514 97.1041 24.87C97.1454 24.8886 97.1824 24.916 97.2129 24.9505C97.2447 24.983 97.2698 25.0219 97.2866 25.0649C97.3035 25.1079 97.3118 25.154 97.3109 25.2004V26.5975C97.3118 26.644 97.3035 26.6901 97.2866 26.7331C97.2698 26.776 97.2447 26.815 97.2129 26.8474C97.1824 26.8819 97.1454 26.9093 97.1041 26.9279C97.0628 26.9465 97.0183 26.9559 96.9733 26.9554H90.9837C90.9387 26.9562 90.894 26.947 90.8527 26.9284C90.8114 26.9098 90.7743 26.8822 90.7441 26.8474C90.7116 26.8152 90.6856 26.7765 90.6678 26.7335C90.6501 26.6906 90.6408 26.6443 90.6406 26.5975V18.0783C90.6408 18.0315 90.6501 17.9853 90.6678 17.9423C90.6856 17.8994 90.7116 17.8606 90.7441 17.8284C90.7743 17.7937 90.8114 17.7661 90.8527 17.7474C90.894 17.7288 90.9387 17.7197 90.9837 17.7205H96.8807C96.9709 17.7234 97.0565 17.762 97.1203 17.8285C97.184 17.895 97.2211 17.9843 97.2238 18.0783V19.4698C97.2244 19.5175 97.2155 19.5649 97.1977 19.6089C97.1799 19.6528 97.1535 19.6925 97.1203 19.7254C97.0892 19.7585 97.0519 19.7847 97.0107 19.8023C96.9695 19.8199 96.9253 19.8285 96.8807 19.8276H92.982V21.2532H96.603C96.648 21.2523 96.6927 21.2615 96.734 21.2801C96.7753 21.2987 96.8124 21.3263 96.8426 21.3611C96.8752 21.3933 96.9011 21.432 96.9189 21.475C96.9367 21.5179 96.9459 21.5642 96.9461 21.611V23.0081C96.9459 23.0549 96.9367 23.1012 96.9189 23.1441C96.9011 23.1871 96.8752 23.2258 96.8426 23.258C96.8124 23.2928 96.7753 23.3204 96.734 23.339C96.6927 23.3576 96.648 23.3668 96.603 23.3659H92.982V24.8426H96.9733Z" fill="#1256DB"/>
<path d="M102.538 17.7146C103.042 17.7076 103.543 17.7707 104.03 17.9021C104.436 18.0145 104.817 18.2073 105.152 18.47C105.46 18.7197 105.703 19.0458 105.86 19.4185C106.031 19.8404 106.114 20.2952 106.105 20.7532C106.126 21.3298 105.99 21.9009 105.713 22.4002C105.451 22.8358 105.073 23.1815 104.624 23.3941L106.192 26.5349C106.216 26.5801 106.229 26.6308 106.23 26.6825C106.23 26.7594 106.201 26.833 106.149 26.8874C106.097 26.9417 106.026 26.9722 105.953 26.9722H104.232C104.167 26.979 104.102 26.972 104.04 26.9515C103.979 26.931 103.921 26.8974 103.873 26.8529C103.805 26.7818 103.746 26.7016 103.698 26.6144L102.293 23.7746H101.09V26.6144C101.091 26.6608 101.083 26.7069 101.066 26.7499C101.049 26.7929 101.024 26.8318 100.992 26.8643C100.962 26.8988 100.924 26.9262 100.883 26.9448C100.842 26.9633 100.797 26.9727 100.752 26.9722H99.1189C99.074 26.9727 99.0294 26.9633 98.9881 26.9448C98.9469 26.9262 98.9098 26.8988 98.8793 26.8643C98.8475 26.8318 98.8224 26.7929 98.8056 26.7499C98.7887 26.7069 98.7805 26.6608 98.7813 26.6144V18.0952C98.7805 18.0487 98.7887 18.0026 98.8056 17.9597C98.8224 17.9167 98.8475 17.8778 98.8793 17.8453C98.9098 17.8108 98.9469 17.7834 98.9881 17.7648C99.0294 17.7462 99.074 17.7369 99.1189 17.7374L102.538 17.7146ZM101.106 21.6903H102.538C102.845 21.703 103.15 21.6305 103.421 21.4801C103.54 21.3976 103.635 21.2823 103.695 21.147C103.756 21.0118 103.779 20.8617 103.764 20.7134C103.78 20.5658 103.756 20.4165 103.696 20.2821C103.635 20.1477 103.54 20.0336 103.421 19.9524C103.15 19.802 102.845 19.7295 102.538 19.7422H101.09L101.106 21.6903Z" fill="#1256DB"/>
<path d="M111.332 17.7146C111.835 17.7076 112.337 17.7707 112.824 17.9021C113.23 18.0145 113.61 18.2073 113.946 18.47C114.255 18.7181 114.499 19.0446 114.654 19.4185C114.825 19.8404 114.908 20.2952 114.899 20.7532C114.92 21.3298 114.784 21.9009 114.507 22.4002C114.245 22.8358 113.866 23.1815 113.418 23.3941L114.986 26.5349C115.01 26.5801 115.023 26.6308 115.024 26.6825C115.024 26.7594 114.995 26.833 114.943 26.8874C114.891 26.9417 114.82 26.9722 114.746 26.9722H113.026C112.961 26.979 112.896 26.972 112.834 26.9515C112.772 26.931 112.715 26.8974 112.666 26.8529C112.598 26.7818 112.54 26.7016 112.492 26.6144L111.087 23.7746H109.927V26.6144C109.927 26.6612 109.918 26.7074 109.9 26.7504C109.882 26.7933 109.856 26.8321 109.824 26.8643C109.793 26.8988 109.756 26.9262 109.715 26.9448C109.674 26.9633 109.629 26.9727 109.584 26.9722H107.924C107.879 26.9727 107.834 26.9633 107.793 26.9448C107.752 26.9262 107.714 26.8988 107.684 26.8643C107.652 26.8318 107.627 26.7929 107.61 26.7499C107.593 26.7069 107.585 26.6608 107.586 26.6144V18.0952C107.585 18.0487 107.593 18.0026 107.61 17.9597C107.627 17.9167 107.652 17.8778 107.684 17.8453C107.714 17.8108 107.752 17.7834 107.793 17.7648C107.834 17.7462 107.879 17.7369 107.924 17.7374L111.332 17.7146ZM109.906 21.6903H111.332C111.639 21.703 111.943 21.6305 112.214 21.4801C112.334 21.3976 112.429 21.2823 112.489 21.147C112.55 21.0118 112.573 20.8617 112.557 20.7134C112.574 20.5658 112.55 20.4165 112.489 20.2821C112.429 20.1477 112.334 20.0336 112.214 19.9524C111.943 19.802 111.639 19.7295 111.332 19.7422H109.906V21.6903Z" fill="#1256DB"/>
<path d="M116.066 21.1623C116.09 20.683 116.195 20.2119 116.377 19.7708C116.554 19.3391 116.818 18.9518 117.15 18.635C117.502 18.298 117.915 18.0373 118.364 17.8682C119.432 17.4896 120.591 17.4896 121.659 17.8682C122.107 18.0387 122.52 18.2992 122.873 18.635C123.204 18.952 123.466 19.3393 123.641 19.7708C123.827 20.2101 123.933 20.6822 123.951 21.1623C123.951 21.5372 123.978 21.9347 123.978 22.3493C123.978 22.7639 123.978 23.1501 123.951 23.4852C123.932 23.9671 123.827 24.4409 123.641 24.8824C123.461 25.3112 123.2 25.6976 122.873 26.0183C122.518 26.3555 122.101 26.6144 121.648 26.7793C120.578 27.1505 119.423 27.1505 118.353 26.7793C117.903 26.6143 117.49 26.3554 117.139 26.0183C116.811 25.6979 116.548 25.3115 116.366 24.8824C116.185 24.4392 116.08 23.9663 116.056 23.4852C116.056 23.1274 116.056 22.7412 116.056 22.3493C116.056 21.9575 116.05 21.5372 116.066 21.1623ZM121.62 23.4341C121.62 23.2751 121.62 23.099 121.648 22.9059C121.675 22.7128 121.648 22.514 121.648 22.3096C121.648 22.1051 121.648 21.912 121.648 21.7416C121.648 21.5712 121.648 21.3838 121.62 21.2305C121.607 21.024 121.563 20.821 121.49 20.6284C121.421 20.4472 121.318 20.2828 121.185 20.1457C121.046 20.0046 120.881 19.8944 120.7 19.822C120.481 19.7383 120.248 19.6978 120.014 19.7027C119.782 19.6972 119.551 19.7377 119.334 19.822C119.15 19.893 118.983 20.0033 118.843 20.1457C118.713 20.2843 118.609 20.4483 118.539 20.6284C118.466 20.821 118.422 21.024 118.408 21.2305C118.408 21.3819 118.397 21.5523 118.375 21.7416C118.375 21.9291 118.375 22.1278 118.375 22.3096C118.375 22.4913 118.375 22.7128 118.375 22.9059C118.375 23.099 118.375 23.2751 118.408 23.4341C118.428 23.8407 118.582 24.2277 118.843 24.5303C118.998 24.6841 119.183 24.8021 119.385 24.8765C119.586 24.9509 119.801 24.98 120.014 24.9619C120.227 24.9806 120.441 24.9518 120.642 24.8774C120.842 24.803 121.026 24.6846 121.179 24.5303C121.436 24.2284 121.591 23.8475 121.62 23.4455V23.4341Z" fill="#1256DB"/>
<path d="M129.216 17.7148C129.719 17.7082 130.22 17.7713 130.708 17.9022C131.112 18.0142 131.491 18.2071 131.824 18.4702C132.134 18.7196 132.379 19.0456 132.537 19.4187C132.708 19.8406 132.792 20.2954 132.782 20.7533C132.804 21.33 132.668 21.9011 132.39 22.4004C132.122 22.841 131.733 23.1873 131.274 23.3943L132.842 26.5351C132.868 26.5801 132.882 26.6306 132.886 26.6827C132.885 26.7212 132.877 26.7591 132.862 26.7943C132.847 26.8294 132.826 26.861 132.799 26.8872C132.773 26.9146 132.743 26.9364 132.709 26.951C132.675 26.9657 132.639 26.9729 132.603 26.9724H130.882C130.817 26.9792 130.752 26.9722 130.69 26.9517C130.629 26.9311 130.571 26.8976 130.523 26.8531C130.456 26.7821 130.399 26.7018 130.354 26.6146L128.949 23.7748H127.773V26.6146C127.77 26.7086 127.733 26.7979 127.669 26.8644C127.605 26.9309 127.52 26.9695 127.43 26.9724H125.796C125.706 26.9695 125.62 26.9309 125.557 26.8644C125.493 26.7979 125.456 26.7086 125.453 26.6146V18.0953C125.456 18.0014 125.493 17.912 125.557 17.8455C125.62 17.779 125.706 17.7404 125.796 17.7375L129.216 17.7148ZM127.784 21.6905H129.216C129.521 21.7033 129.823 21.6307 130.092 21.4803C130.213 21.3994 130.31 21.2846 130.372 21.1491C130.434 21.0135 130.457 20.8626 130.441 20.7136C130.457 20.5654 130.433 20.4155 130.371 20.2809C130.31 20.1463 130.213 20.0325 130.092 19.9525C129.823 19.8021 129.521 19.7296 129.216 19.7424H127.773L127.784 21.6905Z" fill="#1256DB"/>
<path d="M141.094 26.9552C141.049 26.9558 141.003 26.9465 140.961 26.9279C140.919 26.9094 140.881 26.8819 140.849 26.8473C140.817 26.8148 140.792 26.7759 140.776 26.7329C140.759 26.6899 140.75 26.6438 140.751 26.5974V25.2513H136.765C136.721 25.2522 136.677 25.2436 136.636 25.226C136.594 25.2084 136.557 25.1823 136.526 25.1491C136.493 25.1162 136.466 25.0766 136.449 25.0326C136.431 24.9886 136.422 24.9413 136.422 24.8935V23.4964C136.416 23.2935 136.473 23.0939 136.586 22.9284L140.37 17.9532C140.427 17.876 140.497 17.8105 140.577 17.7601C140.66 17.7274 140.749 17.7119 140.838 17.7147H142.75C142.795 17.7138 142.839 17.723 142.881 17.7416C142.922 17.7602 142.959 17.7878 142.989 17.8226C143.022 17.8548 143.048 17.8935 143.065 17.9365C143.083 17.9794 143.093 18.0257 143.093 18.0725V23.1386H144.182C144.272 23.1402 144.358 23.179 144.421 23.2465C144.453 23.279 144.478 23.3179 144.495 23.3609C144.512 23.4038 144.52 23.45 144.519 23.4964V24.8935C144.52 24.9888 144.485 25.0806 144.421 25.1491C144.39 25.1818 144.352 25.2076 144.311 25.2251C144.27 25.2427 144.226 25.2516 144.182 25.2513H143.093V26.5974C143.093 26.6442 143.083 26.6904 143.065 26.7334C143.048 26.7763 143.022 26.8151 142.989 26.8473C142.959 26.882 142.922 26.9096 142.881 26.9282C142.839 26.9469 142.795 26.956 142.75 26.9552H141.094ZM140.838 23.1386V20.7134L138.992 23.1386H140.838Z" fill="#1256DB"/>
<path d="M149.283 17.5954C149.84 17.5821 150.395 17.6804 150.917 17.8851C151.342 18.059 151.728 18.324 152.049 18.6632C152.347 18.9884 152.575 19.3755 152.719 19.7991C152.867 20.2404 152.955 20.7011 152.98 21.1678C152.98 21.5427 152.98 21.9402 152.98 22.3548C152.98 22.7694 152.98 23.1557 152.98 23.4907C152.955 23.9575 152.867 24.4182 152.719 24.8595C152.577 25.2843 152.349 25.6719 152.049 25.9954C151.728 26.3345 151.342 26.5996 150.917 26.7735C149.859 27.1596 148.707 27.1596 147.65 26.7735C147.224 26.5996 146.838 26.3345 146.517 25.9954C146.217 25.6719 145.989 25.2843 145.847 24.8595C145.699 24.4182 145.611 23.9575 145.586 23.4907C145.586 23.1329 145.586 22.7467 145.586 22.3548C145.586 21.963 145.586 21.5427 145.586 21.1678C145.611 20.7011 145.699 20.2404 145.847 19.7991C145.991 19.3755 146.22 18.9884 146.517 18.6632C146.838 18.324 147.224 18.059 147.65 17.8851C148.171 17.6804 148.726 17.5821 149.283 17.5954ZM150.644 23.4453C150.677 22.6956 150.677 21.9573 150.644 21.2246C150.63 21.0211 150.598 20.8195 150.546 20.6226C150.506 20.4478 150.432 20.2835 150.329 20.1398C150.219 19.9996 150.079 19.8886 149.92 19.8161C149.72 19.7301 149.505 19.6894 149.289 19.6968C149.072 19.6899 148.857 19.7306 148.657 19.8161C148.498 19.8886 148.358 19.9996 148.249 20.1398C148.145 20.2845 148.07 20.4483 148.025 20.6226C147.971 20.8185 147.94 21.0207 147.933 21.2246C147.895 21.9643 147.895 22.7056 147.933 23.4453C147.942 23.6501 147.969 23.8536 148.014 24.053C148.059 24.2281 148.137 24.3922 148.243 24.5358C148.355 24.6747 148.497 24.7838 148.657 24.8538C148.857 24.9394 149.072 24.98 149.289 24.9731C149.505 24.9805 149.72 24.9399 149.92 24.8538C150.081 24.7838 150.222 24.6747 150.334 24.5358C150.44 24.3922 150.518 24.2281 150.563 24.053C150.608 23.8536 150.636 23.6501 150.644 23.4453Z" fill="#1256DB"/>
<path d="M158.696 26.9553C158.606 26.9525 158.52 26.9139 158.456 26.8474C158.393 26.7809 158.356 26.6915 158.353 26.5975V25.2515H154.367C154.323 25.2524 154.278 25.2437 154.237 25.2262C154.196 25.2086 154.159 25.1824 154.128 25.1492C154.063 25.0813 154.025 24.9897 154.024 24.8937V23.4965C154.016 23.2926 154.076 23.0922 154.193 22.9286L157.972 17.9533C158.029 17.8745 158.101 17.8087 158.184 17.7602C158.266 17.7269 158.353 17.7115 158.44 17.7148H160.351C160.441 17.7177 160.527 17.7563 160.591 17.8228C160.655 17.8893 160.692 17.9786 160.694 18.0726V23.1387H161.783C161.874 23.1416 161.959 23.1802 162.023 23.2467C162.087 23.3132 162.124 23.4025 162.126 23.4965V24.8937C162.125 24.9897 162.088 25.0813 162.023 25.1492C161.992 25.1824 161.955 25.2086 161.913 25.2262C161.872 25.2437 161.828 25.2524 161.783 25.2515H160.694V26.5975C160.692 26.6915 160.655 26.7809 160.591 26.8474C160.527 26.9139 160.441 26.9525 160.351 26.9553H158.696ZM158.418 23.1387V20.7136L156.572 23.1387H158.418Z" fill="#1256DB"/>
</svg>
