<svg width="400" height="400" viewBox="0 0 400 400" fill="none" xmlns="http://www.w3.org/2000/svg">
<path d="M400 305.92H0V306.12H400V305.92Z" fill="#EBEBEB"/>
<path d="M359.922 318.792H333.426V318.992H359.922V318.792Z" fill="#EBEBEB"/>
<path d="M264.975 320.968H258.023V321.168H264.975V320.968Z" fill="#EBEBEB"/>
<path d="M332.625 311.368H317.273V311.568H332.625V311.368Z" fill="#EBEBEB"/>
<path d="M76.5208 312.712H41.9688V312.912H76.5208V312.712Z" fill="#EBEBEB"/>
<path d="M88.7124 312.712H83.6484V312.912H88.7124V312.712Z" fill="#EBEBEB"/>
<path d="M180.12 316.089H105.176V316.289H180.12V316.089Z" fill="#EBEBEB"/>
<path d="M189.599 270.239H35.1264C33.9163 270.237 32.7565 269.755 31.9015 268.899C31.0466 268.042 30.5664 266.882 30.5664 265.671V48.528C30.5769 47.3248 31.0618 46.1744 31.9156 45.3266C32.7694 44.4788 33.9232 44.0021 35.1264 44H189.599C190.81 44 191.972 44.4813 192.829 45.3379C193.685 46.1946 194.167 47.3565 194.167 48.568V265.671C194.167 266.883 193.685 268.045 192.829 268.902C191.972 269.758 190.81 270.239 189.599 270.239ZM35.1264 44.16C33.9693 44.1621 32.8604 44.6233 32.0429 45.4422C31.2255 46.2611 30.7664 47.3709 30.7664 48.528V265.671C30.7664 266.829 31.2255 267.938 32.0429 268.757C32.8604 269.576 33.9693 270.037 35.1264 270.039H189.599C190.756 270.037 191.866 269.576 192.685 268.758C193.504 267.939 193.964 266.829 193.967 265.671V48.528C193.964 47.3702 193.504 46.2604 192.685 45.4417C191.866 44.623 190.756 44.1621 189.599 44.16H35.1264Z" fill="#EBEBEB"/>
<path d="M362.65 270.239H208.17C206.959 270.237 205.798 269.755 204.942 268.899C204.086 268.043 203.604 266.882 203.602 265.671V48.528C203.614 47.3241 204.101 46.1737 204.956 45.3261C205.811 44.4785 206.966 44.002 208.17 44H362.65C363.852 44.0042 365.003 44.4818 365.855 45.3294C366.707 46.177 367.191 47.3262 367.202 48.528V265.671C367.202 266.88 366.723 268.04 365.869 268.896C365.016 269.752 363.858 270.235 362.65 270.239ZM208.17 44.16C207.012 44.1621 205.902 44.623 205.083 45.4417C204.265 46.2604 203.804 47.3702 203.802 48.528V265.671C203.804 266.829 204.265 267.939 205.083 268.758C205.902 269.576 207.012 270.037 208.17 270.039H362.65C363.808 270.037 364.917 269.576 365.736 268.758C366.555 267.939 367.016 266.829 367.018 265.671V48.528C367.016 47.3702 366.555 46.2604 365.736 45.4417C364.917 44.623 363.808 44.1621 362.65 44.16H208.17Z" fill="#EBEBEB"/>
<path d="M53.432 305.92H161.992L161.992 76.4883H53.432L53.432 305.92Z" fill="#E6E6E6"/>
<path d="M51.0258 305.92H159.586L159.586 76.4883H51.0258L51.0258 305.92Z" fill="#F5F5F5"/>
<path d="M155.258 301.056V81.3521H55.3618L55.3618 301.056H155.258Z" fill="#FAFAFA"/>
<path d="M132.247 301.056L106.935 81.3521H78.3594L103.671 301.056H132.247Z" fill="white"/>
<path d="M57.1836 301.056L57.1836 81.3521H55.3596L55.3596 301.056H57.1836Z" fill="#E6E6E6"/>
<path d="M52.817 106.912L157.793 106.912V100.384L52.817 100.384V106.912Z" fill="#F5F5F5"/>
<path d="M219.383 305.92V172.8H175.551V305.92H219.383Z" fill="#F0F0F0"/>
<path d="M216.977 215.704V176.688H177.961V215.704H216.977Z" fill="#F5F5F5"/>
<path d="M216.977 258.224V219.208H177.961V258.224H216.977Z" fill="#F5F5F5"/>
<path d="M216.977 300.744V261.728H177.961V300.744H216.977Z" fill="#F5F5F5"/>
<path d="M206.105 176.176H188.801C188.796 176.708 188.896 177.236 189.098 177.728C189.299 178.221 189.596 178.668 189.972 179.044C190.349 179.421 190.796 179.718 191.289 179.919C191.781 180.12 192.309 180.221 192.841 180.216H202.025C202.559 180.22 203.088 180.119 203.582 179.918C204.076 179.717 204.526 179.42 204.905 179.044C205.284 178.669 205.586 178.222 205.792 177.73C205.997 177.238 206.104 176.709 206.105 176.176Z" fill="#E6E6E6"/>
<path d="M206.105 218.696H188.801C188.801 219.768 189.226 220.797 189.984 221.556C190.741 222.315 191.769 222.742 192.841 222.744H202.025C202.559 222.747 203.088 222.645 203.582 222.443C204.077 222.241 204.526 221.944 204.905 221.568C205.285 221.191 205.586 220.744 205.791 220.251C205.997 219.759 206.104 219.23 206.105 218.696Z" fill="#E6E6E6"/>
<path d="M206.105 261.216H188.801C188.801 262.288 189.226 263.317 189.984 264.076C190.741 264.835 191.769 265.262 192.841 265.264H202.025C202.559 265.267 203.088 265.165 203.582 264.963C204.077 264.761 204.526 264.464 204.905 264.088C205.285 263.711 205.586 263.264 205.791 262.771C205.997 262.279 206.104 261.75 206.105 261.216Z" fill="#E6E6E6"/>
<path d="M241.273 305.92V172.8H219.377V305.92H241.273Z" fill="#F5F5F5"/>
<path d="M336.391 302.649H348.543V202.425H336.391V302.649Z" fill="#F0F0F0"/>
<path d="M230.175 305.92H346.863V302.648H230.175V305.92Z" fill="#F0F0F0"/>
<path d="M336.392 202.424H228.488V302.648H336.392V202.424Z" fill="#FAFAFA"/>
<path d="M249.598 260.992H315.246C318.346 260.992 321.319 259.761 323.511 257.569C325.703 255.377 326.934 252.404 326.934 249.304C326.934 246.204 325.703 243.231 323.511 241.039C321.319 238.847 318.346 237.616 315.246 237.616H249.598C246.498 237.616 243.525 238.847 241.333 241.039C239.142 243.231 237.91 246.204 237.91 249.304C237.91 252.404 239.142 255.377 241.333 257.569C243.525 259.761 246.498 260.992 249.598 260.992ZM315.262 238.4C316.694 238.4 318.112 238.682 319.435 239.23C320.758 239.778 321.96 240.581 322.973 241.594C323.985 242.606 324.788 243.808 325.336 245.131C325.884 246.454 326.166 247.872 326.166 249.304C326.166 250.736 325.884 252.154 325.336 253.477C324.788 254.8 323.985 256.002 322.973 257.014C321.96 258.027 320.758 258.83 319.435 259.378C318.112 259.926 316.694 260.208 315.262 260.208H249.598C246.706 260.208 243.933 259.059 241.888 257.014C239.843 254.969 238.694 252.196 238.694 249.304C238.694 246.412 239.843 243.639 241.888 241.594C243.933 239.549 246.706 238.4 249.598 238.4H315.262Z" fill="#F0F0F0"/>
<path d="M249.598 290.072H315.246C318.346 290.072 321.319 288.841 323.511 286.649C325.703 284.457 326.934 281.484 326.934 278.384C326.934 275.284 325.703 272.311 323.511 270.12C321.319 267.928 318.346 266.696 315.246 266.696H249.598C246.498 266.696 243.525 267.928 241.333 270.12C239.142 272.311 237.91 275.284 237.91 278.384C237.91 281.484 239.142 284.457 241.333 286.649C243.525 288.841 246.498 290.072 249.598 290.072ZM315.246 267.48C316.703 267.441 318.152 267.693 319.509 268.224C320.866 268.754 322.103 269.55 323.147 270.566C324.191 271.582 325.021 272.797 325.587 274.139C326.154 275.481 326.446 276.923 326.446 278.38C326.446 279.837 326.154 281.279 325.587 282.621C325.021 283.963 324.191 285.178 323.147 286.194C322.103 287.21 320.866 288.007 319.509 288.537C318.152 289.067 316.703 289.32 315.246 289.28H249.598C248.142 289.32 246.693 289.067 245.336 288.537C243.979 288.007 242.742 287.21 241.698 286.194C240.654 285.178 239.824 283.963 239.257 282.621C238.691 281.279 238.399 279.837 238.399 278.38C238.399 276.923 238.691 275.481 239.257 274.139C239.824 272.797 240.654 271.582 241.698 270.566C242.742 269.55 243.979 268.754 245.336 268.224C246.693 267.693 248.142 267.441 249.598 267.48H315.246Z" fill="#F0F0F0"/>
<path d="M272.538 246.784H292.346C292.992 246.782 293.612 246.524 294.069 246.067C294.526 245.61 294.784 244.99 294.786 244.344C294.784 243.697 294.526 243.078 294.069 242.621C293.612 242.164 292.992 241.906 292.346 241.904H272.538C271.891 241.906 271.272 242.164 270.815 242.621C270.358 243.078 270.1 243.697 270.098 244.344C270.1 244.99 270.358 245.61 270.815 246.067C271.272 246.524 271.891 246.782 272.538 246.784Z" fill="#EBEBEB"/>
<path d="M249.598 231.912H315.246C318.346 231.912 321.319 230.68 323.511 228.488C325.703 226.297 326.934 223.324 326.934 220.224C326.934 217.124 325.703 214.151 323.511 211.959C321.319 209.767 318.346 208.536 315.246 208.536H249.598C246.498 208.536 243.525 209.767 241.333 211.959C239.142 214.151 237.91 217.124 237.91 220.224C237.91 223.324 239.142 226.297 241.333 228.488C243.525 230.68 246.498 231.912 249.598 231.912ZM315.246 209.32C318.138 209.32 320.912 210.469 322.957 212.513C325.001 214.558 326.15 217.332 326.15 220.224C326.15 223.116 325.001 225.889 322.957 227.934C320.912 229.979 318.138 231.128 315.246 231.128H249.598C246.706 231.128 243.933 229.979 241.888 227.934C239.843 225.889 238.694 223.116 238.694 220.224C238.694 217.332 239.843 214.558 241.888 212.513C243.933 210.469 246.706 209.32 249.598 209.32H315.246Z" fill="#F0F0F0"/>
<path d="M272.538 217.704H292.346C292.992 217.702 293.612 217.444 294.069 216.987C294.526 216.53 294.784 215.91 294.786 215.264C294.775 214.624 294.513 214.013 294.057 213.564C293.601 213.115 292.986 212.864 292.346 212.864H272.538C271.897 212.864 271.283 213.115 270.826 213.564C270.37 214.013 270.108 214.624 270.098 215.264C270.1 215.91 270.358 216.53 270.815 216.987C271.272 217.444 271.891 217.702 272.538 217.704Z" fill="#EBEBEB"/>
<path d="M272.538 275.857H292.346C292.986 275.857 293.601 275.605 294.057 275.156C294.513 274.707 294.775 274.097 294.786 273.457C294.773 272.817 294.511 272.208 294.055 271.759C293.599 271.311 292.985 271.058 292.346 271.057H272.538C271.898 271.058 271.285 271.311 270.829 271.759C270.373 272.208 270.11 272.817 270.098 273.457C270.108 274.097 270.37 274.707 270.826 275.156C271.283 275.605 271.897 275.857 272.538 275.857Z" fill="#EBEBEB"/>
<path d="M226.263 202.424H336.383V197.328H226.263V202.424Z" fill="#F0F0F0"/>
<path d="M350.927 197.336H336.391V202.432H350.927V197.336Z" fill="#E6E6E6"/>
<path d="M257.598 117.112C260.054 118.344 266.71 117.016 264.494 121.52C263.218 123.879 261.692 126.095 259.942 128.128C257.462 131.192 257.934 134.528 260.862 135.712C261.49 135.927 262.045 136.316 262.462 136.832C263.814 138.768 260.63 141.36 259.062 143.296C257.494 145.232 256.87 147.136 258.022 148.576C259.302 150.176 261.958 149.576 264.07 150.056C269.142 151.216 263.926 158.216 264.462 161.808C264.83 164.272 266.862 164.96 269.542 165.304C271.758 165.592 274.71 165.792 274.83 168.056C274.942 170.024 272.382 172.248 271.71 174.312C271.391 175.2 271.27 176.147 271.356 177.087C271.442 178.027 271.732 178.936 272.206 179.752C272.656 180.44 273.244 181.026 273.933 181.475C274.621 181.924 275.395 182.225 276.206 182.36C278.718 182.888 282.518 182.36 282.702 185.176C282.782 186.44 281.902 187.576 282.51 188.728C282.847 189.214 283.285 189.621 283.795 189.921C284.305 190.22 284.874 190.406 285.462 190.464C287.868 190.831 290.319 190.788 292.71 190.336C295.662 189.792 300.022 187.192 298.422 184.688C298.146 184.329 297.802 184.028 297.409 183.803C297.017 183.578 296.583 183.433 296.134 183.376C295.43 183.232 293.366 183.456 293.102 182.976C292.838 182.496 293.55 180.648 293.574 179.984C293.647 178.14 293.356 176.3 292.718 174.568C291.903 172.304 290.604 170.245 288.91 168.536C288.206 167.824 287.094 167.304 286.95 166.272C286.806 165.24 287.454 164.104 288.174 163.072C289.302 161.472 291.054 159.968 291.686 158.272C292.678 155.6 290.27 154.752 288.038 154.144C286.022 153.592 283.366 152.888 284.038 150.44C284.534 148.672 286.766 147.24 287.43 145.496C288.334 143.184 286.142 143.096 284.582 142.296C282.542 141.224 282.03 139.304 282.766 136.88C283.99 132.88 291.326 127.224 287.566 124.624C286.614 123.96 285.726 123.744 285.166 122.744C284.606 121.744 284.462 120.344 283.662 119.4C282.398 117.872 279.782 117.616 278.422 116.2C275.614 113.288 281.67 108.128 276.142 106.896C274.975 106.746 273.87 106.284 272.942 105.56C272.438 105.088 272.022 102.808 271.454 102.648C268.918 101.944 264.35 106.864 262.91 108.376C261.158 110.2 254.686 115.64 257.598 117.112Z" fill="#E0E0E0"/>
<path d="M301.112 184.968C299.608 182.176 293.024 179.368 297.392 176.168C299.748 174.565 302.282 173.241 304.944 172.224C308.768 170.624 310.128 166.944 308.192 163.896C307.747 163.255 307.472 162.512 307.392 161.736C307.232 158.92 311.432 158.248 313.848 157.232C316.264 156.216 317.848 154.664 317.584 152.472C317.312 150.072 314.656 149 313.048 147.2C309.192 142.864 317.544 138.936 318.992 134.92C319.984 132.168 318.592 130.224 316.384 128.184C314.584 126.512 312.08 124.48 313.184 122.08C314.144 120 317.592 119.312 319.288 117.616C320.071 116.849 320.693 115.935 321.119 114.925C321.544 113.916 321.765 112.832 321.768 111.736C321.73 109.817 320.974 107.981 319.648 106.592C317.712 104.488 314.048 102.688 315.416 99.6721C316.024 98.3281 317.408 97.7281 317.488 96.1521C317.464 95.4697 317.303 94.799 317.016 94.1795C316.729 93.5599 316.321 93.0039 315.816 92.5441C313.943 90.708 311.753 89.2256 309.352 88.1681C306.456 86.8881 301.216 86.8482 301.288 90.4081C301.378 91.4563 301.844 92.4366 302.6 93.1681C303.152 93.7601 305.088 94.8081 305.064 95.4641C305.04 96.1201 303.464 97.5681 303.04 98.2321C301.98 100.119 301.257 102.177 300.904 104.312C300.409 107.143 300.455 110.042 301.04 112.856C301.272 114.016 301.984 115.256 301.552 116.392C301.12 117.528 299.952 118.296 298.776 118.88C296.928 119.808 294.568 120.28 293.104 121.624C290.792 123.744 292.464 126.112 294.112 128.12C295.6 129.936 297.56 132.304 295.648 134.392C294.264 135.896 291.52 135.992 290.048 137.344C288.016 139.16 289.896 140.608 290.848 142.432C292.064 144.832 291.496 147.072 289.544 149.096C286.344 152.44 276.824 153.672 278.752 158.696C279.24 159.968 279.896 160.744 279.872 162.12C279.848 163.496 279.216 165 279.408 166.48C279.704 168.832 281.872 170.72 282.32 173.016C283.232 177.744 275.12 179.272 279.344 183.96C280.331 184.885 281.063 186.047 281.472 187.336C281.672 188.136 280.808 190.72 281.224 191.24C283.088 193.536 289.752 191.344 291.832 190.68C294.288 189.84 302.912 188.288 301.112 184.968Z" fill="#F5F5F5"/>
<path d="M317.977 178.672C317.977 178.672 317.177 197.336 286.633 197.336C256.089 197.336 255.289 178.672 255.289 178.672H317.977Z" fill="#F0F0F0"/>
<path d="M199.998 342.048C285.664 342.048 355.11 337.993 355.11 332.992C355.11 327.99 285.664 323.936 199.998 323.936C114.333 323.936 44.8867 327.99 44.8867 332.992C44.8867 337.993 114.333 342.048 199.998 342.048Z" fill="#F5F5F5"/>
<g opacity="0.2">
<path d="M288.584 326.296L237.632 232.12L186.68 326.296H288.584Z" fill="#407BFF"/>
<path d="M288.584 166.976L237.632 261.144L186.68 166.976H288.584Z" fill="#407BFF"/>
</g>
<path d="M246.969 222.576L239.513 236.352C239.33 236.691 239.058 236.975 238.727 237.172C238.396 237.37 238.018 237.474 237.633 237.474C237.247 237.474 236.869 237.37 236.538 237.172C236.207 236.975 235.936 236.691 235.753 236.352L228.297 222.576C227.625 221.331 227.287 219.932 227.318 218.518C227.349 217.103 227.747 215.721 228.473 214.506C229.199 213.291 230.228 212.286 231.459 211.589C232.69 210.891 234.082 210.526 235.497 210.528H239.809C241.22 210.533 242.607 210.903 243.833 211.603C245.058 212.304 246.082 213.31 246.803 214.523C247.524 215.737 247.918 217.116 247.947 218.528C247.977 219.939 247.639 221.334 246.969 222.576Z" fill="#407BFF"/>
<path d="M238.441 302.52L261.601 312.04C262.053 312.23 262.425 312.571 262.656 313.003C262.886 313.436 262.961 313.935 262.867 314.417C262.773 314.898 262.517 315.333 262.14 315.647C261.764 315.962 261.291 316.137 260.801 316.144H214.505C214.014 316.137 213.541 315.962 213.165 315.647C212.788 315.333 212.532 314.898 212.438 314.417C212.344 313.935 212.419 313.436 212.649 313.003C212.88 312.571 213.253 312.23 213.705 312.04L236.801 302.52C237.06 302.411 237.339 302.355 237.621 302.355C237.902 302.355 238.181 302.411 238.441 302.52Z" fill="#407BFF"/>
<path d="M237.632 284.408C239.271 284.408 240.6 283.079 240.6 281.44C240.6 279.801 239.271 278.472 237.632 278.472C235.993 278.472 234.664 279.801 234.664 281.44C234.664 283.079 235.993 284.408 237.632 284.408Z" fill="#407BFF"/>
<path d="M237.633 251.968C238.477 251.968 239.161 251.284 239.161 250.44C239.161 249.596 238.477 248.912 237.633 248.912C236.79 248.912 236.105 249.596 236.105 250.44C236.105 251.284 236.79 251.968 237.633 251.968Z" fill="#407BFF"/>
<path d="M237.634 266.952C238.593 266.952 239.37 266.175 239.37 265.216C239.37 264.257 238.593 263.48 237.634 263.48C236.676 263.48 235.898 264.257 235.898 265.216C235.898 266.175 236.676 266.952 237.634 266.952Z" fill="#407BFF"/>
<path d="M288.329 321.648H186.937C185.706 321.652 184.527 322.143 183.658 323.014C182.788 323.885 182.299 325.065 182.297 326.296C182.301 327.525 182.791 328.703 183.661 329.572C184.53 330.441 185.708 330.932 186.937 330.936H288.329C289.558 330.932 290.736 330.441 291.605 329.572C292.474 328.703 292.965 327.525 292.969 326.296C292.967 325.065 292.477 323.885 291.608 323.014C290.739 322.143 289.56 321.652 288.329 321.648Z" fill="#407BFF"/>
<path d="M288.329 162.336H186.937C185.708 162.34 184.53 162.83 183.661 163.7C182.791 164.569 182.301 165.747 182.297 166.976C182.301 168.205 182.791 169.383 183.661 170.252C184.53 171.122 185.708 171.612 186.937 171.616H288.329C289.558 171.612 290.736 171.122 291.605 170.252C292.474 169.383 292.965 168.205 292.969 166.976C292.965 165.747 292.474 164.569 291.605 163.7C290.736 162.83 289.558 162.34 288.329 162.336Z" fill="#407BFF"/>
<path d="M155.706 324.544L150.066 322.712L153.57 309.408L159.21 311.24L155.706 324.544Z" fill="#FF8B7B"/>
<path d="M149.976 321.96L156.312 324.016C156.419 324.048 156.509 324.12 156.565 324.216C156.62 324.313 156.635 324.428 156.608 324.536L155.288 329.656C155.204 329.92 155.018 330.139 154.772 330.267C154.526 330.394 154.24 330.419 153.976 330.336C151.784 329.584 150.776 329.112 147.984 328.208C146.264 327.648 140.616 326.192 138.248 325.424C135.88 324.656 136.704 322.336 137.776 322.448C142.576 322.952 146.896 322.728 148.896 321.992C149.243 321.862 149.622 321.851 149.976 321.96Z" fill="#263238"/>
<path opacity="0.2" d="M159.21 311.248L153.57 309.408L151.762 316.272L157.41 318.104L159.21 311.248Z" fill="black"/>
<path d="M174.626 176.576C174.626 176.576 164.506 223.416 162.13 240.256C159.53 258.696 149.762 314.072 149.762 314.072L160.234 316.968C160.234 316.968 174.746 263.264 178.986 245.336C183.586 225.872 195.786 176.536 195.786 176.536L174.626 176.576Z" fill="#407BFF"/>
<path opacity="0.3" d="M187.137 191.936C183.137 201.008 181.161 220.736 182.713 229.816C185.545 218.176 188.953 204.336 191.585 193.688C190.697 190.6 189.225 187.2 187.137 191.936Z" fill="black"/>
<path d="M160.497 317.176L149.281 314.088L149.505 309.52L162.129 313.88L160.497 317.176Z" fill="#263238"/>
<path d="M147.658 322.296C148.18 322.448 148.716 322.545 149.258 322.584C149.285 322.586 149.312 322.58 149.335 322.567C149.359 322.554 149.379 322.535 149.392 322.512C149.405 322.488 149.412 322.462 149.411 322.435C149.41 322.408 149.401 322.382 149.386 322.36C149.242 322.176 148.002 320.568 147.226 320.616C147.137 320.62 147.05 320.648 146.975 320.695C146.899 320.743 146.837 320.809 146.794 320.888C146.714 321.004 146.666 321.139 146.655 321.279C146.644 321.42 146.67 321.561 146.73 321.688C146.957 321.995 147.287 322.21 147.658 322.296ZM148.93 322.296C147.858 322.168 147.122 321.896 146.946 321.552C146.91 321.471 146.895 321.381 146.905 321.292C146.915 321.204 146.949 321.119 147.002 321.048C147.023 321.009 147.052 320.977 147.089 320.953C147.125 320.929 147.167 320.915 147.21 320.912C147.626 320.864 148.41 321.648 148.93 322.272V322.296Z" fill="#263238"/>
<path d="M149.201 322.576H149.265C149.288 322.571 149.31 322.56 149.328 322.545C149.346 322.53 149.36 322.51 149.369 322.488C149.369 322.424 150.049 320.84 149.657 320.088C149.608 319.993 149.538 319.911 149.452 319.849C149.366 319.786 149.266 319.745 149.161 319.728C149.047 319.694 148.926 319.699 148.815 319.743C148.705 319.786 148.613 319.865 148.553 319.968C148.225 320.544 148.681 321.992 149.137 322.512L149.201 322.576ZM149.201 320.04C149.254 320.055 149.304 320.082 149.347 320.118C149.39 320.154 149.424 320.198 149.449 320.248C149.583 320.892 149.507 321.562 149.233 322.16C148.846 321.561 148.7 320.838 148.825 320.136C148.825 320.064 148.937 319.984 149.137 320.024L149.201 320.04Z" fill="#263238"/>
<path d="M185.393 132.104C185.089 132.824 184.833 133.368 184.553 133.976C184.273 134.584 183.969 135.144 183.673 135.72C183.081 136.88 182.457 138.008 181.809 139.136C180.5 141.401 179.057 143.586 177.489 145.68C175.883 147.845 174.104 149.876 172.169 151.752C170.107 153.782 167.769 155.511 165.225 156.888L165.025 156.992C164.701 157.159 164.357 157.283 164.001 157.36C162.179 157.739 160.291 157.665 158.505 157.144C157.02 156.7 155.608 156.042 154.313 155.192C152.14 153.731 150.189 151.963 148.521 149.944C146.971 148.103 145.562 146.148 144.305 144.096C143.063 142.08 141.959 139.982 141.001 137.816C140.754 137.243 140.722 136.601 140.91 136.006C141.099 135.412 141.495 134.905 142.027 134.58C142.559 134.254 143.191 134.131 143.806 134.233C144.421 134.335 144.979 134.656 145.377 135.136L145.457 135.232C146.777 136.832 148.209 138.536 149.649 140.088C151.052 141.633 152.542 143.097 154.113 144.472C155.501 145.73 157.044 146.806 158.705 147.672C159.326 147.991 159.992 148.213 160.681 148.328C161.066 148.4 161.464 148.367 161.833 148.232L160.609 148.704C162.262 147.589 163.77 146.273 165.097 144.784C166.541 143.162 167.878 141.446 169.097 139.648C170.361 137.808 171.561 135.88 172.689 133.896C173.265 132.912 173.817 131.912 174.337 130.896L175.137 129.384C175.385 128.896 175.657 128.336 175.849 127.944L175.897 127.832C176.48 126.601 177.523 125.649 178.801 125.179C180.079 124.708 181.491 124.758 182.732 125.318C183.974 125.878 184.946 126.902 185.441 128.171C185.935 129.44 185.912 130.852 185.377 132.104H185.393Z" fill="#263238"/>
<path opacity="0.3" d="M172.313 142.968C174.825 136.296 180.161 136.184 182.473 137.952C182.305 138.264 182.129 138.576 181.953 138.888C180.698 141.072 179.322 143.185 177.833 145.216C176.304 147.306 174.622 149.279 172.801 151.12C172.225 151.688 171.633 152.248 171.017 152.792C170.805 149.464 171.245 146.127 172.313 142.968Z" fill="black"/>
<path d="M140.802 138.232L135.602 138.424L136.898 132.864C138.688 132.953 140.465 133.221 142.202 133.664C142.518 133.76 142.807 133.929 143.046 134.157C143.285 134.385 143.466 134.667 143.576 134.978C143.686 135.29 143.721 135.623 143.678 135.951C143.635 136.278 143.516 136.591 143.33 136.864C143.048 137.278 142.672 137.618 142.232 137.856C141.792 138.094 141.302 138.223 140.802 138.232Z" fill="#FF8B7B"/>
<path d="M143.713 133.536C143.203 133.131 142.618 132.83 141.993 132.648C141.561 134.92 138.793 138.752 138.793 138.752H140.961C141.24 138.753 141.516 138.692 141.769 138.575C142.022 138.457 142.246 138.286 142.425 138.072L143.945 136.248C144.111 136.056 144.238 135.833 144.316 135.592C144.395 135.351 144.424 135.096 144.403 134.843C144.381 134.59 144.309 134.344 144.19 134.12C144.072 133.895 143.91 133.697 143.713 133.536Z" fill="#407BFF"/>
<path d="M131.617 135.864L133.073 131.944L136.881 132.872L135.585 138.424L131.617 135.864Z" fill="#FF8B7B"/>
<path d="M197.003 327.136H191.075L190.867 313.4H196.795L197.003 327.136Z" fill="#FF8B7B"/>
<path d="M190.76 326.448H197.424C197.479 326.446 197.535 326.455 197.587 326.474C197.64 326.494 197.687 326.523 197.728 326.561C197.769 326.599 197.802 326.645 197.825 326.695C197.849 326.746 197.862 326.801 197.864 326.856L198.184 332.128C198.184 332.406 198.075 332.672 197.88 332.869C197.686 333.067 197.421 333.18 197.144 333.184C194.824 333.144 193.72 333.008 190.744 333.008C188.944 333.008 182.92 333.192 180.432 333.192C177.944 333.192 178.032 330.728 179.064 330.504C183.8 329.512 188.024 328.104 189.696 326.816C189.997 326.573 190.373 326.443 190.76 326.448Z" fill="#263238"/>
<path opacity="0.2" d="M196.803 313.408H190.867L190.979 320.488H196.907L196.803 313.408Z" fill="black"/>
<path d="M186.194 176.576C186.194 176.576 183.93 228.104 184.89 245.088C185.946 263.68 188.154 318.776 188.154 318.776H199.018C199.018 318.776 201.754 265.176 202.41 246.776C203.122 226.776 206.346 176.576 206.346 176.576H186.194Z" fill="#407BFF"/>
<path d="M199.456 318.776H187.72L186.824 314.408L199.776 315.056L199.456 318.776Z" fill="#263238"/>
<path d="M188.657 327.48C189.196 327.467 189.733 327.397 190.257 327.272C190.283 327.264 190.305 327.249 190.324 327.229C190.342 327.21 190.355 327.186 190.361 327.16C190.364 327.135 190.361 327.109 190.351 327.085C190.341 327.061 190.325 327.04 190.305 327.024C190.113 326.888 188.433 325.744 187.705 326.032C187.624 326.065 187.553 326.117 187.497 326.184C187.441 326.251 187.403 326.331 187.385 326.416C187.349 326.546 187.346 326.683 187.377 326.815C187.407 326.946 187.471 327.068 187.561 327.168C187.876 327.403 188.266 327.514 188.657 327.48ZM189.857 327.072C188.793 327.28 188.017 327.248 187.737 326.976C187.68 326.909 187.641 326.828 187.624 326.741C187.607 326.654 187.613 326.564 187.641 326.48C187.647 326.437 187.664 326.397 187.691 326.363C187.718 326.33 187.753 326.304 187.793 326.288C188.185 326.136 189.169 326.632 189.857 327.072Z" fill="#263238"/>
<path d="M190.209 327.272C190.23 327.279 190.252 327.279 190.273 327.272C190.293 327.261 190.31 327.245 190.322 327.225C190.335 327.206 190.343 327.183 190.345 327.16C190.345 327.088 190.481 325.384 189.881 324.808C189.805 324.734 189.712 324.677 189.611 324.644C189.51 324.611 189.402 324.601 189.297 324.616C189.18 324.621 189.067 324.664 188.977 324.739C188.888 324.815 188.825 324.918 188.801 325.032C188.657 325.68 189.545 326.92 190.137 327.272C190.16 327.28 190.185 327.28 190.209 327.272ZM189.409 324.872C189.464 324.871 189.518 324.881 189.569 324.901C189.62 324.922 189.666 324.953 189.705 324.992C190.035 325.563 190.173 326.225 190.097 326.88C189.585 326.44 188.993 325.496 189.081 325.072C189.081 324.992 189.145 324.896 189.345 324.872H189.409Z" fill="#263238"/>
<path d="M209.312 128.752C209.401 128.252 209.388 127.739 209.274 127.244C209.159 126.749 208.947 126.282 208.648 125.871C208.349 125.461 207.971 125.114 207.535 124.853C207.099 124.592 206.615 124.422 206.112 124.352H206.048C204.136 124.072 201.736 123.784 199.384 123.672C194.894 123.416 190.394 123.416 185.904 123.672C183.832 123.864 181.808 124.208 180.192 124.52H180.128C179.118 124.724 178.182 125.2 177.422 125.896C176.663 126.593 176.107 127.483 175.816 128.472C173.88 134.992 171.568 148.304 174.592 176.568H206.312C206.536 173.736 205.904 164.52 206.368 152.784C206.832 144.718 207.815 136.691 209.312 128.752Z" fill="#263238"/>
<path opacity="0.3" d="M209.009 130.496C208.353 134.288 207.545 139.448 206.985 144.896C206.985 144.896 204.089 139.216 203.561 134.36C203.033 129.504 207.201 129.136 209.009 130.496Z" fill="black"/>
<g opacity="0.2">
<path d="M187.735 131.248C187.669 131.245 187.606 131.221 187.556 131.179C187.505 131.137 187.469 131.079 187.454 131.015C187.438 130.951 187.444 130.884 187.47 130.823C187.497 130.763 187.542 130.713 187.599 130.68L197.487 125.552C197.558 125.518 197.638 125.512 197.713 125.536C197.787 125.56 197.85 125.611 197.887 125.68C197.924 125.751 197.931 125.834 197.907 125.91C197.883 125.987 197.83 126.051 197.759 126.088L187.871 131.2C187.829 131.225 187.783 131.241 187.735 131.248Z" fill="white"/>
<path d="M192.266 131.712C192.227 131.714 192.188 131.707 192.152 131.691C192.116 131.676 192.084 131.653 192.058 131.624L186.634 126.24C186.58 126.182 186.551 126.107 186.551 126.028C186.551 125.949 186.58 125.874 186.634 125.816C186.691 125.761 186.767 125.73 186.846 125.73C186.925 125.73 187.001 125.761 187.058 125.816L192.474 131.208C192.529 131.265 192.56 131.341 192.56 131.42C192.56 131.499 192.529 131.575 192.474 131.632C192.446 131.659 192.414 131.679 192.378 131.693C192.342 131.707 192.304 131.713 192.266 131.712Z" fill="white"/>
<path d="M199.408 123.664C194.921 123.408 190.423 123.408 185.936 123.664H185.712C185.603 124.076 185.577 124.505 185.636 124.927C185.695 125.348 185.838 125.754 186.056 126.12C186.808 127.32 188.384 127.992 190.752 128.12H191.64C198.04 128.12 200.512 124.232 200.616 124.064L200.84 123.704L199.408 123.664Z" fill="white"/>
</g>
<path d="M186.576 123.616C190.496 122.688 191.184 120.264 190.92 117.6C190.858 116.933 190.754 116.27 190.608 115.616L195.52 111.536L199.128 108.544C198.128 112.888 197 120.8 199.928 123.696C199.928 123.696 197.528 127.696 190.784 127.344C185.128 127.032 186.576 123.616 186.576 123.616Z" fill="#FF8B7B"/>
<path opacity="0.2" d="M190.609 115.616C190.755 116.27 190.859 116.933 190.921 117.6C192.753 117.232 195.201 115.28 195.457 113.408C195.547 112.788 195.569 112.161 195.521 111.536L190.609 115.616Z" fill="black"/>
<path d="M188.003 94.8C185.339 96.4 185.763 100.4 185.043 103.264C186.739 103.432 189.411 100.416 189.411 100.416L191.011 95.832L188.003 94.8Z" fill="#263238"/>
<path d="M202.168 102.848C200.464 108.496 199.768 111.88 196.152 114.24C194.989 115.018 193.635 115.463 192.238 115.527C190.84 115.591 189.452 115.271 188.223 114.603C186.994 113.935 185.971 112.944 185.264 111.736C184.558 110.529 184.195 109.151 184.216 107.752C184.216 102.368 186.984 94.0321 193.16 92.8801C194.491 92.5956 195.873 92.6663 197.169 93.0851C198.464 93.5038 199.626 94.2559 200.539 95.2658C201.451 96.2758 202.082 97.508 202.368 98.8389C202.654 100.17 202.585 101.552 202.168 102.848Z" fill="#FF8B7B"/>
<path d="M196.85 107.64C200.85 103 195.85 100.712 199.938 97.4881C195.338 97.7041 187.762 97.3761 186.41 94.2241C185.058 91.0721 189.218 86.8001 192.682 86.4001C196.682 85.9361 195.818 90.8881 195.818 90.8881C195.818 90.8881 211.122 89.9361 206.266 96.4881C209.946 96.2641 208.93 102.216 202.53 107.24C200.922 107.776 196.85 107.64 196.85 107.64Z" fill="#263238"/>
<path d="M205.344 96.5681C205.344 96.5681 208.496 95.6321 208.392 93.1361C209.528 93.9201 209.648 96.3041 205.344 96.5681Z" fill="#263238"/>
<path d="M203.107 108.744C202.186 109.881 200.9 110.664 199.467 110.96C197.651 111.288 197.227 109.608 198.131 107.968C198.931 106.496 200.875 104.552 202.507 104.96C204.139 105.368 204.267 107.312 203.107 108.744Z" fill="#FF8B7B"/>
<path d="M193.059 102.704C192.947 103.168 192.611 103.504 192.299 103.432C191.987 103.36 191.835 102.944 191.947 102.48C192.059 102.016 192.395 101.68 192.699 101.744C193.003 101.808 193.171 102.232 193.059 102.704Z" fill="#263238"/>
<path d="M187.752 101.64C187.64 102.104 187.304 102.44 187 102.376C186.696 102.312 186.528 101.888 186.64 101.424C186.752 100.96 187.088 100.624 187.392 100.688C187.696 100.752 187.864 101.176 187.752 101.64Z" fill="#263238"/>
<path d="M189.384 102.208C188.481 103.525 187.404 104.714 186.184 105.744C186.456 106.037 186.788 106.267 187.159 106.418C187.529 106.569 187.928 106.636 188.328 106.616L189.384 102.208Z" fill="#FF5652"/>
<path d="M189.963 108.248C190.517 108.3 191.076 108.239 191.605 108.068C192.135 107.898 192.624 107.622 193.043 107.256C193.057 107.244 193.068 107.229 193.075 107.213C193.083 107.196 193.087 107.178 193.087 107.16C193.087 107.142 193.083 107.124 193.075 107.107C193.068 107.091 193.057 107.076 193.043 107.064C193.016 107.038 192.981 107.024 192.943 107.024C192.906 107.024 192.87 107.038 192.843 107.064C192.383 107.455 191.839 107.734 191.254 107.88C190.668 108.026 190.057 108.034 189.467 107.904C189.449 107.901 189.431 107.901 189.413 107.905C189.395 107.908 189.378 107.916 189.364 107.926C189.349 107.937 189.336 107.95 189.326 107.965C189.317 107.981 189.31 107.998 189.307 108.016C189.3 108.053 189.308 108.092 189.329 108.123C189.35 108.154 189.382 108.176 189.419 108.184L189.963 108.248Z" fill="#263238"/>
<path d="M195.104 101.408C195.148 101.423 195.196 101.423 195.24 101.408C195.274 101.393 195.304 101.372 195.329 101.346C195.354 101.319 195.374 101.287 195.387 101.253C195.399 101.219 195.405 101.182 195.403 101.146C195.401 101.109 195.392 101.073 195.376 101.04C195.204 100.631 194.934 100.271 194.589 99.9917C194.244 99.7125 193.836 99.523 193.4 99.4401C193.326 99.4308 193.251 99.4507 193.192 99.4955C193.132 99.5402 193.092 99.6064 193.08 99.6801C193.076 99.7169 193.079 99.7542 193.089 99.7899C193.099 99.8256 193.116 99.8589 193.139 99.8879C193.162 99.9169 193.191 99.9411 193.223 99.959C193.256 99.9769 193.291 99.9881 193.328 99.9921C193.667 100.064 193.984 100.216 194.251 100.436C194.518 100.656 194.729 100.937 194.864 101.256C194.888 101.3 194.922 101.337 194.964 101.364C195.006 101.39 195.054 101.406 195.104 101.408Z" fill="#263238"/>
<path d="M186.441 98.4561C186.484 98.4717 186.531 98.4755 186.576 98.4671C186.621 98.4586 186.663 98.4382 186.697 98.4081C186.973 98.1781 187.299 98.0157 187.649 97.9338C187.999 97.8518 188.363 97.8526 188.713 97.9361C188.748 97.9476 188.785 97.9521 188.822 97.9493C188.859 97.9465 188.895 97.9365 188.928 97.9198C188.961 97.9031 188.991 97.88 189.015 97.8519C189.039 97.8238 189.058 97.7913 189.069 97.7561C189.081 97.7209 189.085 97.6837 189.082 97.6468C189.08 97.6099 189.07 97.5738 189.053 97.5408C189.036 97.5077 189.013 97.4783 188.985 97.4541C188.957 97.43 188.924 97.4116 188.889 97.4001C188.451 97.2919 187.994 97.2869 187.554 97.3855C187.114 97.484 186.703 97.6835 186.353 97.9681C186.295 98.0138 186.257 98.0807 186.248 98.1542C186.239 98.2276 186.26 98.3016 186.305 98.3601C186.337 98.4073 186.386 98.4413 186.441 98.4561Z" fill="#263238"/>
<path d="M209.603 126.472L210.267 127.376L210.867 128.224C211.267 128.792 211.627 129.36 212.003 129.928C212.731 131.072 213.419 132.232 214.083 133.4C215.414 135.735 216.621 138.138 217.699 140.6C218.259 141.816 218.739 143.08 219.251 144.32C219.763 145.56 220.195 146.848 220.587 148.144C221.43 150.724 222.124 153.349 222.667 156.008L222.731 156.312C222.848 156.849 222.859 157.404 222.761 157.945C222.664 158.486 222.46 159.002 222.163 159.464C221.132 161.046 219.909 162.494 218.523 163.776C217.097 165.083 215.478 166.162 213.723 166.976C211.99 167.783 210.136 168.297 208.235 168.496C207.305 168.592 206.368 168.608 205.435 168.544C204.971 168.544 204.507 168.456 204.043 168.384L203.339 168.248L202.539 168.048C202.445 168.025 202.363 167.966 202.313 167.884C202.262 167.802 202.245 167.702 202.267 167.608L203.371 162.968C203.371 162.928 203.579 162.92 203.707 162.888L204.147 162.8C204.451 162.736 204.747 162.664 205.051 162.584C205.643 162.424 206.224 162.22 206.787 161.976C207.877 161.529 208.898 160.928 209.819 160.192C211.62 158.71 213.06 156.835 214.027 154.712L213.523 158.168C212.835 155.904 212.107 153.664 211.227 151.448C210.347 149.232 209.387 147.056 208.339 144.912C207.291 142.768 206.171 140.648 204.963 138.584C204.371 137.552 203.747 136.536 203.123 135.528L202.171 134.04L201.699 133.32L201.259 132.68L201.099 132.44C200.307 131.312 199.996 129.916 200.234 128.559C200.472 127.202 201.239 125.995 202.367 125.204C203.495 124.413 204.89 124.102 206.247 124.339C207.604 124.577 208.811 125.344 209.603 126.472Z" fill="#263238"/>
<path d="M199.025 167.584L197.305 170.4L204.769 170.104C204.769 170.104 206.729 165.08 204.057 164.288L203.017 164.568C201.353 165.034 199.927 166.111 199.025 167.584Z" fill="#FF8B7B"/>
<path d="M202.098 163.64C201.561 164.004 201.099 164.468 200.738 165.008C202.77 166.112 205.602 169.872 205.602 169.872L206.258 167.808C206.342 167.542 206.366 167.26 206.328 166.984C206.291 166.708 206.193 166.443 206.042 166.208L204.802 164.208C204.667 163.988 204.488 163.798 204.276 163.649C204.065 163.5 203.825 163.396 203.572 163.343C203.319 163.29 203.058 163.289 202.805 163.34C202.551 163.391 202.311 163.493 202.098 163.64Z" fill="#407BFF"/>
<path d="M197.961 174.736L204.113 174.192L204.769 170.104L197.305 170.4L197.961 174.736Z" fill="#FF8B7B"/>
<path d="M122.447 77.0719L122.039 76.3839C123.212 75.6887 124.434 75.0791 125.695 74.5599L125.999 75.3039C124.773 75.8044 123.586 76.3953 122.447 77.0719Z" fill="#407BFF"/>
<path d="M110.769 91.2L109.969 90.928C111.865 85.6767 115.296 81.1168 119.817 77.84L120.289 78.488C115.911 81.6733 112.594 86.1029 110.769 91.2Z" fill="#407BFF"/>
<path d="M136.159 124.936C149.759 124.936 160.783 113.911 160.783 100.312C160.783 86.7125 149.759 75.688 136.159 75.688C122.56 75.688 111.535 86.7125 111.535 100.312C111.535 113.911 122.56 124.936 136.159 124.936Z" fill="#407BFF"/>
<path opacity="0.6" d="M156.73 100.312C156.728 105.11 155.049 109.757 151.983 113.448C148.916 117.139 144.656 119.642 139.939 120.523C135.222 121.405 130.346 120.609 126.153 118.274C121.961 115.939 118.718 112.212 116.984 107.738C115.25 103.263 115.135 98.3236 116.658 93.7735C118.182 89.2234 121.249 85.3492 125.328 82.8217C129.407 80.2942 134.241 79.2724 138.994 79.9332C143.747 80.5939 148.119 82.8957 151.354 86.44C151.36 86.4371 151.367 86.4356 151.374 86.4356C151.381 86.4356 151.387 86.4371 151.394 86.44C154.843 90.2351 156.746 95.1838 156.73 100.312Z" fill="white"/>
<path d="M156.727 100.312C156.727 104.31 155.562 108.221 153.374 111.568C151.186 114.914 148.07 117.55 144.407 119.153C140.745 120.757 136.694 121.258 132.752 120.595C128.809 119.933 125.144 118.136 122.207 115.424C118.615 111.51 116.677 106.359 116.798 101.048C116.92 95.7372 119.091 90.6794 122.857 86.9336C126.624 83.1878 131.694 81.0444 137.005 80.9524C142.316 80.8604 147.457 82.8269 151.351 86.4401C151.357 86.4372 151.364 86.4357 151.371 86.4357C151.378 86.4357 151.385 86.4372 151.391 86.4401C154.84 90.2352 156.743 95.1839 156.727 100.312Z" fill="white"/>
<path d="M136.16 101.512C136.003 101.512 135.847 101.481 135.701 101.421C135.556 101.36 135.423 101.272 135.312 101.16L125.28 91.128C125.162 91.0181 125.068 90.8856 125.002 90.7384C124.937 90.5912 124.901 90.4323 124.899 90.2712C124.896 90.1101 124.925 89.95 124.986 89.8006C125.046 89.6512 125.136 89.5155 125.25 89.4015C125.364 89.2876 125.5 89.1977 125.649 89.1374C125.798 89.077 125.958 89.0474 126.12 89.0502C126.281 89.0531 126.44 89.0883 126.587 89.1539C126.734 89.2195 126.867 89.3141 126.976 89.432L136.16 98.616L141.464 93.312C141.692 93.1 141.993 92.9846 142.304 92.9901C142.615 92.9956 142.911 93.1215 143.131 93.3414C143.351 93.5612 143.477 93.8579 143.482 94.1687C143.488 94.4796 143.372 94.7805 143.16 95.008L137.008 101.16C136.783 101.384 136.478 101.511 136.16 101.512Z" fill="#263238"/>
</svg>
