<svg width="19" height="19" viewBox="0 0 19 19" fill="none" xmlns="http://www.w3.org/2000/svg">
<path d="M11.6215 16.8955C10.3959 18.1211 8.92275 18.734 7.20212 18.734C5.48149 18.734 4.00835 18.1211 2.7827 16.8955C1.55705 15.6698 0.944222 14.1967 0.944222 12.4761C0.944222 10.7554 1.55705 9.28231 2.7827 8.05666L9.32344 1.51592C10.2073 0.632034 11.268 0.190093 12.5054 0.190093C13.7429 0.190093 14.8035 0.632035 15.6874 1.51592C16.5713 2.3998 17.0132 3.46046 17.0132 4.6979C17.0132 5.93534 16.5713 6.996 15.6874 7.87988L9.50022 14.0671C8.9581 14.6092 8.30992 14.8802 7.55567 14.8802C6.80142 14.8802 6.15324 14.6092 5.61113 14.0671C5.06901 13.525 4.79795 12.8768 4.79795 12.1225C4.79795 11.3683 5.06901 10.7201 5.61113 10.178L11.4448 4.34435C11.6451 4.144 11.8808 4.04383 12.1519 4.04383C12.4229 4.04383 12.6586 4.144 12.859 4.34435C13.0593 4.54469 13.1595 4.7804 13.1595 5.05145C13.1595 5.32251 13.0593 5.55821 12.859 5.75856L7.02534 11.5922C6.87213 11.7454 6.79553 11.9222 6.79553 12.1225C6.79553 12.3229 6.87214 12.4996 7.02534 12.6529C7.17855 12.8061 7.35532 12.8827 7.55567 12.8827C7.75602 12.8827 7.9328 12.8061 8.086 12.6529L14.2732 6.46567C14.7564 5.95891 15.0009 5.36671 15.0068 4.68906C15.0127 4.01142 14.7682 3.42511 14.2732 2.93013C13.7782 2.43516 13.189 2.18767 12.5054 2.18767C11.8219 2.18767 11.2326 2.43516 10.7377 2.93013L4.19691 9.47087C3.34839 10.2958 2.92707 11.2946 2.93296 12.4672C2.93885 13.6399 3.36017 14.6445 4.19691 15.4813C5.02187 16.3062 6.01477 16.7158 7.1756 16.7099C8.33644 16.704 9.34701 16.2945 10.2073 15.4813L16.3945 9.2941C16.5949 9.09375 16.8306 8.99357 17.1016 8.99357C17.3727 8.99357 17.6084 9.09375 17.8087 9.2941C18.0091 9.49444 18.1092 9.73014 18.1092 10.0012C18.1092 10.2723 18.0091 10.508 17.8087 10.7083L11.6215 16.8955Z" fill="#5F6C86"/>
</svg>
