<svg xmlns="http://www.w3.org/2000/svg" version="1.1" xmlns:xlink="http://www.w3.org/1999/xlink" xmlns:svgjs="http://svgjs.dev/svgjs" width="1000" height="1000"><g clip-path="url(#SvgjsClipPath1013)"><rect width="1000" height="1000" fill="#ffffff"></rect><g transform="matrix(9.58904109589041,0,0,9.58904109589041,150,193.15068493150687)"><svg xmlns="http://www.w3.org/2000/svg" version="1.1" xmlns:xlink="http://www.w3.org/1999/xlink" xmlns:svgjs="http://svgjs.dev/svgjs" width="73" height="64"><svg width="73" height="64" viewBox="0 0 73 64" fill="none" xmlns="http://www.w3.org/2000/svg">
<path d="M29.486 26.2148H9.82881L0.000244141 43.1353L9.82881 60.0559H29.486L39.3163 43.1353L29.486 26.2148Z" fill="#1256DB"></path>
<path d="M62.6979 4.36914H43.0409L33.2122 21.2897L43.0409 38.212H62.6979L72.5282 21.2897L62.6979 4.36914Z" fill="#1256DB"></path>
<path d="M59.4614 41.5039H46.397L39.8638 52.7482L46.397 63.9941H59.4614L65.9928 52.7482L59.4614 41.5039Z" fill="#1256DB"></path>
<path d="M26.4352 0.000976562H13.3708L6.83765 11.2453L13.3708 22.4914H26.4352L32.9667 11.2453L26.4352 0.000976562Z" fill="#FF0000"></path>
</svg></svg></g></g><defs><clipPath id="SvgjsClipPath1013"><rect width="1000" height="1000" x="0" y="0" rx="350" ry="350"></rect></clipPath></defs></svg>